<svg xmlns="http://www.w3.org/2000/svg" width="765.613" height="196.207" viewBox="0 0 765.613 196.207">
  <path id="CAPTURE_THE_WILD" data-name="CAPTURE THE WILD" d="M33.82,78.847q-8.657,0-15.656-3.762t-11-10.437q-4.005-6.675-4.005-15.09t4.005-15.09q4.005-6.675,11-10.437T33.9,20.268q7.363,0,13.31,2.589T57.2,30.3l-8.415,7.767q-5.745-6.635-14.24-6.635-5.259,0-9.386,2.306t-6.432,6.432q-2.306,4.126-2.306,9.386t2.306,9.386q2.306,4.126,6.432,6.432t9.386,2.306q8.5,0,14.24-6.716L57.2,68.733q-4.046,4.936-10.033,7.525T33.82,78.847ZM91.509,20.268q7.848,0,13.674,3.075t9.062,9.062q3.236,5.987,3.236,14.483V77.876H104.374V64.283H78.483V77.876H65.537V46.887q0-8.5,3.236-14.483t9.062-9.062Q83.661,20.268,91.509,20.268Zm12.865,33.5V45.674q0-7.039-3.479-10.64t-9.466-3.6q-6.068,0-9.507,3.6t-3.439,10.64v8.091Zm50.569-32.526q7.525,0,13.067,2.508t8.536,7.12q2.994,4.612,2.994,10.923,0,6.23-2.994,10.882t-8.536,7.12q-5.542,2.468-13.067,2.468H143.535V77.876H130.427V21.239Zm-.728,30.341q5.906,0,8.981-2.549t3.075-7.241q0-4.774-3.075-7.322t-8.981-2.549h-10.68V51.58Zm76.7-14.483q-7.282-4.207-15.616-5.421v46.2H202.195v-46.2q-8.334,1.214-15.7,5.421l-4.45-9.79q5.826-3.479,12.622-5.259t14-1.78q7.282,0,14.119,1.78t12.582,5.259Zm61.006-15.858V77.876h-12.7V71q-5.826,7.848-17.153,7.848-10.033,0-15.656-6.351t-5.623-18.083V21.239H253.9V54.008q0,6.8,3.2,10.235t8.7,3.439q5.906,0,9.467-3.681t3.56-10.882V21.239Zm49.517,56.637L330.518,62.1H318.463V77.876H305.355V21.239h24.516q7.525,0,13.067,2.508t8.536,7.12q2.994,4.612,2.994,10.923t-3.034,10.882q-3.034,4.571-8.617,7l12.7,18.2ZM341.2,41.79q0-4.774-3.075-7.322t-8.981-2.549h-10.68V51.661h10.68q5.906,0,8.981-2.589T341.2,41.79ZM411.1,73.021q-4.046,2.751-10.154,4.288t-12.986,1.537q-8.576,0-14.564-2.144t-9.062-5.987q-3.075-3.843-3.075-8.779,0-4.531,2.508-8.01t6.877-5.178q-3.317-1.78-5.138-4.855t-1.82-6.877q0-4.612,2.832-8.415t8.576-6.068q5.745-2.265,14.078-2.265,5.5,0,10.761,1.092t9.143,2.953l-3.641,10.033Q398,30.867,389.664,30.867q-6.311,0-9.507,1.9t-3.2,5.138q0,2.994,2.144,4.571t6.513,1.578h15.454V54.412H384.809q-4.936,0-7.606,1.7t-2.67,4.936q0,3.4,3.439,5.3t10.559,1.9q5.016,0,10.033-1.335t8.5-3.762ZM482.953,37.1q-7.282-4.207-15.616-5.421v46.2H454.23v-46.2q-8.334,1.214-15.7,5.421l-4.45-9.79q5.826-3.479,12.622-5.259t14-1.78q7.282,0,14.119,1.78T487.4,27.307Zm62.3-15.858V77.876H532.147V54.655H506.417V77.876H493.31V21.239h13.107V43.57h25.729V21.239Zm59.712,51.783q-4.046,2.751-10.154,4.288t-12.986,1.537q-8.577,0-14.564-2.144T558.2,70.716q-3.075-3.843-3.075-8.779,0-4.531,2.508-8.01t6.877-5.178q-3.317-1.78-5.138-4.855t-1.82-6.877q0-4.612,2.832-8.415t8.576-6.068q5.745-2.265,14.078-2.265,5.5,0,10.761,1.092t9.143,2.953L599.3,34.346q-7.444-3.479-15.777-3.479-6.311,0-9.507,1.9t-3.2,5.138q0,2.994,2.144,4.571t6.513,1.578h15.454V54.412H578.67q-4.936,0-7.606,1.7t-2.67,4.936q0,3.4,3.439,5.3t10.559,1.9q5.016,0,10.033-1.335t8.5-3.762ZM90.943,119.343v33.416q0,11.813-6.392,18t-18.124,6.19q-5.826,0-10.4-1.7t-7.484-4.774q-2.994,3.075-7.525,4.774t-10.276,1.7q-11.732,0-18.124-6.19t-6.392-18V119.343H19.338v33.011q0,6.877,2.832,10.154t8.415,3.277q11.408,0,11.408-13.431V119.343H55.1v33.011q0,13.431,11.489,13.431,11.166,0,11.166-13.431V119.343Zm32.364,10.518v35.6h9.79V175.98H100.329V165.461H110.2v-35.6h-9.871V119.343H133.1v10.518Zm19.661-10.518h13.107V165.3h28.4v10.68H142.968Zm48.87,0h25.729q9.224,0,16.3,3.52t11,9.912q3.924,6.392,3.924,14.887t-3.924,14.887q-3.924,6.392-11,9.912t-16.3,3.52H191.838Zm25.082,45.876q8.5,0,13.552-4.733t5.057-12.824q0-8.091-5.057-12.824T216.92,130.1H204.946v35.115Z" fill="#e06817" style="mix-blend-mode: multiply;isolation: isolate"/>
</svg>
