<?xml version="1.0" encoding="utf-8"?>
<!-- Generator: Adobe Illustrator 25.2.0, SVG Export Plug-In . SVG Version: 6.00 Build 0)  -->
<svg version="1.1" id="Ebene_1" xmlns="http://www.w3.org/2000/svg" xmlns:xlink="http://www.w3.org/1999/xlink" x="0px" y="0px"
	 viewBox="0 0 308.7 253.7" style="enable-background:new 0 0 308.7 253.7;" xml:space="preserve">
<style type="text/css">
	.st0{fill:#C4987B;}
	.st1{fill:#CAB290;}
	.st2{fill:#C1AD8C;}
	.st3{fill:#BAA788;}
	.st4{fill:#AD9E7E;}
	.st5{fill:#A8997A;}
	.st6{fill:#97886E;}
	.st7{fill:#BCA885;}
	.st8{fill:#8D7863;}
	.st9{fill:#886D5A;}
	.st10{fill:#A58E6F;}
	.st11{fill:#9C7C63;}
	.st12{fill:#8D6E5A;}
	.st13{fill:#B0916B;}
	.st14{fill:#C1966B;}
	.st15{fill:#C5996C;}
	.st16{fill:#BA9779;}
	.st17{fill:#BAA182;}
	.st18{fill:#B69F81;}
	.st19{fill:#D4B892;}
	.st20{fill:#FFFFFF;}
</style>
<g>
	<path class="st0" d="M302.7,102.6l-17.6,11.4l23.5,15.7C309.2,120.4,307.2,110.9,302.7,102.6z"/>
	<path class="st1" d="M302.7,102.6c-4.7-8.7-12.2-16.1-22.5-20.7l4.9,32.1L302.7,102.6z"/>
	<path class="st2" d="M285.2,114.1l-4.9-32.1c-2.6-1.2-5.4-2.1-8.3-2.9c-7.3-1.9-14-5.5-19.8-10.4l-7-6l-46.4,54.6L285.2,114.1z"/>
	<path class="st3" d="M198.7,117.2l34.2,84.2l19.3-16.6c0.7-0.6,1.4-1.1,2.1-1.7l30.9-69.1L198.7,117.2z"/>
	<polygon class="st4" points="198.7,117.2 163.4,195.5 221,211.7 232.9,201.4 	"/>
	<polygon class="st5" points="192.3,236.5 221,211.7 163.4,195.5 	"/>
	<path class="st6" d="M154.2,253.4c11.5,0,23.1-4,32.4-12l5.7-4.9l-28.9-41L154.2,253.4z"/>
	<polygon class="st7" points="163.4,195.5 198.7,117.2 66.8,89.6 	"/>
	<path class="st8" d="M112.8,233.3l9.4,8.1c9.2,8,20.6,12,32.1,12l9.2-58L112.8,233.3z"/>
	<polygon class="st9" points="62.2,189.7 112.8,233.3 163.4,195.5 	"/>
	<path class="st10" d="M66.8,89.6l-20.1,88.6c3.6,1.8,6.9,4,9.9,6.6l5.6,4.9l101.2,5.8L66.8,89.6z"/>
	<path class="st11" d="M0.8,117.7c-4.1,23.3,7.9,49.4,36,56.8c3.4,0.9,6.7,2.2,9.8,3.7l20.1-88.6L0.8,117.7z"/>
	<path class="st12" d="M22.5,85.1c-12.2,7.6-19.4,19.6-21.7,32.5l66-28.1L22.5,85.1z"/>
	<path class="st13" d="M60.2,65.5l-3.6,3.1c-5.7,4.9-12.5,8.5-19.7,10.4c-5.4,1.4-10.2,3.5-14.4,6.1l44.3,4.4L60.2,65.5z"/>
	<polygon class="st14" points="147.1,58.8 97.2,33.5 60.2,65.5 66.8,89.6 	"/>
	<path class="st15" d="M163,0.8C148.8-1.8,133.7,2,122.1,12L97.2,33.5l49.9,25.3L163,0.8z"/>
	<path class="st16" d="M221.4,42.1L186.6,12c-6.9-6-15.1-9.7-23.6-11.2l-16,58L221.4,42.1z"/>
	<path class="st17" d="M289.7,166c11.8-8.9,18.2-22.4,19-36.2l-23.5-15.7L289.7,166z"/>
	<path class="st18" d="M254.2,183.1c5.2-4.1,11.2-7,17.7-8.7c6.9-1.8,12.8-4.7,17.8-8.5l-4.5-51.9L254.2,183.1z"/>
	<polygon class="st19" points="66.8,89.6 198.7,117.2 245.2,62.6 221.4,42.1 147.1,58.8 	"/>
</g>
<path id="STARTEN" class="st20" d="M63.8,142.3c-2.4,0-4.7-0.3-6.9-1c-2.2-0.6-4-1.5-5.4-2.5l2.4-5.3c1.3,0.9,2.8,1.7,4.6,2.3
	c1.8,0.6,3.6,0.9,5.3,0.9c2,0,3.4-0.3,4.4-0.9s1.4-1.4,1.4-2.3c0-0.7-0.3-1.3-0.8-1.8c-0.6-0.5-1.3-0.9-2.2-1.1
	c-0.9-0.3-2.1-0.6-3.6-0.9c-2.3-0.5-4.2-1.1-5.6-1.6s-2.7-1.4-3.8-2.6c-1-1.2-1.6-2.8-1.6-4.8c0-1.8,0.5-3.3,1.4-4.8
	c0.9-1.4,2.4-2.5,4.3-3.4c1.9-0.8,4.2-1.2,7-1.2c1.9,0,3.8,0.2,5.6,0.7c1.8,0.5,3.4,1.1,4.8,2l-2.2,5.3c-2.8-1.6-5.6-2.4-8.4-2.4
	c-2,0-3.4,0.3-4.3,0.9s-1.4,1.5-1.4,2.5c0,1,0.5,1.8,1.6,2.3s2.7,1,4.9,1.5c2.3,0.5,4.2,1.1,5.6,1.6s2.7,1.4,3.8,2.6
	c1,1.2,1.6,2.8,1.6,4.8c0,1.7-0.5,3.3-1.4,4.7c-1,1.4-2.4,2.5-4.3,3.4C68.9,141.9,66.6,142.3,63.8,142.3z M103,120.1
	c-2.6-1.5-5.4-2.5-8.3-2.9v24.6h-7v-24.6c-3,0.4-5.7,1.4-8.4,2.9l-2.4-5.2c2.1-1.2,4.3-2.2,6.7-2.8c2.4-0.6,4.9-0.9,7.4-0.9
	c2.6,0,5.1,0.3,7.5,0.9c2.4,0.6,4.7,1.6,6.7,2.8L103,120.1z M121.7,111.1c2.8,0,5.2,0.5,7.3,1.6s3.7,2.7,4.8,4.8s1.7,4.7,1.7,7.7
	v16.5h-7v-7.2h-13.8v7.2h-6.9v-16.5c0-3,0.6-5.6,1.7-7.7c1.1-2.1,2.8-3.7,4.8-4.8C116.5,111.7,118.9,111.1,121.7,111.1z M128.5,129
	v-4.3c0-2.5-0.6-4.4-1.9-5.7c-1.2-1.3-2.9-1.9-5-1.9c-2.2,0-3.8,0.6-5.1,1.9c-1.2,1.3-1.8,3.2-1.8,5.7v4.3L128.5,129z M161.6,141.8
	l-5.8-8.4h-6.4v8.4h-7v-30.1h13c2.7,0,5,0.4,7,1.3s3.5,2.2,4.5,3.8c1.1,1.6,1.6,3.6,1.6,5.8c0,2.2-0.5,4.2-1.6,5.8
	c-1.1,1.6-2.6,2.9-4.6,3.7l6.8,9.7L161.6,141.8z M161.5,122.6c0-1.7-0.5-3-1.6-3.9c-1.1-0.9-2.7-1.4-4.8-1.4h-5.7v10.5h5.7
	c2.1,0,3.7-0.5,4.8-1.4C160.9,125.5,161.5,124.2,161.5,122.6L161.5,122.6z M196,120.1c-2.6-1.5-5.4-2.5-8.3-2.9v24.6h-7v-24.6
	c-3,0.4-5.7,1.4-8.4,2.9l-2.4-5.2c2.1-1.2,4.3-2.2,6.7-2.8c2.4-0.6,4.9-0.9,7.4-0.9c2.6,0,5.1,0.3,7.5,0.9c2.4,0.6,4.7,1.6,6.7,2.8
	L196,120.1z M225.7,139.2c-1.4,1-3.2,1.7-5.4,2.3c-2.2,0.5-4.5,0.8-6.9,0.8c-3,0-5.6-0.4-7.8-1.1s-3.7-1.8-4.8-3.2
	c-1.1-1.4-1.6-2.9-1.6-4.7c0-1.6,0.4-3,1.3-4.3c0.9-1.2,2.1-2.2,3.7-2.8c-1.2-0.6-2.1-1.5-2.7-2.6s-1-2.3-1-3.7
	c0-1.6,0.5-3.1,1.5-4.5c1-1.3,2.5-2.4,4.6-3.2c2-0.8,4.5-1.2,7.5-1.2c2,0,3.9,0.2,5.7,0.6s3.5,0.9,4.9,1.6l-1.9,5.3
	c-2.6-1.2-5.4-1.9-8.4-1.9c-2.2,0-3.9,0.3-5.1,1s-1.7,1.6-1.7,2.7c0,1.1,0.4,1.9,1.1,2.4c0.8,0.6,1.9,0.8,3.5,0.8h8.2v5.5h-8.7
	c-1.8,0-3.1,0.3-4,0.9c-0.9,0.6-1.4,1.5-1.4,2.6c0,1.2,0.6,2.1,1.8,2.8s3.1,1,5.6,1c1.8,0,3.6-0.2,5.3-0.7s3.3-1.1,4.5-2
	L225.7,139.2z M245.8,111.1c3.6,0,6.4,1.1,8.4,3.4c2,2.3,3,5.5,3,9.6v17.6h-7v-17.4c0-2.4-0.6-4.2-1.7-5.4c-1.1-1.2-2.7-1.8-4.7-1.8
	c-2.1,0-3.8,0.7-5.1,2c-1.3,1.3-1.9,3.2-1.9,5.8v17h-7v-30.1h6.8v3.7c1-1.4,2.3-2.4,3.9-3.1C242,111.5,243.8,111.1,245.8,111.1z"/>
</svg>
