<?xml version="1.0" encoding="utf-8"?>
<!-- Generator: Adobe Illustrator 25.2.0, SVG Export Plug-In . SVG Version: 6.00 Build 0)  -->
<svg version="1.1" id="Ebene_1" xmlns="http://www.w3.org/2000/svg" xmlns:xlink="http://www.w3.org/1999/xlink" x="0px" y="0px"
	 viewBox="0 0 186.4 509.1" style="enable-background:new 0 0 186.4 509.1;" xml:space="preserve">
<style type="text/css">
	.st0{fill:#B7BEA8;}
	.st1{fill:#698B8B;}
	.st2{fill:#8FA9A1;}
	.st3{fill:#7C9D98;}
	.st4{fill:#73928F;}
	.st5{fill:#65797D;}
	.st6{fill:#6F8F90;}
	.st7{fill:#647F80;}
	.st8{fill:#6A8D8A;}
	.st9{fill:#83A19A;}
	.st10{fill:#84A19D;}
	.st11{fill:#88A39E;}
	.st12{fill:#9BAFA0;}
	.st13{fill:#8FA79D;}
	.st14{fill:#8CA69E;}
	.st15{fill:#A4B5A6;}
</style>
<g>
	<path class="st0" d="M0,0v0.5l0.8,0C0.5,0.3,0.3,0.2,0,0z"/>
	<polygon class="st1" points="0,501.4 12.9,502 31.3,491.9 0,497.8 	"/>
	<polygon class="st2" points="0,509.1 12.9,502 0,501.4 	"/>
	<polygon class="st2" points="0,509.1 0,509.1 0,509.1 	"/>
	<polygon class="st3" points="0,495.5 0,497.8 31.3,491.9 63.1,474.3 	"/>
	<polygon class="st4" points="143.2,205 78.5,103.3 19,237 	"/>
	<path class="st5" d="M184.1,336c2.2-13.2,2.8-26.3,1.9-38.6c-0.3-5-1-9.9-1.9-14.8l-53.9,70.5L184.1,336z"/>
	<path class="st6" d="M130.2,353.1l53.9-70.5c-0.7-3.7-1.6-7.3-2.6-10.9c-2.3-8-5.7-15.6-10.1-22.6L143.2,205L19,237L130.2,353.1z"
		/>
	<path class="st7" d="M184.1,336l-53.9,17.1l49.8,2.1c0.2-0.9,0.5-1.7,0.7-2.6C182,347.1,183.2,341.5,184.1,336z"/>
	<path class="st8" d="M139.9,427.5c6.7-6.7,12.7-14.1,17.9-22.1c9.9-15.5,17.4-32.4,22.2-50.2l-49.8-2.1L139.9,427.5z"/>
	<path class="st4" d="M91.2,458.8l26.8-14.8c8-4.5,15.3-10,21.8-16.5c0,0,0,0,0,0l-9.7-74.4L91.2,458.8z"/>
	<line class="st3" x1="0" y1="332.5" x2="0" y2="324.7"/>
	<line class="st3" x1="91.2" y1="458.8" x2="86" y2="461.7"/>
	<polygon class="st3" points="0,324.7 0,332.5 86,461.7 91.2,458.8 130.2,353.1 	"/>
	<line class="st9" x1="0" y1="324.7" x2="0" y2="302.4"/>
	<polygon class="st9" points="0,302.4 0,324.7 130.2,353.1 19,237 	"/>
	<polygon class="st10" points="0,229.3 19,237 78.5,103.3 76.2,99.5 0,207.1 	"/>
	<path class="st11" d="M60.6,75L35.3,35.3C30.7,27.9,25.2,21.1,19.1,15c-3.6-3.6-7.5-6.9-11.6-9.9L0,5.8V63L60.6,75z"/>
	<polygon class="st11" points="0,122.4 65.1,82.1 62.5,78 0,73.6 	"/>
	<polygon class="st12" points="0,122.4 70.8,91.2 65.1,82.1 0,76.4 	"/>
	<polygon class="st13" points="76.2,99.5 70.8,91.2 0,122.4 0,207.1 	"/>
	<polygon class="st14" points="0,229.3 0,302.4 19,237 	"/>
	<path class="st0" d="M7.5,5.1C5.4,3.5,3.1,1.9,0.8,0.5L0,0.5l0,5.2L7.5,5.1z"/>
	<polygon class="st15" points="0,73.6 62.5,78 60.6,75 0,63 	"/>
	<line class="st11" x1="86" y1="461.7" x2="63.1" y2="474.3"/>
	<polygon class="st11" points="0,332.5 0,495.5 63.1,474.3 86,461.7 	"/>
</g>
</svg>
