<svg xmlns="http://www.w3.org/2000/svg" width="64.175" height="73.035" viewBox="0 0 64.175 73.035">
  <g id="Raggruppa_62" data-name="Raggruppa 62" transform="translate(-444.272 259.025) rotate(-31)">
    <g id="Raggruppa_20" data-name="Raggruppa 20" transform="translate(500.288 38.055)">
      <path id="Tracciato_27" data-name="Tracciato 27" d="M500.763,28.636c2.83,1.237,5.411,2.835,8.354,3.847,1.107.381,1.582-1.37.482-1.748-2.806-.965-5.232-2.487-7.924-3.662-1.058-.464-1.982,1.1-.913,1.564Z" transform="translate(-500.288 -26.987)" fill="#c63e3e"/>
    </g>
    <g id="Raggruppa_21" data-name="Raggruppa 21" transform="translate(502.442 34.502)">
      <path id="Tracciato_28" data-name="Tracciato 28" d="M501.582,27.284q3.377,1.642,6.671,3.442c1.022.56,1.94-1.006.913-1.567q-3.292-1.8-6.671-3.442c-1.043-.508-1.964,1.056-.913,1.567Z" transform="translate(-501.118 -25.617)" fill="#c63e3e"/>
    </g>
    <g id="Raggruppa_22" data-name="Raggruppa 22" transform="translate(505.791 29.701)">
      <path id="Tracciato_29" data-name="Tracciato 29" d="M502.665,25.325a43.45,43.45,0,0,0,4.765,4.319c.908.708,2.2-.565,1.281-1.284a42.9,42.9,0,0,1-4.762-4.316c-.807-.846-2.088.436-1.284,1.281Z" transform="translate(-502.41 -23.766)" fill="#c63e3e"/>
    </g>
    <g id="Raggruppa_23" data-name="Raggruppa 23" transform="translate(508.615 25.958)">
      <path id="Tracciato_30" data-name="Tracciato 30" d="M503.71,23.918c.76.955,1.193,2.2,1.909,3.2a19.764,19.764,0,0,0,2.428,2.794c.843.807,2.127-.472,1.281-1.281a17.11,17.11,0,0,1-2.6-3.1c-.612-.949-1.032-2.01-1.733-2.895-.726-.91-2,.379-1.284,1.284Z" transform="translate(-503.498 -22.323)" fill="#c63e3e"/>
    </g>
    <g id="Raggruppa_24" data-name="Raggruppa 24" transform="translate(513.758 22.019)">
      <path id="Tracciato_31" data-name="Tracciato 31" d="M505.577,22.185a56.362,56.362,0,0,1,2.895,7.506c.342,1.11,2.093.635,1.748-.482a59.507,59.507,0,0,0-3.079-7.937c-.5-1.056-2.059-.137-1.564.913Z" transform="translate(-505.481 -20.805)" fill="#c63e3e"/>
    </g>
    <g id="Raggruppa_25" data-name="Raggruppa 25" transform="translate(518.445 20.984)">
      <path id="Tracciato_32" data-name="Tracciato 32" d="M507.293,21.273q.3,3.186.776,6.352c.169,1.152,1.914.661,1.745-.482q-.428-2.926-.708-5.87c-.111-1.152-1.925-1.162-1.813,0Z" transform="translate(-507.288 -20.405)" fill="#c63e3e"/>
    </g>
    <g id="Raggruppa_26" data-name="Raggruppa 26" transform="translate(522.548 20.07)">
      <path id="Tracciato_33" data-name="Tracciato 33" d="M509,20.922a31.061,31.061,0,0,0-.031,5.245c.091,1.157,1.9,1.165,1.813,0a31.358,31.358,0,0,1,.029-5.245c.106-1.162-1.709-1.154-1.81,0Z" transform="translate(-508.87 -20.053)" fill="#c63e3e"/>
    </g>
    <g id="Raggruppa_27" data-name="Raggruppa 27" transform="translate(527.29 20.043)">
      <path id="Tracciato_34" data-name="Tracciato 34" d="M513.133,20.487a33.4,33.4,0,0,0-2.378,5.26c-.392,1.1,1.362,1.574,1.748.48A30.979,30.979,0,0,1,514.7,21.4c.571-1.019-.993-1.935-1.564-.916Z" transform="translate(-510.698 -20.043)" fill="#c63e3e"/>
    </g>
    <g id="Raggruppa_28" data-name="Raggruppa 28" transform="translate(530.698 22.894)">
      <path id="Tracciato_35" data-name="Tracciato 35" d="M515.189,21.742a13.386,13.386,0,0,1-1.45,2.207q-.786,1.14-1.567,2.283c-.664.965.908,1.873,1.564.916a29.354,29.354,0,0,0,3.2-4.923c.449-1.076-1.3-1.546-1.748-.482Z" transform="translate(-512.012 -21.142)" fill="#c63e3e"/>
    </g>
    <g id="Raggruppa_29" data-name="Raggruppa 29" transform="translate(534.546 28.034)">
      <path id="Tracciato_36" data-name="Tracciato 36" d="M518.523,23.293a44.467,44.467,0,0,1-4.581,2.923c-1.022.568-.109,2.135.913,1.567a45.107,45.107,0,0,0,4.583-2.923c.934-.68.031-2.254-.915-1.567Z" transform="translate(-513.496 -23.123)" fill="#c63e3e"/>
    </g>
    <g id="Raggruppa_30" data-name="Raggruppa 30" transform="translate(535.501 32.31)">
      <path id="Tracciato_37" data-name="Tracciato 37" d="M519.13,24.886l-4.814,2.552c-1.03.545-.117,2.111.916,1.564l4.814-2.552c1.03-.545.117-2.111-.916-1.564Z" transform="translate(-513.864 -24.772)" fill="#c63e3e"/>
    </g>
    <g id="Raggruppa_31" data-name="Raggruppa 31" transform="translate(535.305 37.352)">
      <path id="Tracciato_38" data-name="Tracciato 38" d="M521.974,26.724c-2.672.324-5.047,1.455-7.563,2.329-1.095.381-.625,2.135.482,1.748,2.335-.812,4.6-1.964,7.081-2.264,1.144-.14,1.157-1.956,0-1.813Z" transform="translate(-513.788 -26.716)" fill="#c63e3e"/>
    </g>
    <g id="Raggruppa_32" data-name="Raggruppa 32" transform="translate(538.727 41.803)">
      <path id="Tracciato_39" data-name="Tracciato 39" d="M522.566,28.45a21.847,21.847,0,0,0-7.021,2.643.907.907,0,0,0,.913,1.567,20.357,20.357,0,0,1,6.591-2.462c1.144-.215.659-1.964-.482-1.748Z" transform="translate(-515.107 -28.432)" fill="#c63e3e"/>
    </g>
    <g id="Raggruppa_33" data-name="Raggruppa 33" transform="translate(539.419 49.022)">
      <path id="Tracciato_40" data-name="Tracciato 40" d="M516.027,32.986c1.769.376,3.548.669,5.343.9,1.154.15,1.141-1.665,0-1.81-1.634-.213-3.253-.5-4.863-.838-1.136-.241-1.624,1.5-.48,1.748Z" transform="translate(-515.374 -31.215)" fill="#c63e3e"/>
    </g>
    <g id="Raggruppa_34" data-name="Raggruppa 34" transform="translate(537.81 51.625)">
      <path id="Tracciato_41" data-name="Tracciato 41" d="M515.384,34.015q2.152.7,4.277,1.463c1.1.394,1.574-1.357.482-1.748q-2.128-.766-4.277-1.463c-1.115-.358-1.59,1.39-.482,1.748Z" transform="translate(-514.754 -32.218)" fill="#c63e3e"/>
    </g>
    <g id="Raggruppa_35" data-name="Raggruppa 35" transform="translate(535.18 55.011)">
      <path id="Tracciato_42" data-name="Tracciato 42" d="M514.155,35.241a31.3,31.3,0,0,0,4.35,2.407c1.056.477,1.979-1.084.916-1.567a31.306,31.306,0,0,1-4.35-2.4c-.978-.646-1.886.923-.916,1.564Z" transform="translate(-513.74 -33.524)" fill="#c63e3e"/>
    </g>
    <g id="Raggruppa_36" data-name="Raggruppa 36" transform="translate(534.982 58.915)">
      <path id="Tracciato_43" data-name="Tracciato 43" d="M514.118,36.707a17.371,17.371,0,0,1,3.587,2.456c.869.773,2.156-.506,1.281-1.284a19.424,19.424,0,0,0-3.953-2.739c-1.035-.537-1.951,1.027-.916,1.567Z" transform="translate(-513.664 -35.029)" fill="#c63e3e"/>
    </g>
    <g id="Raggruppa_37" data-name="Raggruppa 37" transform="translate(532.787 62.714)">
      <path id="Tracciato_44" data-name="Tracciato 44" d="M513.291,38.147q2.739,1.214,5.481,2.425c1.058.467,1.982-1.095.916-1.567l-5.481-2.425c-1.058-.467-1.982,1.095-.916,1.567Z" transform="translate(-512.818 -36.494)" fill="#c63e3e"/>
    </g>
    <g id="Raggruppa_38" data-name="Raggruppa 38" transform="translate(531.983 66.114)">
      <path id="Tracciato_45" data-name="Tracciato 45" d="M513.372,39.624a23.664,23.664,0,0,1,4.832,1.053c1.113.361,1.59-1.39.482-1.748a26.013,26.013,0,0,0-5.315-1.118c-1.157-.124-1.149,1.689,0,1.813Z" transform="translate(-512.508 -37.805)" fill="#c63e3e"/>
    </g>
    <g id="Raggruppa_39" data-name="Raggruppa 39" transform="translate(531.325 68.684)">
      <path id="Tracciato_46" data-name="Tracciato 46" d="M512.911,40.556q1.587.237,3.177.48c1.141.171,1.634-1.574.482-1.748q-1.587-.241-3.177-.48c-1.141-.174-1.634,1.572-.482,1.748Z" transform="translate(-512.254 -38.795)" fill="#c63e3e"/>
    </g>
    <g id="Raggruppa_40" data-name="Raggruppa 40" transform="translate(531.414 72.699)">
      <path id="Tracciato_47" data-name="Tracciato 47" d="M512.916,42.143q2.3.77,4.6,1.538c1.11.371,1.585-1.38.482-1.748L513.4,40.394c-1.107-.371-1.585,1.38-.48,1.748Z" transform="translate(-512.288 -40.343)" fill="#c63e3e"/>
    </g>
    <g id="Raggruppa_41" data-name="Raggruppa 41" transform="translate(531.44 77.358)">
      <path id="Tracciato_48" data-name="Tracciato 48" d="M512.939,43.925q2.584.716,5.149,1.494a.907.907,0,0,0,.482-1.748q-2.564-.778-5.149-1.494a.907.907,0,0,0-.482,1.748Z" transform="translate(-512.298 -42.14)" fill="#c63e3e"/>
    </g>
    <g id="Raggruppa_42" data-name="Raggruppa 42" transform="translate(530.104 80.089)">
      <path id="Tracciato_49" data-name="Tracciato 49" d="M512.652,45.01c1.878.169,3.956,1.72,5.406,2.843.91.706,2.2-.568,1.281-1.284-1.893-1.468-4.233-3.151-6.687-3.372-1.162-.1-1.154,1.709,0,1.813Z" transform="translate(-511.783 -43.192)" fill="#c63e3e"/>
    </g>
    <g id="Raggruppa_43" data-name="Raggruppa 43" transform="translate(529.001 81.938)">
      <path id="Tracciato_50" data-name="Tracciato 50" d="M511.636,45.442c1.652,1.567,2.737,3.613,4.687,4.866.986.633,1.9-.936.916-1.564-1.79-1.149-2.8-3.138-4.321-4.583-.846-.8-2.13.475-1.281,1.281Z" transform="translate(-511.358 -43.905)" fill="#c63e3e"/>
    </g>
    <g id="Raggruppa_44" data-name="Raggruppa 44" transform="translate(525.975 83.632)">
      <path id="Tracciato_51" data-name="Tracciato 51" d="M510.367,45.86a16.052,16.052,0,0,1,1.769,4.124c.4,1.087,2.153.617,1.748-.482a17.8,17.8,0,0,0-1.953-4.555c-.69-.926-2.264-.023-1.564.913Z" transform="translate(-510.191 -44.558)" fill="#c63e3e"/>
    </g>
    <g id="Raggruppa_45" data-name="Raggruppa 45" transform="translate(523.742 84.036)">
      <path id="Tracciato_52" data-name="Tracciato 52" d="M509.6,45.59a40.389,40.389,0,0,1-.267,5.341c-.135,1.157,1.681,1.149,1.813,0a40.41,40.41,0,0,0,.267-5.341.907.907,0,0,0-1.813,0Z" transform="translate(-509.33 -44.714)" fill="#c63e3e"/>
    </g>
    <g id="Raggruppa_46" data-name="Raggruppa 46" transform="translate(518.725 83.47)">
      <path id="Tracciato_53" data-name="Tracciato 53" d="M507.679,45.363q-.23,2.159-.283,4.329a.907.907,0,0,0,1.813,0q.051-2.171.283-4.329c.125-1.159-1.689-1.152-1.813,0Z" transform="translate(-507.396 -44.496)" fill="#c63e3e"/>
    </g>
    <g id="Raggruppa_47" data-name="Raggruppa 47" transform="translate(515.817 83.82)">
      <path id="Tracciato_54" data-name="Tracciato 54" d="M507.082,45.243a16.724,16.724,0,0,0-.786,2.69c-.234,1.139,1.512,1.626,1.748.482a16.82,16.82,0,0,1,.786-2.692c.417-1.089-1.333-1.561-1.748-.48Z" transform="translate(-506.275 -44.631)" fill="#c63e3e"/>
    </g>
    <g id="Raggruppa_48" data-name="Raggruppa 48" transform="translate(512.403 82.471)">
      <path id="Tracciato_55" data-name="Tracciato 55" d="M506.3,44.537a10.589,10.589,0,0,0-1.315,3.123c-.278,1.131,1.471,1.616,1.748.48a8.936,8.936,0,0,1,1.133-2.69c.62-.991-.949-1.9-1.567-.913Z" transform="translate(-504.959 -44.111)" fill="#c63e3e"/>
    </g>
    <g id="Raggruppa_49" data-name="Raggruppa 49" transform="translate(507.909 80.806)">
      <path id="Tracciato_56" data-name="Tracciato 56" d="M507.446,43.617a27.041,27.041,0,0,0-3.94,3.076c-.851.8.433,2.083,1.281,1.281a24.3,24.3,0,0,1,3.574-2.791c.978-.63.07-2.2-.916-1.567Z" transform="translate(-503.226 -43.469)" fill="#c63e3e"/>
    </g>
    <g id="Raggruppa_50" data-name="Raggruppa 50" transform="translate(507.163 78.621)">
      <path id="Tracciato_57" data-name="Tracciato 57" d="M505.471,42.853c-.7.589-1.414,1.162-2.148,1.712-.921.693-.018,2.27.916,1.567.856-.646,1.694-1.307,2.513-2,.895-.75-.394-2.028-1.281-1.281Z" transform="translate(-502.939 -42.627)" fill="#c63e3e"/>
    </g>
    <g id="Raggruppa_51" data-name="Raggruppa 51" transform="translate(505.245 76.173)">
      <path id="Tracciato_58" data-name="Tracciato 58" d="M506.987,41.746c-1.432.542-2.936.8-4.324,1.465-1.05.506-.132,2.07.916,1.567,1.235-.594,2.612-.8,3.891-1.284,1.079-.41.612-2.163-.482-1.748Z" transform="translate(-502.199 -41.683)" fill="#c63e3e"/>
    </g>
    <g id="Raggruppa_52" data-name="Raggruppa 52" transform="translate(505.169 74.012)">
      <path id="Tracciato_59" data-name="Tracciato 59" d="M507.42,40.864c-1.455.241-2.913.418-4.381.54-1.154.1-1.165,1.909,0,1.813q2.443-.2,4.861-.6c1.149-.192.661-1.938-.48-1.748Z" transform="translate(-502.17 -40.849)" fill="#c63e3e"/>
    </g>
    <g id="Raggruppa_53" data-name="Raggruppa 53" transform="translate(505.685 70.708)">
      <path id="Tracciato_60" data-name="Tracciato 60" d="M508.016,39.579a20.168,20.168,0,0,0-5,.547c-1.134.267-.654,2.015.482,1.748a18.152,18.152,0,0,1,4.518-.482.907.907,0,0,0,0-1.813Z" transform="translate(-502.369 -39.576)" fill="#c63e3e"/>
    </g>
    <g id="Raggruppa_54" data-name="Raggruppa 54" transform="translate(506.751 67.601)">
      <path id="Tracciato_61" data-name="Tracciato 61" d="M507.317,38.529a26.577,26.577,0,0,0-3.662-.137c-1.165.036-1.17,1.849,0,1.813a26.577,26.577,0,0,1,3.662.137c1.159.125,1.149-1.689,0-1.813Z" transform="translate(-502.779 -38.378)" fill="#c63e3e"/>
    </g>
    <g id="Raggruppa_55" data-name="Raggruppa 55" transform="translate(506.51 64.164)">
      <path id="Tracciato_62" data-name="Tracciato 62" d="M507.266,37.074q-1.988.4-3.94.949a.907.907,0,0,0,.482,1.748q1.953-.545,3.94-.949c1.141-.231.659-1.979-.482-1.748Z" transform="translate(-502.687 -37.053)" fill="#c63e3e"/>
    </g>
    <g id="Raggruppa_56" data-name="Raggruppa 56" transform="translate(507.232 59.332)">
      <path id="Tracciato_63" data-name="Tracciato 63" d="M506.876,35.359q-1.688,1.214-3.476,2.275a.907.907,0,0,0,.916,1.564q1.79-1.058,3.473-2.275c.939-.677.034-2.249-.913-1.564Z" transform="translate(-502.965 -35.19)" fill="#c63e3e"/>
    </g>
    <g id="Raggruppa_57" data-name="Raggruppa 57" transform="translate(505.671 55.855)">
      <path id="Tracciato_64" data-name="Tracciato 64" d="M506.993,34.014q-2.062,1.443-4.2,2.768c-.991.615-.08,2.181.916,1.567q2.14-1.323,4.2-2.77c.947-.664.042-2.238-.916-1.564Z" transform="translate(-502.363 -33.85)" fill="#c63e3e"/>
    </g>
    <g id="Raggruppa_58" data-name="Raggruppa 58" transform="translate(505.052 52.091)">
      <path id="Tracciato_65" data-name="Tracciato 65" d="M506.41,32.527q-1.922,1.109-3.847,2.22a.908.908,0,0,0,.916,1.567q1.922-1.113,3.847-2.223a.907.907,0,0,0-.916-1.564Z" transform="translate(-502.125 -32.398)" fill="#c63e3e"/>
    </g>
    <g id="Raggruppa_59" data-name="Raggruppa 59" transform="translate(501.958 49.577)">
      <path id="Tracciato_66" data-name="Tracciato 66" d="M507.6,31.481c-2.026.674-3.893,1.769-6.018,2.127-1.146.192-.659,1.94.482,1.748,2.124-.358,3.992-1.45,6.015-2.127,1.1-.368.63-2.119-.48-1.748Z" transform="translate(-500.932 -31.429)" fill="#c63e3e"/>
    </g>
    <g id="Raggruppa_60" data-name="Raggruppa 60" transform="translate(501.726 46.684)">
      <path id="Tracciato_67" data-name="Tracciato 67" d="M506.262,30.314a42.012,42.012,0,0,0-4.765.493c-1.149.161-.659,1.909.482,1.748a37.646,37.646,0,0,1,4.282-.428.907.907,0,0,0,0-1.813Z" transform="translate(-500.842 -30.314)" fill="#c63e3e"/>
    </g>
    <g id="Raggruppa_61" data-name="Raggruppa 61" transform="translate(500.43 42.499)">
      <path id="Tracciato_68" data-name="Tracciato 68" d="M506.955,30.017a24.064,24.064,0,0,0-5.476-1.3c-1.141-.223-1.629,1.523-.482,1.748a22.757,22.757,0,0,1,5.042,1.115c1.053.485,1.976-1.076.916-1.567Z" transform="translate(-500.343 -28.7)" fill="#c63e3e"/>
    </g>
    <path id="Tracciato_69" data-name="Tracciato 69" d="M518.486,22.545c-6.007,2.236-15.114,8.085-16.466,16.367-1.087,6.671,4.065,7.532,5.68,17.617,1.847,11.524-4,15.869-.48,21.471,3.922,6.238,15.794,8.186,20.795,3.849,3.1-2.685,1.507-6,3.756-15.5,2.757-11.654,6.287-11.462,7.027-18.87,1.157-11.561-6.127-25.2-14.44-26.187C522.455,21.066,521.1,21.572,518.486,22.545Z" transform="translate(2.524 1.906)" fill="#c9a130"/>
    <path id="Tracciato_70" data-name="Tracciato 70" d="M514.485,27.118c-3.47,1.292-8.731,4.669-9.512,9.454-.628,3.854,2.347,4.35,3.281,10.178,1.069,6.656-2.311,9.167-.278,12.4,2.264,3.605,9.125,4.731,12.015,2.225,1.787-1.551.869-3.465,2.168-8.954,1.593-6.734,3.632-6.622,4.059-10.9.667-6.679-3.541-14.554-8.342-15.127A6.765,6.765,0,0,0,514.485,27.118Z" transform="translate(7.331 10.073)" fill="#585a33"/>
    <path id="Tracciato_71" data-name="Tracciato 71" d="M509.287,29.426a1.057,1.057,0,1,1-1.056-1.058A1.057,1.057,0,0,1,509.287,29.426Z" transform="translate(10.974 13.269)" fill="#c9a130"/>
    <path id="Tracciato_72" data-name="Tracciato 72" d="M508.059,30.069a.912.912,0,1,1-.91-.91A.91.91,0,0,1,508.059,30.069Z" transform="translate(9.48 14.53)" fill="#c9a130"/>
    <path id="Tracciato_73" data-name="Tracciato 73" d="M508.723,30.206a.65.65,0,1,1-.651-.651A.649.649,0,0,1,508.723,30.206Z" transform="translate(11.372 15.161)" fill="#c9a130"/>
    <path id="Tracciato_74" data-name="Tracciato 74" d="M512.227,28.475a1.878,1.878,0,1,1-1.878-1.878A1.878,1.878,0,0,1,512.227,28.475Z" transform="translate(13.042 10.447)" fill="#c9a130"/>
    <path id="Tracciato_75" data-name="Tracciato 75" d="M513.174,31.015a1.878,1.878,0,1,1-1.878-1.878A1.879,1.879,0,0,1,513.174,31.015Z" transform="translate(14.552 14.495)" fill="#c9a130"/>
    <path id="Tracciato_76" data-name="Tracciato 76" d="M511.619,31.819a.15.15,0,1,1-.3,0,.15.15,0,0,1,.3,0Z" transform="translate(17.58 18.533)" fill="#c9a130"/>
    <path id="Tracciato_77" data-name="Tracciato 77" d="M510.473,32.764a.843.843,0,1,1-.843-.843A.843.843,0,0,1,510.473,32.764Z" transform="translate(13.546 18.932)" fill="#c9a130"/>
    <circle id="Ellisse_1" data-name="Ellisse 1" cx="0.915" cy="0.915" r="0.915" transform="translate(517.88 47.46)" fill="#c9a130"/>
    <path id="Tracciato_78" data-name="Tracciato 78" d="M510.9,31.529a.916.916,0,1,1-.916-.916A.915.915,0,0,1,510.9,31.529Z" transform="translate(13.989 16.847)" fill="#c9a130"/>
    <path id="Tracciato_79" data-name="Tracciato 79" d="M510.068,36.525a1.42,1.42,0,1,1-1.422-1.421A1.42,1.42,0,0,1,510.068,36.525Z" transform="translate(11.061 24.005)" fill="#c9a130"/>
    <circle id="Ellisse_2" data-name="Ellisse 2" cx="0.818" cy="0.818" r="0.818" transform="translate(521.972 57.136)" fill="#c9a130"/>
    <path id="Tracciato_80" data-name="Tracciato 80" d="M510.037,37.393a.734.734,0,1,1-.734-.734A.735.735,0,0,1,510.037,37.393Z" transform="translate(13.199 26.483)" fill="#c9a130"/>
    <circle id="Ellisse_3" data-name="Ellisse 3" cx="0.675" cy="0.675" r="0.675" transform="translate(523.487 60.745)" fill="#c9a130"/>
    <circle id="Ellisse_4" data-name="Ellisse 4" cx="0.157" cy="0.157" r="0.157" transform="translate(521.815 60.588)" fill="#c9a130"/>
    <path id="Tracciato_81" data-name="Tracciato 81" d="M513.236,35.811a1.624,1.624,0,1,1-1.624-1.626A1.623,1.623,0,0,1,513.236,35.811Z" transform="translate(15.462 22.54)" fill="#c9a130"/>
    <path id="Tracciato_82" data-name="Tracciato 82" d="M511.876,39.42a1.241,1.241,0,1,1-1.24-1.24A1.24,1.24,0,0,1,511.876,39.42Z" transform="translate(14.513 28.908)" fill="#c9a130"/>
    <path id="Tracciato_83" data-name="Tracciato 83" d="M509.787,39.2a1.154,1.154,0,1,1-1.154-1.154A1.156,1.156,0,0,1,509.787,39.2Z" transform="translate(11.461 28.694)" fill="#c9a130"/>
  </g>
</svg>
