<svg xmlns="http://www.w3.org/2000/svg" width="65.106" height="83.726" viewBox="0 0 65.106 83.726">
  <g id="Raggruppa_143" data-name="Raggruppa 143" transform="translate(-106.708 -20.44)">
    <g id="Raggruppa_97" data-name="Raggruppa 97" transform="translate(146.972 58.1)">
      <path id="Tracciato_125" data-name="Tracciato 125" d="M194.369,109.766c.719,3.793,1.454,7.6,2.174,11.391l.552,2.865c.832,4.332,1.649,8.651,2.481,12.983,2.3-1.058,4.592-2.129,6.882-3.186a88.129,88.129,0,0,0-.888-13.417c-.223-1.6-.509-3.264-.854-4.951-.558-2.78-1.224-5.378-1.94-7.788-1.633-4.3-5.311-6-7.073-5.165C194.142,103.24,193.281,106.365,194.369,109.766Z" transform="translate(-193.498 -101.786)" fill="#f6ada5"/>
      <path id="Tracciato_126" data-name="Tracciato 126" d="M199.589,141.885l.552,2.865c2.824-1.211,5.65-2.409,8.474-3.621C205.607,141.386,202.6,141.628,199.589,141.885Z" transform="translate(-196.544 -122.513)" fill="#210b04"/>
      <path id="Tracciato_127" data-name="Tracciato 127" d="M195.055,122.13,205.68,119.7l-2.91-12.28c-1.507-4.394-4.776-6.7-7.123-6.13a4.214,4.214,0,0,0-2.589,2.254q.282,2.414.564,4.828Q194.339,115.251,195.055,122.13Z" transform="translate(-193.059 -101.206)" fill="#585a33"/>
    </g>
    <ellipse id="Ellisse_7" data-name="Ellisse 7" cx="28.204" cy="8.059" rx="28.204" ry="8.059" transform="translate(113.528 41.996) rotate(-22.467)" fill="#fff"/>
    <path id="Tracciato_128" data-name="Tracciato 128" d="M163.9,58.3c1.691,2.629-3.835,11.59-8.668,10.876a5.587,5.587,0,0,1-4.451-5.187c.052-2.849,3.165-4.5,4.451-5.187C158.139,57.256,162.763,56.534,163.9,58.3Z" transform="translate(-23.52 -19.656)" fill="#b05328"/>
    <circle id="Ellisse_8" data-name="Ellisse 8" cx="5.175" cy="5.175" r="5.175" transform="translate(141.731 75.075) rotate(-49.334)" fill="#f6ada5"/>
    <g id="Raggruppa_99" data-name="Raggruppa 99" transform="translate(144.7 71.008)">
      <g id="Raggruppa_98" data-name="Raggruppa 98" transform="translate(0)">
        <path id="Tracciato_129" data-name="Tracciato 129" d="M192.515,137.753a5.376,5.376,0,0,1-4.294-2.157.175.175,0,1,1,.28-.209,5,5,0,1,0,7.834-6.21.175.175,0,0,1,.267-.226,5.35,5.35,0,0,1-4.087,8.8Z" transform="translate(-188.186 -128.889)" fill="#210b04"/>
      </g>
    </g>
    <circle id="Ellisse_9" data-name="Ellisse 9" cx="5.175" cy="5.175" r="5.175" transform="translate(126.171 71.74) rotate(-22.662)" fill="#f6ada5"/>
    <g id="Raggruppa_101" data-name="Raggruppa 101" transform="translate(128.257 75.348)">
      <g id="Raggruppa_100" data-name="Raggruppa 100">
        <path id="Tracciato_130" data-name="Tracciato 130" d="M157.605,142.72A5.361,5.361,0,0,1,152.944,140a.175.175,0,0,1,.3-.172,5,5,0,0,0,9.263-1.489.175.175,0,0,1,.344.068A5.359,5.359,0,0,1,157.605,142.72Z" transform="translate(-152.921 -138.196)" fill="#210b04"/>
      </g>
    </g>
    <path id="Tracciato_131" data-name="Tracciato 131" d="M167.3,90.157c-.534-.028-1.081-.042-1.629-.056l-35.34-1.053a9.257,9.257,0,0,1,2.584-5.1c1.811-1.727,3.215-1.39,5.56-2.626,3.987-2.12,5.771-6.206,7.1-9.267a25.35,25.35,0,0,0,2.022-8.073,7.2,7.2,0,0,0,3.215,5.321c.014,0,.014,0,.028.014.126.07.253.155.393.225a24.458,24.458,0,0,0,4.535,1.966c.533.168,1.1.337,1.7.505A7.223,7.223,0,0,0,155.7,74a5.81,5.81,0,0,0-.913,2.935c0,.07,0,.21.014.407a5.534,5.534,0,0,0,1.629,4c.056.042.084.07.126.1,2.4,1.9,5.56,1.165,7.989,2.78a5.573,5.573,0,0,1,1.081.941A7.689,7.689,0,0,1,167.3,90.157Z" transform="translate(-12.607 -23.241)" fill="#f6ada5"/>
    <path id="Tracciato_132" data-name="Tracciato 132" d="M179.013,75.066c-.028.421-.056.843-.084,1.25-.042.885-.07,1.713-.07,2.485a5.81,5.81,0,0,0-.913,2.935c0,.07,0,.21.014.407a4.882,4.882,0,0,1-4.24-5.111,5.627,5.627,0,0,1,.674-2.682,5.448,5.448,0,0,1,1.081-1.362A.049.049,0,0,0,175.5,73,20.357,20.357,0,0,0,179.013,75.066Z" transform="translate(-35.765 -28.046)" fill="#210b04"/>
    <path id="Tracciato_133" data-name="Tracciato 133" d="M182.724,53.93a9.337,9.337,0,0,1-3.1,3.44c-.24.193-3.12,2.462-5.091,2.277a5.854,5.854,0,0,1-1.328-.3,5.324,5.324,0,0,1-1.18-.631,15.649,15.649,0,0,1-5.1-7.061c-1.682-5.111-.9-14.085,5.117-16.922,3.713-1.749,7.712-.357,9.259.286.166.077.352.168.555.276a14.061,14.061,0,0,1,1.46.908,9.2,9.2,0,0,1,3.2,3.962,8.5,8.5,0,0,1-.569,5.976c-.134.322-.273.623-.406.9-.15.315-.295.6-.419.841-.371.728-.684,1.17-1.148,2.268C183.149,52.1,183.275,52.73,182.724,53.93Z" transform="translate(-31.727 -7.174)" fill="#f6ada5"/>
    <path id="Tracciato_134" data-name="Tracciato 134" d="M187.152,61.889a1.173,1.173,0,0,1-1.564.42,1.107,1.107,0,0,1-.654-1.44,1.173,1.173,0,0,1,1.564-.42A1.107,1.107,0,0,1,187.152,61.889Z" transform="translate(-41.702 -21.284)" fill="#210b04"/>
    <g id="Raggruppa_102" data-name="Raggruppa 102" transform="translate(141.496 38.322)">
      <path id="Tracciato_135" data-name="Tracciato 135" d="M185.328,61.121a.175.175,0,0,1-.13-.058q-.146-.162-.311-.318a6.393,6.393,0,0,0-3.427-1.607.175.175,0,0,1,.057-.346,6.738,6.738,0,0,1,3.61,1.7q.131.123.249.25l.853-.326a.175.175,0,0,1,.124.327l-.964.368A.168.168,0,0,1,185.328,61.121Z" transform="translate(-181.314 -58.79)" fill="#210b04"/>
    </g>
    <path id="Tracciato_136" data-name="Tracciato 136" d="M202.122,69.236a1.173,1.173,0,0,1-1.564.42,1.107,1.107,0,0,1-.654-1.44,1.174,1.174,0,0,1,1.564-.42A1.107,1.107,0,0,1,202.122,69.236Z" transform="translate(-49.691 -25.205)" fill="#210b04"/>
    <g id="Raggruppa_103" data-name="Raggruppa 103" transform="translate(148.476 41.748)">
      <path id="Tracciato_137" data-name="Tracciato 137" d="M200.3,68.469a.175.175,0,0,1-.13-.058c-.1-.107-.2-.214-.311-.318a6.394,6.394,0,0,0-3.426-1.607.175.175,0,0,1,.057-.345,6.733,6.733,0,0,1,3.61,1.7q.131.123.249.25l.853-.325a.175.175,0,1,1,.124.326l-.964.368A.172.172,0,0,1,200.3,68.469Z" transform="translate(-196.284 -66.138)" fill="#210b04"/>
    </g>
    <g id="Raggruppa_104" data-name="Raggruppa 104" transform="translate(141.959 35.569)">
      <path id="Tracciato_138" data-name="Tracciato 138" d="M182.306,53.346a13.075,13.075,0,0,1,3.111,1.023,12.826,12.826,0,0,1,2.428,1.5,2.307,2.307,0,0,0,.15-.5,2.517,2.517,0,0,0-.072-1.144c-.828-.382-1.536-.658-2.06-.848a5.533,5.533,0,0,0-1.928-.49A3.243,3.243,0,0,0,182.306,53.346Z" transform="translate(-182.306 -52.886)" fill="#210b04"/>
      <path id="Tracciato_139" data-name="Tracciato 139" d="M194.981,55.983a2.729,2.729,0,0,1-.009.672,1.737,1.737,0,0,1-.311.882,2.65,2.65,0,0,1,.06-.749,3.069,3.069,0,0,0,.065-.775c-.006-.079-.014-.143-.02-.186Z" transform="translate(-188.891 -54.456)" fill="#210b04"/>
    </g>
    <g id="Raggruppa_105" data-name="Raggruppa 105" transform="translate(150.531 38.981)">
      <path id="Tracciato_140" data-name="Tracciato 140" d="M205.462,61.721c-.134.322-.273.623-.406.9-.316-.116-.653-.224-1.013-.322a12.857,12.857,0,0,0-2.822-.442,2.293,2.293,0,0,1,.215-.48,2.522,2.522,0,0,1,.8-.821c.877.249,1.594.5,2.115.7C204.853,61.446,205.207,61.6,205.462,61.721Z" transform="translate(-200.974 -60.392)" fill="#210b04"/>
      <path id="Tracciato_141" data-name="Tracciato 141" d="M201.469,60.2a2.729,2.729,0,0,0-.431.516,1.732,1.732,0,0,0-.339.872c.052.024.353-.463.442-.608a3.057,3.057,0,0,1,.457-.63c.055-.056.1-.1.136-.128Z" transform="translate(-200.69 -60.203)" fill="#210b04"/>
    </g>
    <path id="Tracciato_142" data-name="Tracciato 142" d="M190.637,71.519a1.9,1.9,0,0,1,.943.157,1.876,1.876,0,0,1,.769.567,1.868,1.868,0,0,1-.942-.157A1.893,1.893,0,0,1,190.637,71.519Z" transform="translate(-44.794 -27.256)" fill="#210b04"/>
    <g id="Raggruppa_106" data-name="Raggruppa 106" transform="translate(142.361 45.556)">
      <path id="Tracciato_143" data-name="Tracciato 143" d="M188.189,76.837a6.673,6.673,0,0,1-2.852-.641,6.592,6.592,0,0,1-2.123-1.6.175.175,0,0,1,.263-.231,6.234,6.234,0,0,0,2.011,1.517,6.339,6.339,0,0,0,2.806.606.182.182,0,0,1,.178.172.175.175,0,0,1-.172.178Z" transform="translate(-183.17 -74.304)" fill="#210b04"/>
    </g>
    <path id="Tracciato_144" data-name="Tracciato 144" d="M188.632,76.917c-.063.285-1.336.553-2.446.077s-1.839-1.591-1.687-1.789c.049-.064.156.021.446.037.937.053,1.409-.636,1.854-.4a3.016,3.016,0,0,0,.517.257c.1.034.2.059.2.059.384.1.428.04.559.123a.334.334,0,0,1,.045.034,2.524,2.524,0,0,1,.333.882c.027.1.065.239.11.414A1.714,1.714,0,0,1,188.632,76.917Z" transform="translate(-41.507 -29.008)" fill="#e8837c"/>
    <g id="Raggruppa_107" data-name="Raggruppa 107" transform="translate(142.929 47.894)">
      <path id="Tracciato_145" data-name="Tracciato 145" d="M186.5,80.663l-.033,0a3.954,3.954,0,0,1-.675-.19,4.044,4.044,0,0,1-1.35-.851.175.175,0,0,1,.24-.254,3.7,3.7,0,0,0,1.234.778,3.625,3.625,0,0,0,.615.173.175.175,0,0,1-.032.347Z" transform="translate(-184.387 -79.317)" fill="#210b04"/>
    </g>
    <path id="Tracciato_146" data-name="Tracciato 146" d="M172.807,104.449a1.177,1.177,0,0,0,1.294.629,1.628,1.628,0,0,0,.958-1.069Z" transform="translate(-35.278 -44.602)" fill="#210b04"/>
    <path id="Tracciato_147" data-name="Tracciato 147" d="M178.667,108.076a4.2,4.2,0,0,0,.641.377,3.783,3.783,0,0,0,2.255.283,44.669,44.669,0,0,0,4.407-.817l-4.241.22Z" transform="translate(-38.405 -46.689)" fill="#210b04"/>
    <path id="Tracciato_148" data-name="Tracciato 148" d="M160.107,108.076a7.631,7.631,0,0,1-.974.377,8.528,8.528,0,0,1-3.426.283c-3-.253-5.763-.672-6.7-.817l6.444.22Z" transform="translate(-22.577 -46.689)" fill="#210b04"/>
    <path id="Tracciato_149" data-name="Tracciato 149" d="M166.393,107.145a16.033,16.033,0,0,1,.634,5.157c-.019.382-.047.779-.1,1.189-.014.117-.033.238-.051.359-.037.261-.079.513-.135.769-.042.214-.089.415-.145.629a1.567,1.567,0,0,1-.061.233c-.065.247-.131.48-.205.709-.037.112-.07.219-.107.322a14.35,14.35,0,0,1-1.329,2.826q-.56,3.07-1.128,6.136-.93,5.176-1.884,10.324c-.2,1.077-.392,2.15-.592,3.231a33.4,33.4,0,0,1,2.495,2.7H134.728a26.979,26.979,0,0,1,2.8-3.171q-1.686-6.547-3.371-13.084c-.676-2.625-1.352-5.241-2.028-7.866-.154-.606-.308-1.208-.466-1.814-.121-.485-.247-.965-.368-1.445-.019-.061-.033-.112-.042-.159-.424-1.646-.844-3.287-1.273-4.929-.089-.364-.187-.727-.275-1.086-.322-1.236-.639-2.476-.961-3.712,0-.051,0-.1,0-.159a8.957,8.957,0,0,1,.256-2.6,6.911,6.911,0,0,1,.844-1.982c1.184-1.884,2.886-2.471,5.558-3.921.205-.1.392-.215.6-.326.392-.214.793-.448,1.212-.709a35.82,35.82,0,0,0,3.866-2.728c.462-.368.937-.769,1.427-1.212q3.008,2.021,5.987,4.047a.269.269,0,0,1,.047.037c.308.205.606.41.9.606l.056.042.238-.14c.075-.042.163-.089.238-.135l.3-.173c1.278-.732,2.541-1.464,3.814-2.192.536.947,1.068,1.884,1.595,2.826.214.023.4.033.588.037a16.83,16.83,0,0,1,3.73.648c.191.056.373.112.555.177,3.423,1.17,5.829,3.446,6.4,6.1A7.116,7.116,0,0,1,166.393,107.145Z" transform="translate(-11.754 -37.568)" fill="#585a33"/>
    <path id="Tracciato_150" data-name="Tracciato 150" d="M153.884,89.142a23.378,23.378,0,0,0,7.064,3.466c.68.2,1.34.357,1.974.483a18.339,18.339,0,0,1-5.221-5.528c-.27-.469-.723-1.324-1.4-1.36C155.289,86.149,154.4,87.922,153.884,89.142Z" transform="translate(-25.178 -35.098)" fill="#db470f"/>
    <path id="Tracciato_151" data-name="Tracciato 151" d="M178.969,98.064a29.852,29.852,0,0,1-5.957-.695c-.629-.139-1.23-.293-1.805-.459.873-.4,3.337-1.523,5.371-2.225a1.4,1.4,0,0,1,.878-.066C178.692,94.987,178.922,97.435,178.969,98.064Z" transform="translate(-34.424 -39.567)" fill="#db470f"/>
    <ellipse id="Ellisse_10" data-name="Ellisse 10" cx="1.429" cy="6.028" rx="1.429" ry="6.028" transform="translate(135.798 56.94)" fill="#db470f"/>
    <path id="Tracciato_152" data-name="Tracciato 152" d="M177.022,105.659c1.237,3.563,1.636,6.662.891,6.921s-2.352-2.42-3.589-5.984-1.636-6.662-.891-6.921S175.785,102.095,177.022,105.659Z" transform="translate(-35.411 -42.279)" fill="#db470f"/>
    <path id="Tracciato_153" data-name="Tracciato 153" d="M186.254,38.158c.084,1.61-2.482,3.266-4.441,3.9-4.289,1.389-7.048-1.661-10.281.131-2.094,1.161-2.316,3.206-3.526,3.043-1.323-.178-2.373-2.8-2.121-4.973.438-3.767,5.332-5.509,6.143-5.792C178.258,32.3,186.112,35.444,186.254,38.158Z" transform="translate(-31.564 -7.1)" fill="#b05328"/>
    <path id="Tracciato_154" data-name="Tracciato 154" d="M209.591,47.41c0,2.273-.589,4.116-1.315,4.116s-1.315-1.843-1.315-4.116.589-4.115,1.315-4.115S209.591,45.137,209.591,47.41Z" transform="translate(-53.506 -12.198)" fill="#b05328"/>
    <g id="Raggruppa_114" data-name="Raggruppa 114" transform="translate(132.043 33.024)">
      <ellipse id="Ellisse_11" data-name="Ellisse 11" cx="2.9" cy="2.14" rx="2.9" ry="2.14" transform="matrix(0.389, -0.921, 0.921, 0.389, 0, 5.343)" fill="#f6ada5"/>
      <g id="Raggruppa_111" data-name="Raggruppa 111" transform="translate(0.659 0.53)">
        <g id="Raggruppa_108" data-name="Raggruppa 108" transform="translate(0 3.602)">
          <path id="Tracciato_155" data-name="Tracciato 155" d="M164.409,58.636a1.815,1.815,0,0,1-.709-.141,2.233,2.233,0,0,1-1.243-2.019.175.175,0,0,1,.164-.186.17.17,0,0,1,.186.164,1.9,1.9,0,0,0,1.03,1.719,1.51,1.51,0,0,0,.9.081.175.175,0,1,1,.068.343A2,2,0,0,1,164.409,58.636Z" transform="translate(-162.456 -56.289)" fill="#210b04"/>
        </g>
        <g id="Raggruppa_109" data-name="Raggruppa 109" transform="translate(0 2.184)">
          <path id="Tracciato_156" data-name="Tracciato 156" d="M162.631,54.622a.177.177,0,0,1-.175-.185,3.881,3.881,0,0,1,.221-1.072.175.175,0,0,1,.33.117,3.524,3.524,0,0,0-.2.975A.175.175,0,0,1,162.631,54.622Z" transform="translate(-162.455 -53.249)" fill="#210b04"/>
        </g>
        <g id="Raggruppa_110" data-name="Raggruppa 110" transform="translate(0.428)">
          <path id="Tracciato_157" data-name="Tracciato 157" d="M163.549,50.6a.171.171,0,0,1-.08-.02.175.175,0,0,1-.075-.235c.725-1.4,2.1-2.1,3.191-1.635a1.813,1.813,0,0,1,.661.48.175.175,0,1,1-.263.231,1.477,1.477,0,0,0-.534-.389c-.925-.39-2.1.243-2.744,1.474A.174.174,0,0,1,163.549,50.6Z" transform="translate(-163.374 -48.564)" fill="#210b04"/>
        </g>
      </g>
      <g id="Raggruppa_112" data-name="Raggruppa 112" transform="translate(2.795 1.917)">
        <path id="Tracciato_158" data-name="Tracciato 158" d="M167.212,54.753a.175.175,0,0,1-.175-.178l.048-2.863a.175.175,0,1,1,.35.006l-.048,2.864A.175.175,0,0,1,167.212,54.753Z" transform="translate(-167.037 -51.54)" fill="#210b04"/>
      </g>
      <g id="Raggruppa_113" data-name="Raggruppa 113" transform="translate(2.909 2.565)">
        <path id="Tracciato_159" data-name="Tracciato 159" d="M167.456,53.851a.175.175,0,0,1-.1-.317l.8-.572a.175.175,0,0,1,.2.285l-.8.572A.174.174,0,0,1,167.456,53.851Z" transform="translate(-167.28 -52.93)" fill="#210b04"/>
      </g>
    </g>
    <path id="Tracciato_160" data-name="Tracciato 160" d="M161.223,38.722a11.642,11.642,0,0,1,6.055-10.531,11.848,11.848,0,0,1,14.436,3.379Z" transform="translate(-29.095 -3.501)" fill="#fff"/>
    <g id="Raggruppa_115" data-name="Raggruppa 115" transform="translate(131.961 26.957)">
      <path id="Tracciato_161" data-name="Tracciato 161" d="M161.04,42.311a.175.175,0,0,1-.063-.338l19.637-7.545a.175.175,0,1,1,.125.326L161.1,42.3A.172.172,0,0,1,161.04,42.311Z" transform="translate(-160.865 -34.416)" fill="#210b04"/>
    </g>
    <g id="Raggruppa_116" data-name="Raggruppa 116" transform="translate(136.18 30.468)">
      <path id="Tracciato_162" data-name="Tracciato 162" d="M170.491,43.1a.577.577,0,1,1,.577-.577A.578.578,0,0,1,170.491,43.1Zm0-.8a.227.227,0,1,0,.228.228A.227.227,0,0,0,170.491,42.3Z" transform="translate(-169.914 -41.947)" fill="#210b04"/>
    </g>
    <g id="Raggruppa_117" data-name="Raggruppa 117" transform="translate(145.921 26.468)">
      <path id="Tracciato_163" data-name="Tracciato 163" d="M191.4,34.793a.723.723,0,1,1,.6-.712A.664.664,0,0,1,191.4,34.793Zm0-1.075c-.135,0-.249.166-.249.363s.114.363.249.363.249-.166.249-.363S191.538,33.718,191.4,33.718Z" transform="translate(-190.804 -33.368)" fill="#210b04"/>
    </g>
    <g id="Raggruppa_121" data-name="Raggruppa 121" transform="translate(107.09 57.625)">
      <g id="Raggruppa_118" data-name="Raggruppa 118">
        <path id="Tracciato_164" data-name="Tracciato 164" d="M124.706,109.2c-1.553,3.535-3.123,7.078-4.676,10.613l-1.181,2.667c-1.783,4.035-3.548,8.061-5.332,12.095-2.007-1.549-4-3.106-5.991-4.65a88.155,88.155,0,0,1,3.878-12.875c.577-1.509,1.229-3.067,1.944-4.633,1.167-2.583,2.4-4.966,3.638-7.154,2.559-3.828,6.521-4.652,8.052-3.444C126.392,102.9,126.53,106.134,124.706,109.2Z" transform="translate(-107.526 -100.786)" fill="#f6ada5"/>
        <path id="Tracciato_165" data-name="Tracciato 165" d="M124.468,137.84l-1.181,2.667c-2.48-1.814-4.965-3.616-7.445-5.43C118.716,136,121.595,136.915,124.468,137.84Z" transform="translate(-111.964 -118.809)" fill="#210b04"/>
        <path id="Tracciato_166" data-name="Tracciato 166" d="M124.559,120.968l-9.809-4.752,5.593-11.313c2.455-3.943,6.158-5.455,8.317-4.375a4.212,4.212,0,0,1,2.017,2.778,45.808,45.808,0,0,1-.9,4.888A46.546,46.546,0,0,1,124.559,120.968Z" transform="translate(-111.382 -100.189)" fill="#585a33"/>
      </g>
      <g id="Raggruppa_120" data-name="Raggruppa 120" transform="translate(7.379 6.321)">
        <path id="Tracciato_167" data-name="Tracciato 167" d="M130.1,118.969a3.5,3.5,0,1,1-1.684-4.992A3.742,3.742,0,0,1,130.1,118.969Z" transform="translate(-123.351 -113.744)" fill="#f9edd4"/>
        <g id="Raggruppa_119" data-name="Raggruppa 119" transform="translate(1.361 0.935)">
          <path id="Tracciato_168" data-name="Tracciato 168" d="M129.966,121.874a1.849,1.849,0,1,1-.854-2.7A2.017,2.017,0,0,1,129.966,121.874Z" transform="translate(-126.343 -117.515)" fill="#db470f"/>
          <path id="Tracciato_169" data-name="Tracciato 169" d="M127.042,118.3c-.13.314-.392.5-.586.423s-.244-.4-.114-.713.392-.5.585-.423S127.172,117.988,127.042,118.3Z" transform="translate(-126.27 -116.721)" fill="#db470f"/>
          <path id="Tracciato_170" data-name="Tracciato 170" d="M130.458,116.7a.653.653,0,1,1-.327-.909A.684.684,0,0,1,130.458,116.7Z" transform="translate(-127.833 -115.749)" fill="#db470f"/>
          <path id="Tracciato_171" data-name="Tracciato 171" d="M135.246,121.316c-.13.314-.079.634.115.714s.455-.11.585-.424.079-.633-.114-.713S135.376,121,135.246,121.316Z" transform="translate(-131.022 -118.484)" fill="#db470f"/>
          <path id="Tracciato_172" data-name="Tracciato 172" d="M133.4,117.538a.652.652,0,1,0,.874-.411A.684.684,0,0,0,133.4,117.538Z" transform="translate(-130.043 -116.46)" fill="#db470f"/>
        </g>
      </g>
    </g>
    <g id="Raggruppa_122" data-name="Raggruppa 122" transform="translate(120.715 67.535)">
      <path id="Tracciato_173" data-name="Tracciato 173" d="M136.923,132.553a.166.166,0,0,1-.072-.016.174.174,0,0,1-.087-.231l4.9-10.763a.175.175,0,0,1,.318.145l-4.9,10.763A.175.175,0,0,1,136.923,132.553Z" transform="translate(-136.748 -121.44)" fill="#210b04"/>
    </g>
    <g id="Raggruppa_123" data-name="Raggruppa 123" transform="translate(153.76 68.387)">
      <path id="Tracciato_174" data-name="Tracciato 174" d="M208.977,131.35a.175.175,0,0,1-.173-.149l-1.187-7.731a.175.175,0,1,1,.345-.053l1.187,7.731a.176.176,0,0,1-.146.2Z" transform="translate(-207.616 -123.269)" fill="#210b04"/>
    </g>
    <g id="Raggruppa_124" data-name="Raggruppa 124" transform="translate(141.182 59.782)">
      <path id="Tracciato_175" data-name="Tracciato 175" d="M182.13,109.986a.174.174,0,0,1-.168-.129l-1.315-4.821a.175.175,0,0,1,.123-.214.172.172,0,0,1,.215.123l1.314,4.821a.174.174,0,0,1-.169.221Z" transform="translate(-180.641 -104.814)" fill="#210b04"/>
    </g>
    <g id="Raggruppa_125" data-name="Raggruppa 125" transform="translate(141.496 71.008)">
      <path id="Tracciato_176" data-name="Tracciato 176" d="M181.489,157.118a.179.179,0,0,1-.174-.192l2.67-27.879a.175.175,0,0,1,.348.034l-2.67,27.879A.175.175,0,0,1,181.489,157.118Z" transform="translate(-181.314 -128.89)" fill="#210b04"/>
    </g>
    <g id="Raggruppa_126" data-name="Raggruppa 126" transform="translate(127.639 70.045)">
      <path id="Tracciato_177" data-name="Tracciato 177" d="M161.716,138.67l-9.956-.585a.175.175,0,0,1-.159-.22,23.883,23.883,0,0,0,.377-10.832.175.175,0,0,1,.172-.208h9.921a.175.175,0,0,1,.17.132,20.822,20.822,0,0,1-.359,11.593A.176.176,0,0,1,161.716,138.67Zm-9.722-.922,9.6.564a20.468,20.468,0,0,0,.346-11.138h-9.574a24.207,24.207,0,0,1-.368,10.574Z" transform="translate(-151.596 -126.824)" fill="#210b04"/>
    </g>
    <g id="Raggruppa_127" data-name="Raggruppa 127" transform="translate(128.019 70.045)">
      <path id="Tracciato_178" data-name="Tracciato 178" d="M158.012,131.971a.176.176,0,0,1-.116-.043l-5.426-4.8a.175.175,0,0,1,.232-.262l5.3,4.686,4.294-4.529a.175.175,0,1,1,.254.241l-4.41,4.651A.173.173,0,0,1,158.012,131.971Z" transform="translate(-152.412 -126.825)" fill="#210b04"/>
    </g>
    <path id="Tracciato_179" data-name="Tracciato 179" d="M137.27,133.315l1.385,2.53a68.007,68.007,0,0,1-20.742,14.531,65.723,65.723,0,0,1-6.409,2.471,4.175,4.175,0,0,1-4.157-1.79,4.4,4.4,0,0,1-.257-4.045,35.776,35.776,0,0,1,5.91-3.883c7.713-4.021,12.9-3.094,20.842-7.6A35.109,35.109,0,0,0,137.27,133.315Z" transform="translate(0 -60.243)" fill="#f6ada5"/>
    <g id="Raggruppa_130" data-name="Raggruppa 130" transform="translate(134.751 61.923)">
      <rect id="Rettangolo_8" data-name="Rettangolo 8" width="1.287" height="19.419" transform="matrix(0.884, -0.467, 0.467, 0.884, 0.811, 1.537)" fill="#c9a130"/>
      <rect id="Rettangolo_9" data-name="Rettangolo 9" width="1.968" height="7.634" transform="matrix(0.884, -0.467, 0.467, 0.884, 0, 0.919)" fill="#c9a130"/>
      <g id="Raggruppa_128" data-name="Raggruppa 128" transform="translate(3.771 6.777)">
        <path id="Tracciato_180" data-name="Tracciato 180" d="M175.111,124.806a.175.175,0,0,1-.082-.329l.977-.517a.175.175,0,0,1,.164.309l-.977.516A.172.172,0,0,1,175.111,124.806Z" transform="translate(-174.935 -123.939)" fill="#210b04"/>
      </g>
      <g id="Raggruppa_129" data-name="Raggruppa 129" transform="translate(0.896 1.195)">
        <path id="Tracciato_181" data-name="Tracciato 181" d="M171.566,117.249a.174.174,0,0,1-.155-.093l-2.622-4.93a.175.175,0,0,1,.309-.164l2.621,4.93a.175.175,0,0,1-.072.236A.172.172,0,0,1,171.566,117.249Z" transform="translate(-168.769 -111.969)" fill="#210b04"/>
      </g>
    </g>
    <g id="Raggruppa_135" data-name="Raggruppa 135" transform="translate(130.345 69.009)">
      <path id="Tracciato_182" data-name="Tracciato 182" d="M157.4,133.059a16.322,16.322,0,0,1,1.306-2.752,16.532,16.532,0,0,1,3.52-4.153l4.21-1.551q6.159,5.723,5.736,6.259-.313.4-4.249-2.061a2.166,2.166,0,0,1,2.226,1.86,1.839,1.839,0,0,1-.761,1.31,4.216,4.216,0,0,1-.748,1.1,4.3,4.3,0,0,1-1.833,1.139l-4.882,1.228Z" transform="translate(-157.4 -124.602)" fill="#f6ada5"/>
      <g id="Raggruppa_131" data-name="Raggruppa 131" transform="translate(10.096 3.152)">
        <path id="Tracciato_183" data-name="Tracciato 183" d="M181.679,134.2a.174.174,0,0,1-.125-.052L179.1,131.66a.175.175,0,0,1,.249-.246L181.8,133.9a.175.175,0,0,1-.124.3Z" transform="translate(-179.052 -131.362)" fill="#210b04"/>
      </g>
      <g id="Raggruppa_132" data-name="Raggruppa 132" transform="translate(8.402 4.666)">
        <path id="Tracciato_184" data-name="Tracciato 184" d="M178.862,137.313a.176.176,0,0,1-.1-.033l-3.269-2.355a.175.175,0,0,1,.2-.284L178.964,137a.175.175,0,0,1-.1.317Z" transform="translate(-175.418 -134.609)" fill="#210b04"/>
      </g>
      <g id="Raggruppa_133" data-name="Raggruppa 133" transform="translate(8.626 7.444)">
        <path id="Tracciato_185" data-name="Tracciato 185" d="M178.225,141.878a.184.184,0,0,1-.071-.015L176,140.9a.175.175,0,0,1,.143-.319l2.151.961a.175.175,0,0,1-.072.335Z" transform="translate(-175.899 -140.567)" fill="#210b04"/>
      </g>
      <g id="Raggruppa_134" data-name="Raggruppa 134" transform="translate(7.506 9.047)">
        <path id="Tracciato_186" data-name="Tracciato 186" d="M175.608,144.839a.166.166,0,0,1-.042-.006l-1.937-.485a.175.175,0,1,1,.085-.339l1.936.485a.175.175,0,0,1-.042.344Z" transform="translate(-173.496 -144.004)" fill="#210b04"/>
      </g>
    </g>
    <g id="Raggruppa_136" data-name="Raggruppa 136" transform="translate(135.796 74.477)">
      <path id="Tracciato_187" data-name="Tracciato 187" d="M195.043,155.549a16.364,16.364,0,0,1-.331,1.791c-.047.2-.1.4-.159.6-.145.513-.312,1.016-.5,1.506-.121.312-.252.615-.392.914a13.633,13.633,0,0,1-.718,1.371,13.169,13.169,0,0,1-5.679,5.311,2.584,2.584,0,0,1-.261.112H176.373a16.918,16.918,0,0,1-4.327-2.434,17.77,17.77,0,0,1-2.956-2.882q3.714-7.946,7.419-15.891c.415-.891.83-1.777,1.245-2.667.228-.49.457-.975.681-1.464.093-.2.187-.4.28-.6.434-.923.863-1.842,1.292-2.765l1.571.7c.135.061.27.121.406.187l1.222.546c.364.163.723.326,1.086.485.415.191.83.373,1.245.56l.466.21c.494.224.965.434,1.441.648.107.047.215.1.322.145l3.884,1.744.811.364c.163.256.317.513.457.774A17.208,17.208,0,0,1,195.043,155.549Z" transform="translate(-169.09 -137.461)" fill="#f9edd4"/>
      <path id="Tracciato_188" data-name="Tracciato 188" d="M193.545,160.994l-10.476-3.177,6.456-21.288A25.894,25.894,0,0,1,200,139.706Z" transform="translate(-176.551 -136.436)" fill="#dcc2ab"/>
      <path id="Tracciato_189" data-name="Tracciato 189" d="M204.572,145.02l-2.6,8.57-.121.42-.5,1.623s0,.028,0,.028l-.173.564-.476,1.567-.033.107s-.126.424-.126.424l-.662,2.168s-.009.037-.009.037-.471,1.557-.471,1.557l-.019.07-.247.8c0,.009-1.273,4.2-1.273,4.2h-19.9l-3.441-1.044.424-1.39c0-.009,3.893-12.837,3.893-12.837,0-.023,2.6-8.584,2.6-8.584s.247-.807.247-.807.284-.951.284-.951.937-3.087.937-3.087l1.632.5s.312.089.312.089,1.156.354,1.156.354,2.439.741,2.439.741l.345.107c.009,0,.695.205.695.205l1.077.326c.009,0,.415.126.415.126l.853.256,3.185.97s.555.168.555.168S204.572,145.02,204.572,145.02Z" transform="translate(-171.988 -137.461)" fill="#db470f"/>
      <path id="Tracciato_190" data-name="Tracciato 190" d="M211.993,142.75q-1.581,4.931-3.166,9.867c-.1.3-.2.6-.294.909s-.205.634-.308.956c-.047.145-.089.284-.135.424-.121.392-.242.765-.364,1.152-.047.14-.093.275-.135.415s-.1.308-.149.462c-.205.634-.406,1.254-.6,1.879-.037.107-.075.21-.1.317-.261.816-.513,1.6-.769,2.387-.1.326-.205.634-.3.951q-.574,1.77-1.138,3.548H189.541l-3.651-1.105c.7-2.21,1.366-4.271,2-6.192,2.145-6.551,3.884-11.475,5.264-14.828.126-.308.256-.606.378-.891.14-.331.34-.8.536-1.343a9.006,9.006,0,0,0,.317-1.138,2.631,2.631,0,0,0,.07-.382,2.979,2.979,0,0,0,.047-.34,3.5,3.5,0,0,0,.019-.662,1.32,1.32,0,0,0-.009-.135,2.578,2.578,0,0,0-.494-1.4,3.061,3.061,0,0,0-1.977-1.072c-.009,0-.014,0-.023,0s-.033,0-.047-.009c-.079-.014-.154-.028-.233-.037a5.617,5.617,0,0,0-.709-.056c.219-.014.448-.028.685-.047a32.162,32.162,0,0,1,4.747.093c.228.019.448.047.676.07.131.014.261.033.4.047a29.161,29.161,0,0,1,3.576.695c.168.037.331.084.5.131a28.126,28.126,0,0,1,4.845,1.823A28.949,28.949,0,0,1,211.993,142.75Z" transform="translate(-178.056 -136.329)" fill="#f9edd4"/>
    </g>
    <g id="Raggruppa_141" data-name="Raggruppa 141" transform="translate(158.88 90.565)">
      <path id="Tracciato_191" data-name="Tracciato 191" d="M227.008,173l-2.076-2.173q-6.573,3.664-6.326,4.2.213.464,5.5-1.4Z" transform="translate(-218.597 -170.832)" fill="#f6ada5"/>
      <path id="Tracciato_192" data-name="Tracciato 192" d="M228.043,176.837l-2.076-2.173q-6.573,3.664-6.326,4.2.213.464,5.5-1.4Z" transform="translate(-219.149 -172.877)" fill="#f6ada5"/>
      <path id="Tracciato_193" data-name="Tracciato 193" d="M227.008,181.441l-2.076-2.173q-6.573,3.664-6.326,4.2.213.464,5.5-1.4Z" transform="translate(-218.597 -175.334)" fill="#f6ada5"/>
      <path id="Tracciato_194" data-name="Tracciato 194" d="M226.531,186.559l-1.7-2.063q-5.391,3.479-5.188,3.99.174.441,4.515-1.33Z" transform="translate(-219.15 -178.125)" fill="#f6ada5"/>
      <path id="Tracciato_195" data-name="Tracciato 195" d="M229.821,170.832a3.968,3.968,0,0,1,3.03,1.2c1.639,1.874.281,5.241-1.147,6.965-1.025,1.238-2.811,2.5-3.561,2.016-.384-.249-.42-.91-.362-1.521Z" transform="translate(-223.487 -170.832)" fill="#f6ada5"/>
      <g id="Raggruppa_137" data-name="Raggruppa 137" transform="translate(4.097 1.612)">
        <path id="Tracciato_196" data-name="Tracciato 196" d="M227.559,175.859a.175.175,0,0,1-.071-.335l2.726-1.219a.175.175,0,0,1,.143.32l-2.726,1.219A.179.179,0,0,1,227.559,175.859Z" transform="translate(-227.384 -174.29)" fill="#210b04"/>
      </g>
      <g id="Raggruppa_138" data-name="Raggruppa 138" transform="translate(3.802 3.086)">
        <path id="Tracciato_197" data-name="Tracciato 197" d="M226.927,179.814a.175.175,0,0,1-.093-.323l3.215-2.013a.175.175,0,0,1,.186.3l-3.216,2.013A.174.174,0,0,1,226.927,179.814Z" transform="translate(-226.752 -177.45)" fill="#210b04"/>
      </g>
      <g id="Raggruppa_139" data-name="Raggruppa 139" transform="translate(4.513 6.196)">
        <path id="Tracciato_198" data-name="Tracciato 198" d="M228.451,185.116a.175.175,0,0,1-.052-.342l2.056-.645a.174.174,0,1,1,.1.333l-2.055.645A.175.175,0,0,1,228.451,185.116Z" transform="translate(-228.276 -184.121)" fill="#210b04"/>
      </g>
      <g id="Raggruppa_140" data-name="Raggruppa 140" transform="translate(4.824 7.94)">
        <path id="Tracciato_199" data-name="Tracciato 199" d="M229.117,188.955a.175.175,0,0,1-.066-.337l1.836-.745a.175.175,0,0,1,.132.324l-1.836.746A.18.18,0,0,1,229.117,188.955Z" transform="translate(-228.942 -187.86)" fill="#210b04"/>
      </g>
    </g>
    <g id="Raggruppa_142" data-name="Raggruppa 142" transform="translate(112.139 80.764)">
      <path id="Tracciato_200" data-name="Tracciato 200" d="M118.529,152.477a.175.175,0,0,1-.071-.334l5.181-2.315a.177.177,0,0,1,.231.088.175.175,0,0,1-.089.231l-5.181,2.315A.176.176,0,0,1,118.529,152.477Z" transform="translate(-118.354 -149.813)" fill="#210b04"/>
    </g>
  </g>
</svg>
