<svg xmlns="http://www.w3.org/2000/svg" width="71.037" height="54.539" viewBox="0 0 71.037 54.539">
  <g id="Raggruppa_96" data-name="Raggruppa 96" transform="translate(-395.172 -54.701)">
    <g id="Raggruppa_94" data-name="Raggruppa 94" transform="translate(395.172 62.588)">
      <g id="Raggruppa_68" data-name="Raggruppa 68">
        <path id="Tracciato_84" data-name="Tracciato 84" d="M407.392,98.7c-.154.6-.7,2.5.242,3.5a3,3,0,0,0,3.811.033c1.179-1.08.743-3.308.653-3.88-1.341-8.6,15.154-32.655,10.235-37.845-2.119-2.235-8.422-1.194-11.953,1.922C401.787,70.021,409.659,89.879,407.392,98.7Z" transform="translate(-379.953 -56.252)" fill="#585a33"/>
        <path id="Tracciato_85" data-name="Tracciato 85" d="M422.454,98.391q-13.462-.6-26.925-1.191,3.617-18.414,7.235-36.83l27.84-.261Z" transform="translate(-394.682 -55.163)" fill="#585a33"/>
        <path id="Tracciato_86" data-name="Tracciato 86" d="M438.754,100.943l-30.7-3.377q3.616-18.417,7.235-36.832,15.513.53,31.023,1.058Q442.533,81.37,438.754,100.943Z" transform="translate(-377.487 -54.304)" fill="#585a33"/>
        <path id="Tracciato_87" data-name="Tracciato 87" d="M422.819,86.672a14.883,14.883,0,0,0-4.053-2.164c-3.552-1.227-6.552-.686-9.274-.32a94.626,94.626,0,0,1-13.393.8L399.534,68.5q13.081.107,26.168.209Z" transform="translate(-393.901 -43.639)" fill="#dcc2ab"/>
        <path id="Tracciato_88" data-name="Tracciato 88" d="M437.636,87.961c-15.017-.828-20.821-1.528-22.859-2.074a12.461,12.461,0,0,0-4.554-.406,12.062,12.062,0,0,0-2.864.648q2.919-8.618,5.838-17.231l26.168.206Q438.5,78.534,437.636,87.961Z" transform="translate(-378.44 -43.095)" fill="#dcc2ab"/>
        <path id="Tracciato_89" data-name="Tracciato 89" d="M432.538,61.226c-4.718-3.078-8.265-3.351-10.648-3.023-5.074.7-7.734,4.53-13.873,4.533a15.444,15.444,0,0,1-4.739-.755q-4.054,17.719-8.106,35.441a21.133,21.133,0,0,0,9.822.617c8.03-1.483,11.865-6.687,15.456-5.149,1.407.6,3.083,2.4,3.64,8.071Z" transform="translate(-395.172 -57.927)" fill="#f9edd4"/>
        <path id="Tracciato_90" data-name="Tracciato 90" d="M407.358,101.058c4.255-3.7,7.556-4.281,9.822-4.089,5.489.47,7.845,5.688,14.63,6.457a15.089,15.089,0,0,0,6.524-.755l7.418-39.426c-9.972.793-15.085-1.144-17.926-3.159a9,9,0,0,0-5.152-2.062c-2.9-.05-5.3,1.766-6.868,3.3Q411.581,81.19,407.358,101.058Z" transform="translate(-378.44 -58.025)" fill="#f9edd4"/>
        <g id="Raggruppa_63" data-name="Raggruppa 63" transform="translate(28.725 39.274)">
          <path id="Tracciato_91" data-name="Tracciato 91" d="M407.574,78.13a.307.307,0,0,1-.294-.339l.451-2.964a.3.3,0,0,1,.337-.249.3.3,0,0,1,.252.337l-.451,2.964A.3.3,0,0,1,407.574,78.13Z" transform="translate(-407.277 -74.575)" fill="#210b04"/>
        </g>
        <g id="Raggruppa_64" data-name="Raggruppa 64" transform="translate(30.271 3.778)">
          <path id="Tracciato_92" data-name="Tracciato 92" d="M408.225,92.812c-.221-.038-.325-.195-.29-.356l6.8-32.606a.307.307,0,0,1,.349-.23.3.3,0,0,1,.23.351l-6.8,32.606A.3.3,0,0,1,408.225,92.812Z" transform="translate(-407.928 -59.616)" fill="#210b04"/>
        </g>
        <g id="Raggruppa_65" data-name="Raggruppa 65" transform="translate(2.681 36.637)">
          <path id="Tracciato_93" data-name="Tracciato 93" d="M422.171,79.549a.3.3,0,0,1-.29-.233c-.256-1.175-1.115-4.013-3.5-4.962a5.2,5.2,0,0,0-2.52-.256,18.661,18.661,0,0,0-7.252,2.368c-.218.114-.415.216-.588.3-3.085,1.54-6.948,1.9-11.471,1.056a.3.3,0,0,1-.237-.346.292.292,0,0,1,.344-.237c4.4.814,8.135.479,11.1-1,.171-.085.363-.185.577-.3a19.177,19.177,0,0,1,7.475-2.435,5.885,5.885,0,0,1,2.791.294c2.655,1.056,3.588,4.12,3.866,5.387a.3.3,0,0,1-.228.354A.259.259,0,0,1,422.171,79.549Z" transform="translate(-396.302 -73.463)" fill="#210b04"/>
        </g>
        <g id="Raggruppa_66" data-name="Raggruppa 66" transform="translate(30.223 39.817)">
          <path id="Tracciato_94" data-name="Tracciato 94" d="M425.4,79.243a16.659,16.659,0,0,1-2.043-.589,16.889,16.889,0,0,1-2.985-1.424,15.136,15.136,0,0,0-1.993-1.006,11.479,11.479,0,0,0-3.88-.826c-.062,0-.121,0-.183,0a10.62,10.62,0,0,0-5.94,1.986.3.3,0,0,1-.337-.489,11.279,11.279,0,0,1,6.471-2.088,12.186,12.186,0,0,1,4.089.866,15.494,15.494,0,0,1,2.067,1.044,16.125,16.125,0,0,0,2.89,1.379,17.439,17.439,0,0,0,1.913.565.3.3,0,0,1-.069.584Z" transform="translate(-407.908 -74.803)" fill="#210b04"/>
        </g>
        <g id="Raggruppa_67" data-name="Raggruppa 67" transform="translate(27.591 43.594)">
          <path id="Tracciato_95" data-name="Tracciato 95" d="M408.719,78.927a1.661,1.661,0,0,1-.389-.045,2.2,2.2,0,0,1-1.531-2.136.3.3,0,0,1,.593-.017,1.63,1.63,0,0,0,1.077,1.576,1.4,1.4,0,0,0,1.1-.268,1.869,1.869,0,0,0,.755-1.369.3.3,0,0,1,.3-.273.306.306,0,0,1,.3.323,2.466,2.466,0,0,1-1,1.8A2.058,2.058,0,0,1,408.719,78.927Z" transform="translate(-406.799 -76.395)" fill="#210b04"/>
        </g>
      </g>
      <g id="Raggruppa_69" data-name="Raggruppa 69" transform="translate(9.49 3.443)">
        <path id="Tracciato_96" data-name="Tracciato 96" d="M402.591,64.515a17.734,17.734,0,0,1-3.42-.339l.233-1.163a15.91,15.91,0,0,0,5.56.133,15.535,15.535,0,0,0,5.382-1.979,12.31,12.31,0,0,1,4.148-1.592c3.109-.482,6.55.8,10.216,3.79l-.752.921c-3.393-2.765-6.512-3.942-9.288-3.538a11.251,11.251,0,0,0-3.766,1.467,15.949,15.949,0,0,1-8.313,2.3Z" transform="translate(-399.171 -59.475)" fill="#dcc2ab"/>
      </g>
      <g id="Raggruppa_70" data-name="Raggruppa 70" transform="translate(9.49 5.117)">
        <path id="Tracciato_97" data-name="Tracciato 97" d="M402.588,65.219a17.672,17.672,0,0,1-3.417-.339l.233-1.165a15.793,15.793,0,0,0,5.56.135,15.535,15.535,0,0,0,5.382-1.979,12.31,12.31,0,0,1,4.148-1.592c3.109-.477,6.55.8,10.216,3.787l-.752.921c-3.393-2.762-6.521-3.953-9.288-3.536a11.232,11.232,0,0,0-3.766,1.467,15.95,15.95,0,0,1-8.315,2.3Z" transform="translate(-399.171 -60.181)" fill="#dcc2ab"/>
      </g>
      <g id="Raggruppa_71" data-name="Raggruppa 71" transform="translate(8.519 7.043)">
        <path id="Tracciato_98" data-name="Tracciato 98" d="M402.179,66.032a17.493,17.493,0,0,1-3.417-.342l.23-1.163a15.861,15.861,0,0,0,5.562.133,15.583,15.583,0,0,0,5.382-1.977,12.265,12.265,0,0,1,4.148-1.595c3.106-.475,6.547.8,10.214,3.79l-.75.921c-3.391-2.765-6.516-3.949-9.288-3.538a11.261,11.261,0,0,0-3.766,1.467,16.744,16.744,0,0,1-5.755,2.1A16.483,16.483,0,0,1,402.179,66.032Z" transform="translate(-398.762 -60.992)" fill="#dcc2ab"/>
      </g>
      <g id="Raggruppa_72" data-name="Raggruppa 72" transform="translate(8.519 8.638)">
        <path id="Tracciato_99" data-name="Tracciato 99" d="M402.177,66.7a17.667,17.667,0,0,1-3.415-.339l.23-1.163a15.922,15.922,0,0,0,5.562.131,15.535,15.535,0,0,0,5.382-1.977,12.262,12.262,0,0,1,4.148-1.592c3.106-.482,6.547.8,10.214,3.787l-.75.921c-3.391-2.762-6.516-3.953-9.288-3.536a11.211,11.211,0,0,0-3.766,1.467,15.949,15.949,0,0,1-8.318,2.3Z" transform="translate(-398.762 -61.664)" fill="#dcc2ab"/>
      </g>
      <g id="Raggruppa_73" data-name="Raggruppa 73" transform="translate(8.178 10.203)">
        <path id="Tracciato_100" data-name="Tracciato 100" d="M402.038,67.362a17.7,17.7,0,0,1-3.419-.339l.233-1.163a15.921,15.921,0,0,0,5.562.133,15.538,15.538,0,0,0,5.38-1.979,12.33,12.33,0,0,1,4.148-1.592c3.116-.477,6.55.8,10.216,3.787l-.752.921c-3.389-2.762-6.516-3.951-9.288-3.536a11.25,11.25,0,0,0-3.766,1.467,15.938,15.938,0,0,1-8.313,2.3Z" transform="translate(-398.618 -62.324)" fill="#dcc2ab"/>
      </g>
      <g id="Raggruppa_74" data-name="Raggruppa 74" transform="translate(7.326 15.291)">
        <path id="Tracciato_101" data-name="Tracciato 101" d="M401.679,69.5a17.733,17.733,0,0,1-3.42-.339L398.484,68a15.946,15.946,0,0,0,5.565.133,15.534,15.534,0,0,0,5.382-1.979,12.31,12.31,0,0,1,4.148-1.592c3.109-.47,6.552.809,10.216,3.79l-.75.921c-3.4-2.762-6.521-3.949-9.29-3.538a11.231,11.231,0,0,0-3.766,1.467,16.745,16.745,0,0,1-5.755,2.1A16.353,16.353,0,0,1,401.679,69.5Z" transform="translate(-398.259 -64.468)" fill="#dcc2ab"/>
      </g>
      <g id="Raggruppa_75" data-name="Raggruppa 75" transform="translate(6.846 17.517)">
        <path id="Tracciato_102" data-name="Tracciato 102" d="M401.472,70.446a17.648,17.648,0,0,1-3.415-.339l.23-1.163a15.869,15.869,0,0,0,5.562.133,15.551,15.551,0,0,0,5.382-1.979,12.28,12.28,0,0,1,4.146-1.592c3.1-.482,6.547.8,10.216,3.787l-.75.921c-3.393-2.762-6.524-3.951-9.29-3.536a11.186,11.186,0,0,0-3.761,1.467,15.962,15.962,0,0,1-8.32,2.3Z" transform="translate(-398.057 -65.406)" fill="#dcc2ab"/>
      </g>
      <g id="Raggruppa_76" data-name="Raggruppa 76" transform="translate(6.044 19.784)">
        <path id="Tracciato_103" data-name="Tracciato 103" d="M401.136,71.4a17.494,17.494,0,0,1-3.417-.342l.23-1.163a15.861,15.861,0,0,0,5.562.133,15.534,15.534,0,0,0,5.382-1.979,12.31,12.31,0,0,1,4.148-1.592c3.109-.465,6.552.809,10.214,3.79l-.75.921c-3.393-2.762-6.519-3.951-9.288-3.538a11.231,11.231,0,0,0-3.766,1.467,16.744,16.744,0,0,1-5.755,2.1A16.483,16.483,0,0,1,401.136,71.4Z" transform="translate(-397.719 -66.362)" fill="#dcc2ab"/>
      </g>
      <g id="Raggruppa_77" data-name="Raggruppa 77" transform="translate(5.358 22.339)">
        <path id="Tracciato_104" data-name="Tracciato 104" d="M400.85,72.476a17.715,17.715,0,0,1-3.42-.339l.23-1.163a16.027,16.027,0,0,0,5.56.133,15.534,15.534,0,0,0,5.382-1.979,12.262,12.262,0,0,1,4.148-1.592c3.1-.475,6.547.8,10.216,3.79l-.75.918c-3.4-2.765-6.538-3.949-9.29-3.536a11.2,11.2,0,0,0-3.764,1.467,15.961,15.961,0,0,1-8.313,2.3Z" transform="translate(-397.43 -67.438)" fill="#dcc2ab"/>
      </g>
      <g id="Raggruppa_78" data-name="Raggruppa 78" transform="translate(4.739 24.989)">
        <path id="Tracciato_105" data-name="Tracciato 105" d="M400.584,73.593a17.669,17.669,0,0,1-3.415-.339l.233-1.163a15.9,15.9,0,0,0,5.558.133,15.53,15.53,0,0,0,5.384-1.979,12.317,12.317,0,0,1,4.146-1.592c3.113-.477,6.55.8,10.218,3.787l-.752.921c-3.391-2.762-6.519-3.953-9.29-3.536a11.176,11.176,0,0,0-3.761,1.467,15.973,15.973,0,0,1-8.32,2.3Z" transform="translate(-397.169 -68.555)" fill="#dcc2ab"/>
      </g>
      <g id="Raggruppa_79" data-name="Raggruppa 79" transform="translate(4.362 27.494)">
        <path id="Tracciato_106" data-name="Tracciato 106" d="M400.43,74.647a17.734,17.734,0,0,1-3.419-.339l.23-1.163a15.97,15.97,0,0,0,5.56.133,15.626,15.626,0,0,0,5.384-1.979A12.271,12.271,0,0,1,412.33,69.7c3.113-.467,6.554.812,10.216,3.792l-.75.918c-3.393-2.762-6.514-3.946-9.29-3.536a11.232,11.232,0,0,0-3.761,1.464,15.953,15.953,0,0,1-8.315,2.3Z" transform="translate(-397.01 -69.61)" fill="#dcc2ab"/>
      </g>
      <g id="Raggruppa_80" data-name="Raggruppa 80" transform="translate(3.728 30.197)">
        <path id="Tracciato_107" data-name="Tracciato 107" d="M400.163,75.789a17.734,17.734,0,0,1-3.419-.339l.233-1.165a15.851,15.851,0,0,0,5.56.133,15.534,15.534,0,0,0,5.382-1.979,12.3,12.3,0,0,1,4.146-1.592c3.135-.475,6.554.807,10.218,3.79l-.752.921c-3.389-2.762-6.516-3.946-9.29-3.538a11.238,11.238,0,0,0-3.764,1.467,16.726,16.726,0,0,1-5.755,2.1A16.429,16.429,0,0,1,400.163,75.789Z" transform="translate(-396.743 -70.749)" fill="#dcc2ab"/>
      </g>
      <path id="Tracciato_108" data-name="Tracciato 108" d="M427.736,67.3c.017.119,6.286-1.132,6.649-.138.2.546-1.372,1.8-2.952,2.473-2.373,1.011-4.438.726-4.466,1.03-.045.491,5.467.987,5.5,1.991.014.5-1.334.98-2.266,1.17-2.814.57-5.1-.831-5.289-.482-.247.463,3.953,2.615,3.616,3.6-.218.636-2.361.79-4.075.09-1.376-.562-2.242-1.585-2.428-1.419-.228.206,1.17,1.711.826,2.2-.534.75-5-1.668-5.289-1.168-.171.292,1.236,1.251,1.03,1.649-.176.337-1.31-.157-2.473-.206-3.106-.131-5.223,2.959-5.679,2.565-.38-.332,1.535-2.129,2.3-5.339.643-2.686-.1-3.754.835-5.192.916-1.4,2.582-1.626,4.464-2.062,7.95-1.846,11.851-5.729,12.914-4.464.479.57.09,1.849-.482,2.542A4.368,4.368,0,0,1,427.736,67.3Z" transform="translate(-374.281 -50.716)" fill="#fff"/>
      <g id="Raggruppa_81" data-name="Raggruppa 81" transform="translate(39.167 28.982)">
        <rect id="Rettangolo_4" data-name="Rettangolo 4" width="5.075" height="0.592" transform="translate(0 4.887) rotate(-74.327)" fill="#dcc2ab"/>
      </g>
      <g id="Raggruppa_82" data-name="Raggruppa 82" transform="translate(39.38 33.66)">
        <path id="Tracciato_109" data-name="Tracciato 109" d="M424.781,76l-13.015-3.218.144-.577,13.015,3.218Z" transform="translate(-411.767 -72.209)" fill="#dcc2ab"/>
      </g>
      <g id="Raggruppa_83" data-name="Raggruppa 83" transform="translate(44.817 8.377)">
        <rect id="Rettangolo_5" data-name="Rettangolo 5" width="7.718" height="0.593" transform="translate(0 7.423) rotate(-74.105)" fill="#dcc2ab"/>
      </g>
      <g id="Raggruppa_84" data-name="Raggruppa 84" transform="translate(47.182 8.162)">
        <path id="Tracciato_110" data-name="Tracciato 110" d="M422.426,62.83l-7.372-.775.06-.591,7.372.775Z" transform="translate(-415.055 -61.464)" fill="#dcc2ab"/>
      </g>
      <g id="Raggruppa_85" data-name="Raggruppa 85" transform="translate(39.505 6.354)">
        <rect id="Rettangolo_6" data-name="Rettangolo 6" width="11.241" height="0.595" transform="matrix(0.257, -0.966, 0.966, 0.257, 0, 10.863)" fill="#dcc2ab"/>
      </g>
      <g id="Raggruppa_86" data-name="Raggruppa 86" transform="translate(50.846 28.496)">
        <path id="Tracciato_111" data-name="Tracciato 111" d="M423.261,71.8,416.6,70.617l.1-.584,6.663,1.183Z" transform="translate(-416.599 -70.033)" fill="#dcc2ab"/>
      </g>
      <path id="Tracciato_112" data-name="Tracciato 112" d="M414.635,61.314a.884.884,0,1,1-.883-.883A.883.883,0,0,1,414.635,61.314Z" transform="translate(-370.876 -54.72)" fill="#c9a130"/>
      <path id="Tracciato_113" data-name="Tracciato 113" d="M419.569,62.427a.884.884,0,1,1-.883-.885A.883.883,0,0,1,419.569,62.427Z" transform="translate(-364.102 -53.195)" fill="#c9a130"/>
      <path id="Tracciato_114" data-name="Tracciato 114" d="M418.125,70.687a.884.884,0,1,1-.885-.885A.883.883,0,0,1,418.125,70.687Z" transform="translate(-366.084 -41.854)" fill="#c9a130"/>
      <circle id="Ellisse_5" data-name="Ellisse 5" cx="0.884" cy="0.884" r="0.884" transform="translate(51.623 36.077)" fill="#c9a130"/>
      <path id="Tracciato_115" data-name="Tracciato 115" d="M416.53,62.126a.884.884,0,1,1-.883-.883A.885.885,0,0,1,416.53,62.126Z" transform="translate(-368.274 -53.606)" fill="#c9a130"/>
      <g id="Raggruppa_92" data-name="Raggruppa 92" transform="translate(9.78 6.925)">
        <path id="Tracciato_116" data-name="Tracciato 116" d="M404.781,68.763c-.845,3.951-2.66,6.913-4.058,6.614s-1.849-3.745-1-7.7,2.66-6.913,4.058-6.614S405.624,64.809,404.781,68.763Z" transform="translate(-399.294 -60.8)" fill="#c9a130"/>
        <g id="Raggruppa_87" data-name="Raggruppa 87" transform="translate(0.833)">
          <path id="Tracciato_117" data-name="Tracciato 117" d="M399.94,77.213a.309.309,0,0,1-.29-.358L403,61.176a.3.3,0,0,1,.351-.228.3.3,0,0,1,.228.351l-3.348,15.679A.3.3,0,0,1,399.94,77.213Z" transform="translate(-399.645 -60.943)" fill="#210b04"/>
        </g>
        <g id="Raggruppa_88" data-name="Raggruppa 88" transform="translate(1.54 2.665)">
          <path id="Tracciato_118" data-name="Tracciato 118" d="M401.664,65.33a.293.293,0,0,1-.261-.157L399.977,62.5a.3.3,0,0,1,.123-.4.3.3,0,0,1,.4.121l1.424,2.672a.3.3,0,0,1-.121.4A.306.306,0,0,1,401.664,65.33Z" transform="translate(-399.942 -62.066)" fill="#210b04"/>
        </g>
        <g id="Raggruppa_89" data-name="Raggruppa 89" transform="translate(0.437 5.735)">
          <path id="Tracciato_119" data-name="Tracciato 119" d="M401.788,66.323a.306.306,0,0,1-.228-.1l-2.012-2.371a.3.3,0,0,1,.033-.42.306.306,0,0,1,.42.033l2.015,2.373a.3.3,0,0,1-.228.489Z" transform="translate(-399.478 -63.359)" fill="#210b04"/>
        </g>
        <g id="Raggruppa_90" data-name="Raggruppa 90" transform="translate(2.689 5.493)">
          <path id="Tracciato_120" data-name="Tracciato 120" d="M400.724,65.347a.3.3,0,0,1-.147-.555l2.653-1.5a.3.3,0,0,1,.292.517l-2.653,1.5A.321.321,0,0,1,400.724,65.347Z" transform="translate(-400.427 -63.257)" fill="#210b04"/>
        </g>
        <g id="Raggruppa_91" data-name="Raggruppa 91" transform="translate(1.774 10.337)">
          <path id="Tracciato_121" data-name="Tracciato 121" d="M400.337,67.172a.291.291,0,0,1-.261-.159.3.3,0,0,1,.121-.4l2.425-1.277a.3.3,0,1,1,.278.522l-2.423,1.279A.306.306,0,0,1,400.337,67.172Z" transform="translate(-400.041 -65.299)" fill="#210b04"/>
        </g>
      </g>
      <g id="Raggruppa_93" data-name="Raggruppa 93" transform="translate(22.393 22.932)">
        <path id="Tracciato_122" data-name="Tracciato 122" d="M406.231,74.785q-2.25-5.542-1.379-6.087.555-.349,2.387,1.346c.116-1.471.985-2.4,1.63-2.354.731.05,1.457,1.36,1.2,2.354a1.625,1.625,0,0,1-.237.5c.249-.19,2.024-1.547,2.489-1.141s-.683,2.411-.807,2.622a10.1,10.1,0,0,1-2.741,3.042Z" transform="translate(-404.608 -67.688)" fill="#f6ada5"/>
        <ellipse id="Ellisse_6" data-name="Ellisse 6" cx="1.82" cy="1.735" rx="1.82" ry="1.735" transform="translate(1.084 5.897)" fill="#c9a130"/>
      </g>
    </g>
    <path id="Tracciato_123" data-name="Tracciato 123" d="M415.856,58.154a10.668,10.668,0,0,0-2.152,1.509c-4.461,4.051-4.931,11.673-4.836,33.016.007,1.747.031,6.168-2.862,9.616a11.024,11.024,0,0,1-2.169,1.97q-.7-.822-1.4-1.649l-3.011,1.075a13.622,13.622,0,0,0,2.644-2.632A15.8,15.8,0,0,0,405,92.542c1.151-14.236-.648-22.622,3.984-31.137.427-.783.814-1.4,1.054-1.763Z" transform="translate(5.837 4.741)" fill="#db470f"/>
    <g id="Raggruppa_95" data-name="Raggruppa 95" transform="translate(435.69 54.701)">
      <path id="Tracciato_124" data-name="Tracciato 124" d="M414.365,73.5a9.265,9.265,0,1,0,1.251-13.042A9.265,9.265,0,0,0,414.365,73.5Zm12.2-10.064a6.55,6.55,0,1,1-9.219-.885A6.548,6.548,0,0,1,426.562,63.439Z" transform="translate(-412.246 -49.706)" fill="#c9a130"/>
      <path id="Rettangolo_7" data-name="Rettangolo 7" d="M0,0H3.022a0,0,0,0,1,0,0V18.375a.572.572,0,0,1-.572.572H.573A.573.573,0,0,1,0,18.375V0A0,0,0,0,1,0,0Z" transform="translate(15.898 14.383) rotate(-129.497)" fill="#c9a130"/>
    </g>
  </g>
</svg>
