<svg xmlns="http://www.w3.org/2000/svg" width="96.013" height="172.253" viewBox="0 0 96.013 172.253">
  <path id="Giraffe" d="M94.86,133.386a10.592,10.592,0,0,0,.073-1.127,30.108,30.108,0,0,0-.139-3.449,54.886,54.886,0,0,0-.888-5.874c-.481-2.374-1.176-5.171-2.176-8.409a28.124,28.124,0,0,0-4.379-8.505,37.739,37.739,0,0,0-5.794-6.142,43.611,43.611,0,0,0-5.069-3.729c-1.329-.835-2.174-1.256-2.174-1.256q-.586-.432-1.2-.824T71.86,93.33q-.641-.349-1.311-.654t-1.367-.561q-.79-.279-1.625-.5t-1.71-.378q-.875-.158-1.785-.251t-1.852-.119l-5.178-.138-.251-.007c-.082,0-.162-.007-.243-.012s-.161-.013-.243-.022-.165-.022-.251-.037c-.136,0-.275-.011-.417-.021s-.285-.024-.43-.042-.292-.038-.44-.062-.3-.051-.445-.081a30.665,30.665,0,0,1-3.255-.742c-1.124-.318-2.277-.7-3.435-1.153s-2.325-.96-3.472-1.528-2.276-1.191-3.362-1.864c-1.325-.827-2.782-1.732-4.224-2.7a45.3,45.3,0,0,1-4.132-3.078,17.534,17.534,0,0,1-3.142-3.358,6.366,6.366,0,0,1-1.248-3.535l-.151-1.832L26.479,51.89l-.2-2.482-.05-1.078-.371-4.812.321-.276q.161-.137.325-.271t.334-.263q.17-.129.349-.253l.151-.115.151-.115.151-.115.151-.114a7.088,7.088,0,0,0,1.09-1.173,7.579,7.579,0,0,0,.825-1.416,8.025,8.025,0,0,0,.523-1.611,8.46,8.46,0,0,0,.183-1.757v-10.9c0-.094,0-.191-.009-.289s-.013-.2-.023-.3-.02-.194-.032-.286-.024-.18-.037-.262a5.315,5.315,0,0,0-.1-.55,5.233,5.233,0,0,0-.155-.517q-.09-.251-.2-.489t-.244-.466q-.049-.087-.1-.173t-.107-.169q-.055-.083-.112-.165t-.117-.161l.119-.007.119,0h.121l.123,0c.085,0,.172.01.262.018l.279.024.3.025c.1.008.214.015.329.021.219.011.459.017.725.011s.559-.022.884-.056.684-.084,1.082-.157.835-.168,1.318-.292a6.078,6.078,0,0,0,3.1-1.923,8.135,8.135,0,0,0,1.535-2.823,12.165,12.165,0,0,0,.522-2.552,9.821,9.821,0,0,0,.053-1.111,4.133,4.133,0,0,1-.77.418,4.335,4.335,0,0,1-.8.24,5.534,5.534,0,0,1-.826.1,8.442,8.442,0,0,1-.853-.006c-.265-.014-.533-.038-.8-.066s-.547-.062-.825-.1-.56-.067-.844-.1-.572-.054-.862-.069c-.258-.014-.518-.02-.781-.016s-.527.019-.793.047a7.319,7.319,0,0,0-.805.131,6.741,6.741,0,0,0-.816.235,5.73,5.73,0,0,0-1.162.574,7.109,7.109,0,0,0-1.009.787,9.149,9.149,0,0,0-.861.925,11.575,11.575,0,0,0-.717.986c-.016-.056-.032-.113-.048-.169s-.032-.112-.048-.168-.031-.113-.045-.171-.028-.116-.04-.176a9.609,9.609,0,0,1-.15-2.347,19.956,19.956,0,0,1,.3-2.565c.15-.852.34-1.682.534-2.432s.392-1.419.558-1.95a.944.944,0,0,0,.138-.052,1.084,1.084,0,0,0,.143-.08A1.305,1.305,0,0,0,28,6.36a1.651,1.651,0,0,0,.148-.151,2.979,2.979,0,0,0,.559-1A4.858,4.858,0,0,0,28.949,4a4.308,4.308,0,0,0-.055-1.146,1.738,1.738,0,0,0-.348-.81.725.725,0,0,0-.088-.086.541.541,0,0,0-.089-.06.45.45,0,0,0-.09-.036.434.434,0,0,0-.09-.015.632.632,0,0,0-.284.06,2.156,2.156,0,0,0-.276.151c-.09.055-.177.111-.261.152a.5.5,0,0,1-.24.062A.263.263,0,0,1,27,2.228a.334.334,0,0,1-.06-.049.488.488,0,0,1-.057-.072,1.678,1.678,0,0,0-.188-.237,1.482,1.482,0,0,0-.224-.194,1.162,1.162,0,0,0-.25-.134.883.883,0,0,0-.265-.059.757.757,0,0,0-.219.019.786.786,0,0,0-.216.088,1,1,0,0,0-.209.165,1.5,1.5,0,0,0-.2.251,2.369,2.369,0,0,0-.32.9,5.815,5.815,0,0,0-.078,1.184,5.385,5.385,0,0,0,.151,1.141A1.757,1.757,0,0,0,25.232,6c-.037.643-.113,1.619-.271,2.751a27.3,27.3,0,0,1-.76,3.688,14.261,14.261,0,0,1-1.5,3.564,6,6,0,0,1-2.494,2.377,7.057,7.057,0,0,1-2.5-2.585,15.791,15.791,0,0,1-1.544-3.66,28.671,28.671,0,0,1-.814-3.742c-.176-1.151-.268-2.149-.316-2.83l.013-.007.012-.005.012-.006.013-.007a1.509,1.509,0,0,0,.39-.733,5.165,5.165,0,0,0,.17-1.14,6.206,6.206,0,0,0-.059-1.213,2.779,2.779,0,0,0-.3-.953,1.784,1.784,0,0,0-.2-.278,1.207,1.207,0,0,0-.214-.192.918.918,0,0,0-.222-.114.823.823,0,0,0-.224-.045A.879.879,0,0,0,14.162.9a1.061,1.061,0,0,0-.248.1,1.274,1.274,0,0,0-.223.154,1.393,1.393,0,0,0-.187.2.42.42,0,0,1-.06.068.3.3,0,0,1-.063.044.249.249,0,0,1-.066.023.266.266,0,0,1-.068,0A.574.574,0,0,1,13.01,1.4c-.083-.046-.17-.107-.258-.167a2.524,2.524,0,0,0-.273-.168A.722.722,0,0,0,12.2.982a.434.434,0,0,0-.093,0,.426.426,0,0,0-.094.026.494.494,0,0,0-.094.051.655.655,0,0,0-.093.079,1.409,1.409,0,0,0-.352.752,4.239,4.239,0,0,0-.056,1.15,5.308,5.308,0,0,0,.25,1.259,3.446,3.446,0,0,0,.565,1.079c.042.052.083.1.123.14s.08.08.119.114a1.338,1.338,0,0,0,.116.09,1.12,1.12,0,0,0,.113.068c.165.553.36,1.248.551,2.022s.377,1.627.524,2.5a20.872,20.872,0,0,1,.289,2.6,9.523,9.523,0,0,1-.155,2.336c-.011.055-.023.108-.036.16s-.027.1-.041.155l-.043.153c-.015.051-.029.1-.043.153-.217-.351-.457-.706-.721-1.053a10.676,10.676,0,0,0-.864-1.006,8.351,8.351,0,0,0-1.012-.886,6.633,6.633,0,0,0-1.165-.692,7.585,7.585,0,0,0-.829-.325,8,8,0,0,0-.82-.219c-.272-.058-.541-.1-.81-.133s-.534-.054-.8-.068c-.3-.016-.591-.022-.882-.023s-.58,0-.865.006-.567.008-.846.007-.554-.006-.825-.02c-.3-.016-.587-.043-.873-.086a5.984,5.984,0,0,1-.844-.19,4.844,4.844,0,0,1-.813-.33A4.722,4.722,0,0,1,0,10.345a9.894,9.894,0,0,0,.047,1.132A12.856,12.856,0,0,0,.567,14.12,9.226,9.226,0,0,0,2.125,17.14a7.086,7.086,0,0,0,3.16,2.265c.5.175.946.316,1.354.431s.776.2,1.109.269.632.114.9.147.515.052.737.063c.117.006.228.01.335.012l.306.005.283,0c.091,0,.179,0,.266.009l.128.008.126.012.124.016.124.02a5.744,5.744,0,0,0-1.014,1.868,5.878,5.878,0,0,0-.182.72.62.62,0,0,1-.008.089c0,.032-.011.065-.017.1s-.013.067-.017.1a.641.641,0,0,0-.008.09c0,.067,0,.131-.008.194s-.011.123-.017.183-.013.121-.017.183-.008.126-.008.194V35.1a8.712,8.712,0,0,0,.714,3.454,8.518,8.518,0,0,0,.835,1.5,8.114,8.114,0,0,0,1.1,1.275l.154.128.153.129.153.129.153.129.255.206q.127.1.253.211t.251.216q.125.109.248.22l-.244,6.094L13.2,64.977v.216l-.254,6.638-.916,22.833-.152,3.618s0,.081,0,.235,0,.38.006.671.008.645.015,1.056.016.877.029,1.391c-.013,1.216-.019,3.375.058,6.019s.238,5.772.56,8.926a61.432,61.432,0,0,0,1.523,9.078,16.093,16.093,0,0,0,2.946,6.474l.559,35.938v.053h0l.1,4.1,3.5-.006.049-4.094h0v-.053l.456-29.039c.19.446.393.879.607,1.294s.44.813.678,1.188a12.4,12.4,0,0,0,.743,1.057,9.313,9.313,0,0,0,.8.9l.556,24.6.1,4.142,3.482-.006.051-4.137.6-37.991s.17-.045.464-.155a10.414,10.414,0,0,0,1.2-.548,12.379,12.379,0,0,0,1.665-1.065,12.959,12.959,0,0,0,1.846-1.7q.414.146.809.292l.776.286.748.276q.368.134.725.26c1.138.417,2.292.8,3.446,1.143s2.309.641,3.453.889,2.273.447,3.379.586a28.853,28.853,0,0,0,3.228.233c.285,0,.573.007.863.009s.581,0,.872,0,.582-.009.871-.02.577-.027.861-.05q.206-.011.41-.026l.407-.032.405-.035.4-.036a15.625,15.625,0,0,0,5.265,4.284,14.2,14.2,0,0,0,1.921.8,7.818,7.818,0,0,0,.755.214,35.7,35.7,0,0,0,1.852,7.348,44.869,44.869,0,0,0,2.681,5.947,45.8,45.8,0,0,0,2.41,3.978c.637.935,1.046,1.45,1.046,1.45l.733,13.661.2,4.073,3.463-.006.192-4.013,0,0v-.052l.73-16.857a14.229,14.229,0,0,1-2.928-3.369,16.207,16.207,0,0,1-1.6-3.365,16.725,16.725,0,0,1-.663-2.586,10.194,10.194,0,0,1-.131-1.034c.11-.171.22-.339.329-.506s.218-.333.325-.5.212-.337.315-.51.2-.351.3-.535a38.718,38.718,0,0,0,2.017,6.227,45.83,45.83,0,0,0,2.434,4.958c.791,1.394,1.518,2.509,2.047,3.275s.86,1.183.86,1.183l.728,13.619v.052l0,0,.191,4.007,3.442-.006.191-4h0v-.052l.726-16.806a14.17,14.17,0,0,1-2.91-3.359,16.167,16.167,0,0,1-1.586-3.355,16.728,16.728,0,0,1-.658-2.579,10.2,10.2,0,0,1-.13-1.031,25.159,25.159,0,0,0,3.961-9.543,42.635,42.635,0,0,0,.767-9.81,57.582,57.582,0,0,0-.758-7.671c-.323-1.931-.622-3.1-.622-3.1-.014-.058-.03-.116-.046-.173s-.032-.114-.049-.171l-.05-.17c-.016-.057-.032-.114-.047-.171s-.029-.112-.045-.168-.031-.111-.047-.166l-.048-.166-.048-.166q-.044-.157-.088-.315t-.088-.315q-.044-.157-.09-.313t-.1-.31q-.077-.243-.157-.484t-.164-.479q-.083-.238-.17-.474t-.176-.469c.449.55.952,1.178,1.48,1.853s1.081,1.4,1.628,2.14,1.091,1.5,1.6,2.255.983,1.494,1.393,2.2a18.75,18.75,0,0,1,1.7,4.814c.461,1.933.823,4.077,1.1,6.076s.47,3.853.594,5.208.178,2.209.178,2.209-.039.035-.079.069-.091.077-.151.132-.13.122-.2.2-.156.17-.24.274a4.488,4.488,0,0,0-.359.6,4.636,4.636,0,0,0-.3.775,4.883,4.883,0,0,0-.178.955,5.548,5.548,0,0,0,.022,1.134,6.716,6.716,0,0,0,.6,2.178,4.232,4.232,0,0,0,.907,1.249,3.259,3.259,0,0,0,.826.567,1.894,1.894,0,0,0,.36.134,3.774,3.774,0,0,0,1.385-1.093,4.946,4.946,0,0,0,.749-1.349,6.31,6.31,0,0,0,.307-1.146,4.523,4.523,0,0,0,.059-.484,7.963,7.963,0,0,0-.18-1.731,5.951,5.951,0,0,0-.4-1.2,4.256,4.256,0,0,0-.4-.695A2.019,2.019,0,0,0,94.86,133.386Z" fill="#3f1315"/>
</svg>
