<svg xmlns="http://www.w3.org/2000/svg" width="214.016" height="44.7" viewBox="0 0 214.016 44.7">
  <path id="nuvola_sx" data-name="nuvola sx" d="M60.6.09l-5.36.1L44.891.641l-9.864.565-8.987.68-7.761.566-5.859.686-5.25.575-.43,1.73-.954,4.724-.516,3.108-.6,3.442L4.245,20.5l-.3,3.775L3.778,28.15l.189,3.642.092,1.818.206,1.7L4.583,36.9l.427,1.471.418,1.355.652,1.244L6.715,42.1l.859.9.836.673,1.067.561,1.165.333,1.39.107,2.875-.014,3.595-.246,9.006-.832,10.576-1.061,11.64-1.286,11.746-1.174L72.951,39l5.364-.471,4.881-.356,4.513-.245,6.124-.024,1.967.105,4.528.1,6.106.085,10.577-.151,11.862-.38,12.162-.606,11.638-.71,5.255-.465,4.889-.458,4.158-.571,3.564-.457,2.6-.561.937-.336.695-.334.46-.222.22-.337-.007-.107-.136-.224-.5-.331-.985-.437-1.221-.329-1.342-.333-1.453-.216-3.373-.211-3.73-.1-7.444.243-7.828.136-4.72-.1-2.182-.1-2.194-.22-2.076-.215-1.965-.33-1.853-.443-1.754-.665-.747-.219-.391-.335-.009-.113.114-.114.336-.336.72-.115.95-.225,2.887-.343,3.87-.122L143,26.572l11.347-.14,17.2-.04,17.121.072,9.421-.022,7.714-.242,2.84-.227,2.243-.224,1.523-.34.35-.109.222-.225-.012-.219-.006-.112-.373-.332-.6-.219-.851-.33-2.4-.44-3.117-.438-3.706-.326-4.19-.325L188.5,21.8l-9.362-.318-8.175-.213-7.96-.21,1.774-.45,1.526-.559.82-.337.582-.336.576-.335.208-.449.106-.227-.015-.222-.137-.222-.255-.226-.631-.444-1.119-.448-1.594-.447-2.206-.448-2.92-.333-3.783-.448-9.512-.892-11.246-.784-11.763-.672-20.552-1.013-8.909-.453,3.667-.341,2.912-.455,2.286-.565,1.549-.571.6-.226.458-.34.339-.341.219-.34.1-.23.094-.341-.03-.34-.155-.341-.418-.567-.664-.572-.788-.568-.66-.456-1.413-.685-.515-.226-1.655-.575-1.766-.455-3.781-.8-4.137-.579L85.686.93,81.054.465,76.06.225,70.949.106Z" fill="rgba(255,255,255,0.12)"/>
</svg>
