<svg xmlns="http://www.w3.org/2000/svg" width="251.806" height="29.188" viewBox="0 0 251.806 29.188">
  <path id="nuvola_cx" data-name="nuvola cx" d="M162.733,2.89l-1.866.085-3.969.512-3.861.634-3.508.64-3.164.765-2.459.659-2.228.663-.236-.236-.464-.241-.705-.249-.935-.249-1.4-.256-1.763-.268-4.461-.077-2.586.074-2.941.3-3.3.3-4.477.508-3.774.645-5.784,1.072-2.244.434-2.129.316-1.892.206-2.13.079-2.488-.156-2.852-.4-3.092-.523-2.617-.282-2.382-.155-3.809-.064-1.428.091-1.548.093.477-.111.233-.231.119-.117,0-.353-.243-.473-.368-.48-.724-.6-.36-.241-.477-.243-.6-.01-.6-.13L76.144,4.9l-1.67.326-1.781.558-1.669.446L67.694,7.36l-1.429.331-1.194.215-2.394.08-3.111.3L57.173,8.6l-3.113.422-3.946.644-5.15.98-2.512.554-1.795.56-1.31.453-.832.457-.349.468-.226.471.126.356.253.359.5.716.128.241-.116.233-.354.228-.719.108-1.2.1-1.8.087-1.8.092-1.443.1-.839.221-.6.23-.354.23.007.234.255.358.368.245,1.224.607,1.336.494,1.454.375.006.235-.11.237-.355.228-.72.224-.958.105-2.766.2-17.407-.257-4.236.172-1.934.207-1.693.215L2.611,21l-1.194.456-.478.228L.82,21.8l0,.12.132.236.61.129,2.071.145L6.8,22.6H15.15l10.5-.2,11.673-.183,11.757.052,6.466.213,5.86.323,5.253.427,2.268.266,2.031.379,3.814.638,3.806.409,3.8.285,3.673.17,3.55-.068,3.547-.068,6.844-.251,6.359-.376,3.173-.068,6.344.091,3.17.394,5.041.767,4.094.523,3.738.4,3.5.162,2.8-.074,3.03-.191,3.377-.3,3.836-.4,1.631-.211,1.74-.092,3.485-.063,3.825.167,3.933.29,8.539.928,4.6.521,4.946.414,5.166.3,5.5.193,3.666.051,3.782-.178,16.79-.567,14.556-.478,14.04-.368,2.709-.077,1.926-.2,1.14-.324.343-.11.232-.223.009-.23.008-.225-.549-.35-.883-.469-1.111-.474-2.792-.952-2.907-.843-3.147-.732-30.112-1.488,1.38-.323,1.27-.442.692-.222.466-.337.47-.45.235-.341.128-.46-.219-.464-.443-.58-.9-.593-1.13-.592-1.7-.718-1.477-.487-1.478-.486-1.6-.256-1.487-.258-3.205-.4-3.1-.164-2.3.075-2.077.083L189.355,13l-2.425.308-.927.1-3.523-3.191-1.823-1.654-1.946-1.432-1.144-.718-1.038-.6-1.264-.607-1.27-.6-1.5-.495-1.505-.377-1.62-.378-1.745-.263-1.393-.143Z" fill="rgba(255,255,255,0.12)"/>
</svg>
