<svg xmlns="http://www.w3.org/2000/svg" width="176.517" height="25.081" viewBox="0 0 176.517 25.081">
  <path id="Nuvola_dx" data-name="Nuvola dx" d="M53.955,2.227l-1.6.179-1.6.177-1.5.308L47.874,3.2l-1.287.442-1.173.448-.83.461-2.514,1.5-2.858,1.61-1.422.683-1.284.442-1.287.443-1.142.078-.225-.009-.442-.143-1.366.069-1.493.184-1.738.425-1.737.42-1.525.558-1.413.559-.841.586-.25.236-.135.239-.021.249.095.25.413.512.535.391.658.272,1.216.418.554.147-3.4-.012-7.741.06-4.451.066-4.235.2-3.456.358L1.8,15.672l-.933.213-.6.347-.134.24-.01.125.106.125.333.138.78.276,1.117.294,1.585.188,4.177.536,5.215.327,6.109.365,13.774.669,23.588.931,3.255,0,2.8-.012,2.479-.145,2.255-.154,3.973-.58,3.754-.7,3.965-.579,2.374-.272,2.591-.263,3.02-.121,3.353-.108,3.889.033,4.548.059,5.069.327,15.838.76,16.084.764,14.928.6,12.275.375,11.472.339-5.047-.447L158.5,19.146l-6.021-.723-5.276-.7-2.137-.449-1.716-.315-1.049-.407-.313-.13-.078-.249-.207-.127-.41-.262-1.5-.3-2.27-.337-3.034-.366-7.532-.55-8.53-.714-8.677-.6-7.475-.674L99.2,11.993l-2.3-.343-1.511-.43-.432-.142-.207-.128-.087-.251-.2-.252-.861-.279-1.2-.3-1.445-.06H87.943l-3.363.1-3.254.114L69.607,9.546l-2.113-.212-1.768-.318-1.445-.184-.762-.275L63.434,8.3l-.1-.129.159-.483.382-.479.281-.6.137-.244L64.325,6l-.079-.373-.188-.378-.415-.387-.529-.393-.736-.526-.98-.412-1.3-.551-1.427-.431-1.452-.182Z" fill="rgba(255,255,255,0.12)"/>
</svg>
