<svg xmlns="http://www.w3.org/2000/svg" width="777.423" height="252.727" viewBox="0 0 777.423 252.727">
  <g id="Raggruppa_147" data-name="Raggruppa 147" transform="translate(-361.944 -427.152)">
    <g id="Sfumatura_1" data-name="Sfumatura 1" transform="translate(572.927 427.152)" fill="#eb4555" stroke-miterlimit="10">
      <path d="M397.922,85.334l-10.6.461-10.716.471-10.846.209-10.843.2-22.293.158-22.665-.114-23.038-.4L263.4,86.058l-17.311-.343-17.325-.64-8.767-.4-8.7-.548-8.777-.7-8.565-.853-7.352-.923-7.265-1.08-7.306-1.085-7.07-1.245L150.7,75.584l-14.135-3L128.4,70.9l-8.222-1.84-16.3-3.88-16.039-4.09L71.612,56.955,55.19,52.623,38.572,48.531,21.266,44.41l-8.731-2L3.422,40.394l7.489-1.115,7.607-1.112,15.051-2.05,15.02-1.59L63.716,33.1l14.935-1.261,14.742-1.1,29.065-1.875L185.8,24.81,216.074,23l14.762-.745,14.7-.6,12.831-.289,12.8-.423,6.275-.276,6.225-.4,6.064-.4,6.148-.532,8.193-1.1,8-1.223,7.79-1.469,7.858-1.328,7.664-1.446,7.743-1.175,7.685-1.042,3.888-.454,4-.326,6.085-.49,29.917-.531,5.89-.231,5.834-.477,7-.746,6.941-.861,6.906-.73,3.492-.306,3.481-.3,3.258-.178,3.265-.053,6.612.017,6.592.257,6.454.38,13.011.865,6.318.251,6.371.13,7.437-.131,7.238-.488,7.267-.6,7-.711,34.567-3.585,6.8-.733q-3.237,8.457-7.021,17.31-3.812,8.91-8.213,18.249-4.436,9.4-9.507,19.274-5.114,9.945-10.915,20.4l-2.811-.071-7.755-.071-7.787.177-7.734.292-7.879.552-7.81.8-7.877.8-15.911,2-8.177.96-8.138.956-10.012.94-10.227.957-10.363.71Z" stroke="none"/>
      <path d="M 408.3363647460938 85.25242614746094 L 408.3338012695312 85.25258636474609 L 408.3314514160156 85.25276184082031 L 397.9644470214844 85.83575439453125 L 397.9618835449219 85.83591461181641 L 397.9594116210938 85.83602142333984 L 387.3580932617188 86.29995727539062 L 376.6414489746094 86.77344512939453 L 376.6363525390625 86.77372741699219 L 376.6312561035156 86.77374267578125 L 365.784423828125 86.98567199707031 L 354.9399719238281 87.19241333007812 L 354.9374389648438 87.19245910644531 L 354.9348754882812 87.19248962402344 L 332.6395874023438 87.35540771484375 L 332.6369323730469 87.35533142089844 L 332.63427734375 87.35537719726562 L 309.9660034179688 87.24725341796875 L 309.963134765625 87.24729919433594 L 309.9604187011719 87.24727630615234 L 286.9197387695312 86.85742950439453 L 263.3957824707031 86.59396362304688 L 246.0786590576172 86.25477600097656 L 246.0743255615234 86.25467681884766 L 246.0701141357422 86.25458526611328 L 228.7425079345703 85.61858367919922 L 219.9704284667969 85.22508239746094 L 219.9658813476562 85.22492218017578 L 219.9612731933594 85.22470092773438 L 211.2598419189453 84.6783447265625 L 211.2556304931641 84.67810821533203 L 211.2513885498047 84.67778778076172 L 202.4726257324219 83.98338317871094 L 202.4673614501953 83.98297882080078 L 202.4620056152344 83.98242950439453 L 193.8958129882812 83.13079833984375 L 193.8890075683594 83.13016510009766 L 193.8823089599609 83.12925720214844 L 186.5292816162109 82.20773315429688 L 186.5232849121094 82.20700073242188 L 186.5172271728516 82.20606231689453 L 179.2505950927734 81.12772369384766 L 171.9432525634766 80.04385375976562 L 171.9359283447266 80.04280090332031 L 171.9287109375 80.04161834716797 L 164.8572998046875 78.79750061035156 L 164.8545074462891 78.79704284667969 L 164.8516845703125 78.79645538330078 L 150.5848388671875 76.13433837890625 L 150.5781860351562 76.13303375244141 L 150.571533203125 76.13166809082031 L 136.4333190917969 73.137939453125 L 128.2734375 71.45325469970703 L 128.2688293457031 71.45235443115234 L 128.2642211914062 71.45130920410156 L 120.0405044555664 69.61228179931641 L 120.0367279052734 69.61142730712891 L 120.0329742431641 69.61048889160156 L 103.7281341552734 65.73329925537109 L 103.7235641479492 65.73223114013672 L 103.7190017700195 65.73110198974609 L 87.67543792724609 61.64369964599609 L 71.44416046142578 57.50996398925781 L 55.01930618286133 53.18080902099609 L 38.40091323852539 49.09203338623047 L 21.09512901306152 44.97494888305664 L 12.36685752868652 42.97430038452148 L 3.256729125976562 40.96485900878906 L 0.1773833036422729 40.28566741943359 L 3.341013193130493 39.81543731689453 L 10.82980155944824 38.70221328735352 L 18.43808746337891 37.59148406982422 L 18.44130516052246 37.5910758972168 L 18.4445915222168 37.5905876159668 L 33.49504089355469 35.54427337646484 L 33.50473785400391 35.54291534423828 L 33.51461029052734 35.5419807434082 L 48.53379058837891 33.95620346069336 L 48.53744125366211 33.95572662353516 L 48.54115676879883 33.95538711547852 L 63.66615295410156 32.53249359130859 L 63.66924285888672 32.5322380065918 L 63.67233276367188 32.53190994262695 L 78.60579681396484 31.27526473999023 L 78.60884094238281 31.27507972717285 L 78.61195373535156 31.27482604980469 L 93.3526611328125 30.18126487731934 L 93.35568237304688 30.18108940124512 L 93.35858917236328 30.18091011047363 L 122.4209976196289 28.31284141540527 L 185.7537994384766 24.27324295043945 L 216.0310363769531 22.47271156311035 L 230.7967681884766 21.73090744018555 L 245.5008392333984 21.13186264038086 L 245.5054321289062 21.13168907165527 L 245.5099945068359 21.13157844543457 L 258.3346252441406 20.84595108032227 L 271.1268005371094 20.42593574523926 L 277.3969116210938 20.15213775634766 L 283.6139221191406 19.75098991394043 L 289.6719360351562 19.35379028320312 L 295.8036193847656 18.82486534118652 L 303.9838256835938 17.72700691223145 L 311.9653625488281 16.50809669494629 L 319.748291015625 15.04231262207031 L 319.75244140625 15.04153823852539 L 319.7565002441406 15.0409460067749 L 327.6107482910156 13.71570491790771 L 335.2704772949219 12.27268028259277 L 335.2779846191406 12.27121543884277 L 335.2855529785156 12.27005958557129 L 343.0282897949219 11.09675884246826 L 343.0315856933594 11.09624862670898 L 343.0349426269531 11.09573936462402 L 350.7193908691406 10.05589771270752 L 350.7232666015625 10.05544948577881 L 350.7271118164062 10.05506420135498 L 354.6146240234375 9.601972579956055 L 354.621826171875 9.601144790649414 L 354.6290893554688 9.600500106811523 L 358.6250305175781 9.275043487548828 L 364.7103881835938 8.786272048950195 L 364.7233276367188 8.785183906555176 L 364.7363586425781 8.784945487976074 L 394.6457214355469 8.260987281799316 L 400.5244750976562 8.032052040100098 L 406.3429260253906 7.557490825653076 L 413.3417358398438 6.813724517822266 L 420.2763977050781 5.955343723297119 L 420.2797546386719 5.954861640930176 L 420.2831726074219 5.954556465148926 L 427.1887817382812 5.225907325744629 L 427.1919860839844 5.225515842437744 L 427.1954040527344 5.225271701812744 L 430.6871643066406 4.920105934143066 L 434.1684875488281 4.620358943939209 L 434.1742858886719 4.6199049949646 L 434.1802673339844 4.619657039642334 L 437.4382629394531 4.442885875701904 L 437.4453125 4.442460536956787 L 437.4525451660156 4.442356586456299 L 440.7168579101562 4.39024829864502 L 440.7203063964844 4.39021110534668 L 440.7237854003906 4.39020299911499 L 447.3346862792969 4.408663749694824 L 447.341552734375 4.408706665039062 L 447.3483276367188 4.408953666687012 L 453.9398803710938 4.666939735412598 L 453.9435729980469 4.667047023773193 L 453.9472961425781 4.667357444763184 L 460.4000854492188 5.048521041870117 L 473.4082336425781 5.916067123413086 L 479.7168884277344 6.168382167816162 L 486.0770874023438 6.300055027008057 L 493.4981689453125 6.171394348144531 L 500.7274475097656 5.686175346374512 L 500.7274475097656 5.686175346374512 L 507.985107421875 5.09311580657959 L 514.9799194335938 4.38394832611084 L 549.5452880859375 0.8084069490432739 L 556.3408813476562 0.07686323672533035 L 557.0543212890625 2.741064599831589e-05 L 556.76953125 0.7444470524787903 C 555.6782836914062 3.597243547439575 554.54150390625 6.480878353118896 553.361328125 9.390593528747559 C 552.1775512695312 12.30903053283691 550.949951171875 15.25392913818359 549.6803588867188 18.22067260742188 C 548.4067993164062 21.1964282989502 547.0909423828125 24.19436454772949 545.7347412109375 27.20967674255371 C 544.3740234375 30.23452377319336 542.9725952148438 33.27703475952148 541.5324096679688 36.33225631713867 C 540.0391845703125 39.49957275390625 538.4932250976562 42.70420074462891 536.8969116210938 45.94083023071289 C 535.2947998046875 49.18882751464844 533.6419067382812 52.4694709777832 531.9407348632812 55.7774772644043 C 530.2333374023438 59.09759521484375 528.4769287109375 62.4456672668457 526.6741333007812 65.816162109375 C 524.8646240234375 69.19941711425781 523.0082397460938 72.60562896728516 521.1077880859375 76.02935028076172 L 521.0000610351562 76.22321319580078 L 520.7957763671875 76.21813201904297 L 517.9879760742188 76.14810943603516 L 510.2405395507812 76.07939910888672 L 502.4568481445312 76.25822448730469 L 502.4568481445312 76.25816345214844 L 494.7325744628906 76.55178070068359 L 486.8644409179688 77.10464477539062 L 479.0592956542969 77.90214538574219 L 471.1864013671875 78.70737457275391 L 455.2782897949219 80.71431732177734 L 447.0974426269531 81.67635345458984 L 438.959228515625 82.63499450683594 L 438.9549560546875 82.63548278808594 L 438.9505310058594 82.63584136962891 L 428.9379272460938 83.57869720458984 L 418.7099304199219 84.53855895996094 L 418.7051086425781 84.53900909423828 L 418.7003784179688 84.53939819335938 L 408.3363647460938 85.25242614746094 Z M 397.8836669921875 84.83152770996094 L 408.2388610839844 84.25439453125 L 418.5981750488281 83.546875 L 428.8180847167969 82.59305572509766 L 438.8243713378906 81.65593719482422 L 446.9577026367188 80.70218658447266 L 455.1346740722656 79.74485778808594 L 471.041748046875 77.7464599609375 L 471.0458984375 77.74593353271484 L 471.0500793457031 77.7454833984375 L 478.9265747070312 76.94406890869141 L 486.7361755371094 76.150146484375 L 486.7416076660156 76.14957427978516 L 486.7470703125 76.14917755126953 L 494.6251831054688 75.59957122802734 L 494.6307373046875 75.59912109375 L 494.63623046875 75.59895324707031 L 502.369873046875 75.30888366699219 L 502.3724060058594 75.30872344970703 L 502.3749694824219 75.30862426757812 L 510.1617126464844 75.13359832763672 L 510.1671142578125 75.13350677490234 L 510.1725158691406 75.13358306884766 L 517.9263916015625 75.20610809326172 L 517.9290771484375 75.2061767578125 L 517.9318237304688 75.20624542236328 L 520.5385131835938 75.27243041992188 C 522.427734375 71.87021636962891 524.2730712890625 68.48548126220703 526.0720825195312 65.12357330322266 C 527.8643188476562 61.77426910400391 529.610595703125 58.447265625 531.3085327148438 55.14798355102539 C 533.000244140625 51.86066818237305 534.64404296875 48.60047149658203 536.2374267578125 45.37264633178711 C 537.8252563476562 42.15604782104492 539.3631591796875 38.97101593017578 540.848876953125 35.82291793823242 C 542.2568969726562 32.83895874023438 543.6279907226562 29.86717224121094 544.9599609375 26.9122371673584 C 546.2877807617188 23.96646118164062 547.5770263671875 21.03711128234863 548.8257446289062 18.1289005279541 C 550.07080078125 15.22936058044434 551.2756958007812 12.35042953491211 552.438720703125 9.496586799621582 C 553.5984497070312 6.651047706604004 554.7166137695312 3.830084323883057 555.79150390625 1.038319230079651 L 549.7091674804688 1.696216940879822 L 515.1389770507812 5.289956569671631 L 508.1409301757812 6.003048419952393 L 508.1376953125 6.003396987915039 L 508.1343994140625 6.00363302230835 L 500.8668823242188 6.601150512695312 L 500.8644714355469 6.601441860198975 L 500.8620300292969 6.601563930511475 L 493.6239624023438 7.090988159179688 L 493.6155395507812 7.091531753540039 L 493.6070861816406 7.091677188873291 L 486.1694030761719 7.224170207977295 L 486.1627502441406 7.224309921264648 L 486.1560363769531 7.224163055419922 L 479.7845458984375 7.095273971557617 L 479.7810974121094 7.095170974731445 L 479.7777404785156 7.095069885253906 L 473.4590454101562 6.845329761505127 L 473.4541625976562 6.84511661529541 L 473.4493713378906 6.844788074493408 L 460.436767578125 5.982905864715576 L 453.9916381835938 5.605124473571777 L 447.4056091308594 5.350428581237793 L 440.8046264648438 5.335174083709717 L 437.5503845214844 5.38869047164917 L 434.3058166503906 5.566239356994629 L 430.82958984375 5.867263317108154 L 427.3408508300781 6.173864364624023 L 420.4404296875 6.905477523803711 L 413.5040893554688 7.767707347869873 L 413.5008239746094 7.768135070800781 L 413.4974975585938 7.768444538116455 L 406.4940185546875 8.516359329223633 L 406.4893188476562 8.516855239868164 L 406.4846801757812 8.51717472076416 L 400.6496887207031 8.995981216430664 L 400.6415405273438 8.996675491333008 L 400.6331176757812 8.997010231018066 L 394.7429504394531 9.229266166687012 L 394.7386779785156 9.229404449462891 L 394.7344055175781 9.229483604431152 L 364.8268737792969 9.767950057983398 L 358.7548217773438 10.25874519348145 L 354.7651062011719 10.58572864532471 L 350.8919067382812 11.03913974761963 L 343.2101440429688 12.08256435394287 L 335.4788513183594 13.25829219818115 L 327.8223266601562 14.70494365692139 L 327.8182678222656 14.70565509796143 L 327.8142700195312 14.7063045501709 L 319.9595336914062 16.03580665588379 L 312.173583984375 17.50632858276367 L 312.1660461425781 17.50764274597168 L 312.1584167480469 17.5088939666748 L 304.1621398925781 18.73429679870605 L 304.1581420898438 18.73496246337891 L 304.1541137695312 18.73550224304199 L 295.9603881835938 19.8393611907959 L 295.9496154785156 19.84078598022461 L 295.9388122558594 19.84177017211914 L 289.7906799316406 20.37515068054199 L 289.7859497070312 20.37557601928711 L 289.7811279296875 20.37593841552734 L 283.7168273925781 20.77653121948242 L 277.4906616210938 21.18136596679688 L 277.4858093261719 21.18167114257812 L 277.4808044433594 21.18190956115723 L 271.2056579589844 21.45907020568848 L 271.203125 21.45915985107422 L 271.2005004882812 21.45925140380859 L 258.40234375 21.88570022583008 L 258.3998413085938 21.8857250213623 L 258.3972473144531 21.88581657409668 L 245.5699768066406 22.1777286529541 L 230.8718872070312 22.78369331359863 L 216.1128387451172 23.53243446350098 L 185.8371734619141 25.34786033630371 L 122.4950332641602 29.41971588134766 L 93.43246459960938 31.30227279663086 L 78.69377899169922 32.40294647216797 L 63.76123046875 33.66709136962891 L 48.63935852050781 35.09725570678711 L 33.63483810424805 36.68920516967773 L 18.59361267089844 38.74208831787109 L 10.99014186859131 39.85611724853516 L 6.657391548156738 40.50238800048828 L 12.69718456268311 41.83725357055664 L 21.43135261535645 43.8430290222168 L 38.73811340332031 47.96793365478516 L 55.35647964477539 52.06385803222656 L 55.36137771606445 52.06502914428711 L 55.36635208129883 52.06641387939453 L 71.78376770019531 56.40075302124023 L 88.00180053710938 60.53816604614258 L 104.0340042114258 64.62954711914062 L 120.3182067871094 68.50893402099609 L 128.5351104736328 70.35000610351562 L 136.6869812011719 72.03659820556641 L 150.8135528564453 75.03408813476562 L 165.0663909912109 77.69997406005859 L 172.1255645751953 78.94505310058594 L 179.4215393066406 80.03050231933594 L 186.6807403564453 81.11103820800781 L 194.0158081054688 82.03372192382812 L 202.5670623779297 82.88774871826172 L 211.3346405029297 83.58544158935547 L 220.0255737304688 84.13499450683594 L 228.7845306396484 84.53212738037109 L 246.0981597900391 85.17588043212891 L 263.4026184082031 85.52307891845703 L 286.9190673828125 85.79765319824219 L 309.9563598632812 86.19859313964844 L 309.9563598632812 86.19866180419922 L 332.6099548339844 86.31772613525391 L 354.8952026367188 86.165771484375 L 365.7351989746094 85.96442413330078 L 376.5726623535156 85.758056640625 L 387.2842712402344 85.29010009765625 L 397.8836669921875 84.83152770996094 Z" stroke="none" fill="rgba(0,0,0,0)"/>
    </g>
    <g id="obra_roccia_rossa" data-name="obra roccia rossa" transform="translate(384.928 548.375)" fill="rgba(76,20,15,0.12)" stroke-miterlimit="10">
      <path d="M4.962,88.725l11.453-3.114,30.979-7.865,30.8-7.538,15.291-3.743,15.32-3.211L134.5,58.023l25.489-4.939,50.661-9.261,25.064-4.582,24.765-5.047L272.8,31.428l12.149-2.753,12.108-3L309,22.453l15.456-4.278,15.255-4.746,15.053-5.222L369.6,2.778l20.746.146,21.679.13,10.741.319,10.719.555,10.692.794,10.55,1.052,10.287,1.777,5.077.893,5.069,1.14,3.3.914,3.3,1.17,3.3,1.161L488.236,14l3.046,1.414,2.805,1.666,2.672,1.658,2.426,1.923,2.177,1.918,1.922,1.932,1.549,2.181.65.973.526,1.215.4.979.271,1.232.148,1.225.14.985-.1,1.231-.235,1.245-.23,1.235-.487,1.241-.986,1.512-1.116,1.749-1.243,1.269-1.5,1.519-1.754,1.273-1.764,1.033-4.167,2.082-4.43,1.83-4.823,1.609-4.964,1.353-4.843,1.352L445.6,61.247l-28.974,6.472-29.366,6.534-29.624,6.335L327.75,86.72l-30.287,6.2-30.554,5.991-30.946,5.783-18.123,3.369L199.5,111.195l-18.418,2.881-9.421,1.055-9.316,1.064L144.4,117.752,126.264,118.8l-18.223,1.312-18.163,1.315L70.188,123.32,50.5,125.763l-19.815,2.729-11.473,1.74q-2.007-5.05-3.906-10.177t-3.679-10.315q-1.781-5.187-3.449-10.446T4.962,88.725Z" stroke="none"/>
      <path d="M 18.81205558776855 130.8634796142578 L 18.66693687438965 130.4983825683594 C 17.32039070129395 127.1102600097656 16.0101261138916 123.6931838989258 14.73823165893555 120.2534103393555 C 13.46792697906494 116.8180160522461 12.23593139648438 113.3601989746094 11.04430389404297 109.8861694335938 C 9.854170799255371 106.4167251586914 8.704372406005859 102.9310760498047 7.596882343292236 99.43552398681641 C 6.490859985351562 95.94461059570312 5.427065372467041 92.44384765625 4.407518863677979 88.93953704833984 L 4.23700475692749 88.35365295410156 L 4.873141765594482 88.18065643310547 L 16.32504272460938 85.06844329833984 L 16.33013534545898 85.06703948974609 L 16.33529663085938 85.06578063964844 L 47.31082916259766 77.20445251464844 L 78.11461639404297 69.66840362548828 L 93.40408325195312 65.92677307128906 L 93.41380310058594 65.92438507080078 L 93.42362976074219 65.92238616943359 L 108.7419891357422 62.7129020690918 L 134.4340209960938 57.48401260375977 L 159.9260864257812 52.54661178588867 L 159.9290924072266 52.54600143432617 L 159.9320831298828 52.54545974731445 L 210.5876007080078 43.28977203369141 L 235.6425018310547 38.71092987060547 L 260.3953552246094 33.66827011108398 L 272.7127990722656 30.90493202209473 L 284.8525695800781 28.15494537353516 L 296.9519348144531 25.16210556030273 L 308.88232421875 21.93934631347656 L 324.3255615234375 17.66661834716797 L 339.5629577636719 12.9275074005127 L 354.5999450683594 7.712806701660156 L 369.4401550292969 2.286153554916382 L 369.5297546386719 2.253388643264771 L 369.6240234375 2.253994941711426 L 390.3678588867188 2.4013352394104 L 412.0440673828125 2.532886266708374 L 412.0501098632812 2.532821893692017 L 412.0560607910156 2.53307056427002 L 422.7953491210938 2.852163553237915 L 422.8009338378906 2.852349519729614 L 422.8065185546875 2.852597951889038 L 433.5241088867188 3.407804489135742 L 433.5299072265625 3.408177375793457 L 433.535400390625 3.408487558364868 L 444.2261962890625 4.202883720397949 L 444.2324829101562 4.203380107879639 L 444.2388000488281 4.204001426696777 L 454.7872619628906 5.256141662597656 L 454.8050842285156 5.258064746856689 L 454.8227844238281 5.261049747467041 L 465.1080017089844 7.038371086120605 L 470.1861572265625 7.931904315948486 L 470.1977233886719 7.934013843536377 L 470.2091369628906 7.936500072479248 L 475.2778930664062 9.076057434082031 L 475.2899475097656 9.078727722167969 L 475.3017883300781 9.082019805908203 L 478.5997619628906 9.996369361877441 L 478.6166381835938 10.00109004974365 L 478.6330261230469 10.00693416595459 L 481.9330139160156 11.17650032043457 L 485.2313842773438 12.33678913116455 L 485.2350769042969 12.33803176879883 L 485.2386779785156 12.33940029144287 L 488.4102172851562 13.51080226898193 L 488.42919921875 13.51788806915283 L 488.4476013183594 13.52634906768799 L 491.4928283691406 14.94004726409912 L 491.5159301757812 14.9507474899292 L 491.5377197265625 14.96375846862793 L 494.3424377441406 16.6291332244873 L 494.3467407226562 16.63156318664551 L 494.3508911132812 16.63417816162109 L 497.0225830078125 18.29182052612305 L 497.0472106933594 18.30714225769043 L 497.0700988769531 18.32521820068359 L 499.4961547851562 20.24745178222656 L 499.5065002441406 20.25580787658691 L 499.5165710449219 20.26453971862793 L 501.693115234375 22.18198776245117 L 501.7056579589844 22.19297027587891 L 501.7175598144531 22.20489120483398 L 503.6398620605469 24.13636589050293 L 503.6699523925781 24.16671562194824 L 503.69482421875 24.20171546936035 L 505.2436828613281 26.38274002075195 L 505.2479553222656 26.38874244689941 L 505.2521057128906 26.39493751525879 L 505.9023742675781 27.3679256439209 L 505.9287414550781 27.40728187561035 L 505.9476928710938 27.45092582702637 L 506.47412109375 28.66616439819336 L 506.4766845703125 28.6722412109375 L 506.4792175292969 28.67844200134277 L 506.874267578125 29.65719604492188 L 506.8909301757812 29.69849395751953 L 506.9005432128906 29.74207878112793 L 507.171875 30.97371101379395 L 507.1774597167969 30.99899864196777 L 507.1805419921875 31.02466583251953 L 507.3280334472656 32.24350357055664 L 507.4671630859375 33.22323226928711 L 507.4756469726562 33.28322982788086 L 507.4706420898438 33.34358596801758 L 507.3683776855469 34.57458114624023 L 507.3659362792969 34.60245132446289 L 507.3609008789062 34.62995529174805 L 507.1258850097656 35.87449264526367 L 506.8961791992188 37.10808181762695 L 506.8867797851562 37.15842819213867 L 506.8681640625 37.20598220825195 L 506.3818054199219 38.44705581665039 L 506.3617858886719 38.49792098999023 L 506.3321533203125 38.54347610473633 L 505.3468627929688 40.05569839477539 L 504.2339782714844 41.80036544799805 L 504.2045288085938 41.84651565551758 L 504.1664733886719 41.88544845581055 L 502.9237976074219 43.15435028076172 L 501.4197998046875 44.67510223388672 L 501.3899536132812 44.70527648925781 L 501.3558654785156 44.73009872436523 L 499.6019897460938 46.00370407104492 L 499.5815124511719 46.01854705810547 L 499.5597534179688 46.03131484985352 L 497.7952270507812 47.06437301635742 L 497.7806701660156 47.0728645324707 L 497.765625 47.08041381835938 L 493.5986328125 49.1630744934082 L 493.5823669433594 49.1712760925293 L 493.5654602050781 49.1782112121582 L 489.1346435546875 51.00862121582031 L 489.1183471679688 51.01537322998047 L 489.1015014648438 51.02092361450195 L 484.2778930664062 52.63053894042969 L 484.2644348144531 52.63512802124023 L 484.2508544921875 52.63876724243164 L 479.2859802246094 53.99189758300781 L 474.4458923339844 55.343505859375 L 474.4331665039062 55.34708786010742 L 474.4202575683594 55.3499641418457 L 445.7031555175781 61.76920700073242 L 416.7264709472656 68.24440765380859 L 387.3569641113281 74.78121185302734 L 357.7259826660156 81.11983489990234 L 327.8296813964844 87.25598907470703 L 297.5389709472656 93.45680999755859 L 266.9778442382812 99.45145416259766 L 236.0232543945312 105.2389221191406 L 217.8974456787109 108.6101913452148 L 217.8934173583984 108.6109085083008 L 217.8893585205078 108.6116180419922 L 199.5516510009766 111.7469787597656 L 199.5477142333984 111.7476196289062 L 199.5437927246094 111.7482681274414 L 181.1236114501953 114.630973815918 L 181.1114349365234 114.6328582763672 L 181.0992126464844 114.6342163085938 L 171.6771240234375 115.6902618408203 L 162.3617248535156 116.7546081542969 L 162.3540954589844 116.7555160522461 L 162.3464508056641 116.7560653686523 L 144.3955078125 118.3148345947266 L 144.3874664306641 118.3154144287109 L 144.3794555664062 118.3158493041992 L 126.2463226318359 119.3660736083984 L 108.0230102539062 120.6788177490234 L 89.86289215087891 121.9947814941406 L 70.18913269042969 123.887451171875 L 50.50538635253906 126.3305358886719 L 30.69480323791504 129.0608673095703 L 19.22564315795898 130.8007659912109 L 18.81205558776855 130.8634796142578 Z M 5.686657905578613 89.09555053710938 C 6.686067581176758 92.51091003417969 7.727457046508789 95.92239379882812 8.809015274047852 99.3243408203125 C 9.891955375671387 102.7305679321289 11.01510620117188 106.1272277832031 12.17658805847168 109.5084915161133 C 13.33952522277832 112.8940048217773 14.54088878631592 116.2639923095703 15.77875137329102 119.612678527832 C 17.01810455322266 122.9655075073242 18.29403877258301 126.2968139648438 19.60460090637207 129.6008758544922 L 30.66218757629395 127.9251403808594 L 30.66618156433105 127.9246063232422 L 30.67024421691895 127.9240036010742 L 50.48287963867188 125.1962890625 L 50.4868278503418 125.1957702636719 L 50.49084091186523 125.1952514648438 L 70.18080902099609 122.7542495727539 L 70.18883514404297 122.7532653808594 L 70.19683837890625 122.7524795532227 L 89.88364410400391 120.8611526489258 L 89.89039611816406 120.8605270385742 L 89.89713287353516 120.8599700927734 L 108.0576705932617 119.5462875366211 L 126.2789001464844 118.2360763549805 L 126.2827911376953 118.2358245849609 L 126.2867660522461 118.2357025146484 L 144.4110870361328 117.1882781982422 L 162.3440704345703 115.6335220336914 L 171.6502075195312 114.5716323852539 L 181.0584564208984 113.5185089111328 L 199.4577026367188 110.641716003418 L 217.7862091064453 107.5108261108398 L 235.9018249511719 104.1443634033203 L 266.8445739746094 98.36402893066406 L 297.39013671875 92.37729644775391 L 327.6700134277344 86.18366241455078 L 357.5556030273438 80.05464935302734 L 387.1721496582031 73.72401428222656 L 416.5313110351562 67.19440460205078 L 445.5020751953125 60.72552108764648 L 474.2005920410156 54.31520080566406 L 479.0303649902344 52.96751022338867 L 483.9838256835938 51.61823654174805 L 488.7760620117188 50.02009201049805 L 493.1730651855469 48.20457077026367 L 497.3095092773438 46.13832092285156 L 499.0369262695312 45.12750625610352 L 500.7362670898438 43.89393997192383 L 502.2088012695312 42.40585327148438 L 503.4115905761719 41.1782112121582 L 504.4981994628906 39.4758186340332 L 505.4568786621094 38.00518798828125 L 505.9049987792969 36.86259078979492 L 506.1257934570312 35.67789077758789 L 506.3562316894531 34.4594612121582 L 506.4515075683594 33.31687164306641 L 506.3203125 32.39157485961914 L 506.3196105957031 32.38604736328125 L 506.3188781738281 32.38051986694336 L 506.174072265625 31.18125343322754 L 505.9181823730469 30.01856231689453 L 505.5426330566406 29.08768844604492 L 505.0374755859375 27.92121696472168 L 504.4179382324219 26.99372863769531 L 502.8980102539062 24.85319137573242 L 501.01708984375 22.9627742767334 L 498.8632507324219 21.06507301330566 L 496.4695129394531 19.16818618774414 L 493.8246765136719 17.52708053588867 L 491.0467224121094 15.87743282318115 L 488.042236328125 14.48269939422607 L 484.8921203613281 13.31925106048584 L 481.5953369140625 12.1595344543457 L 478.3102416992188 10.99532699584961 L 475.0390319824219 10.08851337432861 L 469.9934692382812 8.954517364501953 L 464.9265441894531 8.063381195068359 L 454.6577758789062 6.289574146270752 L 444.1296081542969 5.240226745605469 L 433.4500732421875 4.447655200958252 L 422.7389221191406 3.893837928771973 L 412.0103454589844 3.57619047164917 L 390.33349609375 3.446935892105103 L 369.6783142089844 3.302506446838379 L 354.9242858886719 8.700815200805664 L 354.9200134277344 8.702334403991699 L 354.9157409667969 8.703790664672852 L 339.8612365722656 13.92760467529297 L 339.8530578613281 13.9304666519165 L 339.8447265625 13.93301486968994 L 324.5884094238281 18.68102073669434 L 324.5802001953125 18.6835823059082 L 324.5719604492188 18.68582534790039 L 309.1146850585938 22.96516609191895 L 297.1717224121094 26.19353485107422 L 297.1659851074219 26.1950855255127 L 297.1603088378906 26.19650650024414 L 285.0510864257812 29.19380950927734 L 285.0458374023438 29.19517135620117 L 285.04052734375 29.19634246826172 L 272.890380859375 31.95077514648438 L 260.563720703125 34.7182731628418 L 260.5583801269531 34.71939086914062 L 260.5530090332031 34.7205696105957 L 235.7852935791016 39.77021408081055 L 235.77978515625 39.77133560180664 L 235.7742004394531 39.77226638793945 L 210.7078857421875 44.35716247558594 L 160.0475616455078 53.62160873413086 L 160.0475616455078 53.62160873413086 L 134.5555114746094 58.56314849853516 L 108.8668212890625 63.79536437988281 L 93.55875396728516 67.005126953125 L 78.27553558349609 70.74781036376953 L 47.47068405151367 78.28939819335938 L 16.50228309631348 86.15428161621094 L 5.686657905578613 89.09555053710938 Z" stroke="none" fill="rgba(0,0,0,0)"/>
    </g>
    <g id="roccia_rossa_2" data-name="roccia rossa 2" transform="translate(361.944 442.687)" fill="#c5202e" stroke-miterlimit="10">
      <path d="M554.387,110.415l-13.951.9-14.136.909-14.342.79-14.416.656-15,.556-15.216.564-30.8,1-64.575,1.676-33.692,1.086-17.149.63-17.547.791-17.658.936-18.087,1.113-18.2,1.27-18.647,1.454L210.4,126.493l-21.094,2.088-21.468,1.973L146.161,132.4,124.1,134.108l-11.174.634-11.273.634-11.185.308L79.185,136l-11.381.15-11.275-.185-13.4-.371-13.149-.573-13.27-.739-6.416-.448a150.536,150.536,0,0,1-5.59-28.873,146.4,146.4,0,0,1,.258-29.561,154.693,154.693,0,0,1,6.353-29.853A176.761,176.761,0,0,1,23.919,15.8l8.256.068,20.228.008,19.924-.146,19.62-.139,26.669-.16,13.039,0,12.9.148,12.434.454,6.253.3,6.062.448,5.862.445,5.841.6,5.65.742,5.626.739L212.5,22.715l9.755,1.625,9.848,1.6,9.925,1.451,9.852,1.29,10.231,1.127,10.446.68,10.957.656,11.007.359,10.768.645,5.271.394,5.254.392,6.251.636,6.073.913,5.908.779,5.738,1.056,11.4,2.1,11.034,2.365L373.157,43l10.984,2.187,5.652.877,5.627.867,5.739.862,5.838.579,6.882.668,6.967.386,14.06.628,13.888.479,6.891.37,6.726.512,6.688.633,6.541.908,12.728,1.8,12.6,1.914,6.243.884,6.451.741,7.378.559,7.451.544,7.507.284,7.446.152,7.5.016,7.559-.119,14.733-.1L581.1,59.5l7.823.115,7.763.11,7.615.367,7.448.375,7.518.482,7.258.619,7.316.605,14.308,1.581,13.917,1.7,13.765,1.913,13.283,1.907,6.438,1.077,6.31,1.194,12.414,2.372,1.505.284q-1.5,2.524-3.034,5.079t-3.126,5.151q-1.588,2.6-3.22,5.226t-3.316,5.3l-19.326,2.583-24.408,3.007-25.188,2.718-25.753,2.652-13.2,1.228-13.386,1.118L568.146,109.4Z" stroke="none"/>
      <path d="M 568.1864624023438 109.9045028686523 L 568.1845703125 109.904670715332 L 568.1825561523438 109.9048233032227 L 554.423095703125 110.9243545532227 L 540.4664306640625 111.8295822143555 L 526.3290405273438 112.7417678833008 L 511.9815368652344 113.5360260009766 L 497.5591430664062 114.1959381103516 L 482.5513610839844 114.7562637329102 L 467.3336791992188 115.3245010375977 L 436.5230407714844 116.3303070068359 L 371.9361877441406 118.0217208862305 L 338.24365234375 119.1161041259766 L 321.0951538085938 119.7499618530273 L 303.5509033203125 120.5452270507812 L 285.8956604003906 121.4856643676758 L 267.8115539550781 122.6031646728516 L 249.6129608154297 123.8777618408203 L 230.9693145751953 125.3362884521484 L 210.4138488769531 127.0864944458008 L 189.3217163085938 129.1797637939453 L 167.8462371826172 131.1588134765625 L 146.1598968505859 133.0080108642578 L 124.0874633789062 134.7250213623047 L 124.079704284668 134.7255859375 L 124.0720062255859 134.72607421875 L 112.8960418701172 135.3630981445312 L 101.6213073730469 136.0003051757812 L 101.6103973388672 136.0009765625 L 101.5995025634766 136.0012359619141 L 90.41310119628906 136.3114776611328 L 79.13059234619141 136.6256408691406 L 79.12497711181641 136.6257781982422 L 79.119384765625 136.6258392333984 L 67.73638916015625 136.7785186767578 L 67.72486114501953 136.7785797119141 L 67.71333312988281 136.7784118652344 L 56.43610763549805 136.5959014892578 L 56.43162536621094 136.5959167480469 L 56.42722702026367 136.5956878662109 L 43.02920913696289 136.2276153564453 L 43.02286148071289 136.2275543212891 L 43.01663970947266 136.2271881103516 L 29.86513519287109 135.6570892333984 L 29.86027336120605 135.6568603515625 L 29.85546875 135.6565704345703 L 16.58213424682617 134.9203033447266 L 16.57638740539551 134.9201354980469 L 16.57080841064453 134.9196166992188 L 10.15281867980957 134.4730377197266 L 9.693719863891602 134.4411926269531 L 9.580630302429199 134.0589904785156 C 8.150386810302734 129.2268371582031 6.965638160705566 124.3627548217773 6.027166366577148 119.4768676757812 C 5.089861869812012 114.59716796875 4.398551940917969 109.6974258422852 3.953634977340698 104.7876586914062 C 3.509485721588135 99.88607025146484 3.311068534851074 94.97638702392578 3.358594179153442 90.06855010986328 C 3.406043291091919 85.17063140869141 3.698392868041992 80.27627563476562 4.235565185546875 75.39554595947266 C 4.511325836181641 72.88986206054688 4.853055477142334 70.37850189208984 5.259675979614258 67.86634063720703 C 5.665741443634033 65.35750579833984 6.136466026306152 62.84786224365234 6.670741558074951 60.34212112426758 C 7.204280376434326 57.83991622924805 7.801159381866455 55.34183120727539 8.460203170776367 52.85241317749023 C 9.118292808532715 50.36658477783203 9.838338851928711 47.88968658447266 10.61921787261963 45.42609405517578 C 11.41579723358154 42.91300201416016 12.28059768676758 40.39827346801758 13.21151065826416 37.88662719726562 C 14.14085865020752 35.37924575805664 15.13594341278076 32.87518692016602 16.19474983215332 30.37889671325684 C 17.25159454345703 27.88722801208496 18.37181663513184 25.40368270874023 19.5533504486084 22.93250846862793 C 20.73261070251465 20.46611785888672 21.9727725982666 18.01233863830566 23.27180099487305 15.57565784454346 L 23.48105239868164 15.18328666687012 L 23.9731330871582 15.18749237060547 L 32.22785568237305 15.25720024108887 L 52.44621658325195 15.26957225799561 L 72.36132049560547 15.12801456451416 L 91.97868347167969 14.99376773834229 L 118.6445846557617 14.83999061584473 L 131.6858978271484 14.84037590026855 L 131.6901245117188 14.84035205841064 L 131.6945343017578 14.84046936035156 L 144.5950469970703 14.99137401580811 L 144.6039886474609 14.99153423309326 L 144.6130828857422 14.99176502227783 L 157.0447387695312 15.44898509979248 L 157.0484466552734 15.44924545288086 L 157.0523376464844 15.44943618774414 L 163.3046569824219 15.7471981048584 L 163.3139038085938 15.74756526947021 L 163.3231811523438 15.74828910827637 L 169.3837738037109 16.19748306274414 L 175.2463531494141 16.64381790161133 L 175.2551422119141 16.64453506469727 L 175.2639923095703 16.64532470703125 L 181.1038513183594 17.2420825958252 L 181.1136322021484 17.24307441711426 L 181.12353515625 17.24434852600098 L 186.7718505859375 17.98773193359375 L 192.3963012695312 18.72797203063965 L 192.4084320068359 18.72956657409668 L 192.4206390380859 18.7315845489502 L 212.6337738037109 22.1561393737793 L 222.3853149414062 23.78290176391602 L 232.2233428955078 25.38605308532715 L 242.1368560791016 26.83770370483398 L 251.9792327880859 28.12848663330078 L 262.1859741210938 29.25494956970215 L 272.6159973144531 29.9366455078125 L 283.5629577636719 30.59440803527832 L 294.5570068359375 30.95545196533203 L 294.565185546875 30.9555492401123 L 294.5733642578125 30.95605278015137 L 305.3397521972656 31.60390472412109 L 305.3441162109375 31.60424995422363 L 305.3484191894531 31.6045970916748 L 310.6181640625 31.99971008300781 L 315.8714294433594 32.39304351806641 L 315.8791809082031 32.3936767578125 L 315.8869934082031 32.39444351196289 L 322.1363830566406 33.03134536743164 L 322.150146484375 33.03282928466797 L 322.1637878417969 33.03485107421875 L 328.2344665527344 33.94928359985352 L 334.1316833496094 34.72812652587891 L 334.1460266113281 34.73004531860352 L 334.1602172851562 34.73263549804688 L 339.8967590332031 35.78979110717773 L 351.2984924316406 37.89594650268555 L 351.3063354492188 37.89741134643555 L 351.3139953613281 37.89900970458984 L 362.3458251953125 40.2653694152832 L 362.3458862304688 40.26543807983398 L 373.2689208984375 42.47707366943359 L 384.2386169433594 44.66341018676758 L 389.8773193359375 45.53936767578125 L 395.5026550292969 46.40759658813477 L 401.2254638671875 47.26860427856445 L 407.0495300292969 47.84723281860352 L 413.9178466796875 48.51594161987305 L 420.8742370605469 48.90242004394531 L 420.8742370605469 48.90242004394531 L 434.9266357421875 49.53343200683594 L 448.8078002929688 50.01544570922852 L 448.8125610351562 50.01553344726562 L 448.8172607421875 50.01574325561523 L 455.7068481445312 50.38692474365234 L 455.7121887207031 50.38724136352539 L 455.7177429199219 50.3876953125 L 462.4429016113281 50.901611328125 L 462.4473876953125 50.90189361572266 L 462.4518127441406 50.90236282348633 L 469.1392211914062 51.5368537902832 L 469.1495056152344 51.53774642944336 L 469.159912109375 51.53921508789062 L 475.7001037597656 52.44820785522461 L 488.427001953125 54.25249099731445 L 501.0299682617188 56.17006301879883 L 507.2597351074219 57.05312728881836 L 513.6978149414062 57.79431533813477 L 521.0645141601562 58.35380554199219 L 528.5062255859375 58.89834976196289 L 535.996826171875 59.18359375 L 535.996826171875 59.18359375 L 543.4415893554688 59.33713150024414 L 550.9307250976562 59.35490798950195 L 558.4855346679688 59.23730087280273 L 573.220703125 59.14469146728516 L 581.0763549804688 59.011474609375 L 581.0828857421875 59.01134872436523 L 581.0894165039062 59.01146697998047 L 588.91162109375 59.12818145751953 L 596.674072265625 59.23976898193359 L 596.6809692382812 59.23998641967773 L 596.6878051757812 59.24021530151367 L 604.3015747070312 59.60903930664062 L 611.749267578125 59.98542404174805 L 611.751953125 59.98552703857422 L 611.7546997070312 59.98574447631836 L 619.2720947265625 60.46902465820312 L 619.276123046875 60.46931457519531 L 619.2803344726562 60.4696159362793 L 626.5368041992188 61.08981704711914 L 633.851318359375 61.69668960571289 L 633.8565063476562 61.69712448120117 L 633.86181640625 61.69767761230469 L 648.16796875 63.28137588500977 L 648.1701049804688 63.28154373168945 L 648.172119140625 63.28182601928711 L 662.0875244140625 64.97996520996094 L 662.0906372070312 64.98033905029297 L 662.0936889648438 64.98081970214844 L 675.8565063476562 66.89695739746094 L 689.1389770507812 68.80709838867188 L 689.14306640625 68.80764770507812 L 689.1472778320312 68.80837249755859 L 695.5844116210938 69.88668823242188 L 695.5882568359375 69.88731384277344 L 695.592041015625 69.88797760009766 L 701.9011840820312 71.08317565917969 L 714.3140869140625 73.45770263671875 L 715.8181762695312 73.74137878417969 L 716.478271484375 73.86597442626953 L 716.1138916015625 74.48099517822266 C 715.1138916015625 76.16880798339844 714.0977783203125 77.86981201171875 713.067626953125 79.58129119873047 C 712.0352783203125 81.29610443115234 710.9886474609375 83.02141571044922 709.9293212890625 84.7542724609375 C 708.8680419921875 86.49057769775391 707.7940063476562 88.23446655273438 706.7091064453125 89.98294067382812 C 705.6220092773438 91.73505401611328 704.5239868164062 93.49176788330078 703.4169311523438 95.25009155273438 L 703.3209228515625 95.40244293212891 L 703.1569213867188 95.42436981201172 L 683.82958984375 98.01277160644531 L 659.4170532226562 101.0271987915039 L 659.4142456054688 101.0275115966797 L 659.4114990234375 101.02783203125 L 634.2214965820312 103.7521209716797 L 608.464599609375 106.411247253418 L 595.2586059570312 107.642936706543 L 581.8672485351562 108.7645263671875 L 568.1864624023438 109.9045028686523 Z M 249.6035919189453 122.7093048095703 L 267.807861328125 121.4431762695312 L 285.8977355957031 120.3342971801758 L 303.5582275390625 119.4022064208984 L 321.107421875 118.6152038574219 L 338.2586059570312 117.9894714355469 L 371.9482116699219 116.9114761352539 L 436.5182189941406 115.2515869140625 L 467.3157958984375 114.2610549926758 L 482.527587890625 113.7003707885742 L 497.528076171875 113.1476440429688 L 511.93896484375 112.4953155517578 L 526.275146484375 111.7086181640625 L 540.4054565429688 110.8037872314453 L 554.355224609375 109.9059982299805 L 568.1045532226562 108.8940048217773 L 581.7828369140625 107.7609100341797 L 595.16796875 106.6465682983398 L 608.3640747070312 105.4223709106445 L 634.1113891601562 102.7772750854492 L 659.2938232421875 100.0664596557617 L 683.6965942382812 97.06578063964844 L 702.85400390625 94.50982666015625 C 703.9188232421875 92.81962585449219 704.97509765625 91.13098907470703 706.0213012695312 89.44673919677734 C 707.0654296875 87.76570129394531 708.0995483398438 86.08900451660156 709.1220092773438 84.419189453125 C 710.1424560546875 82.75253295898438 711.1513671875 81.09281158447266 712.1470336914062 79.44246673583984 C 713.1409912109375 77.79529571533203 714.1217041015625 76.15741729736328 715.087890625 74.53144073486328 L 714.2432861328125 74.37248229980469 L 701.8262329101562 72.00238037109375 L 695.520263671875 70.81048583984375 L 689.0862426757812 69.73553466796875 L 675.8074340820312 67.83162689208984 L 662.047119140625 65.92170715332031 L 648.1306762695312 64.22953033447266 L 633.8297729492188 62.65279769897461 L 626.5161743164062 62.04917907714844 L 619.2610473632812 61.43241500854492 L 611.7469482421875 60.95265197753906 L 604.3023071289062 60.57983779907227 L 596.6950073242188 60.21480560302734 L 588.9366455078125 60.1069221496582 L 581.1170654296875 59.99392700195312 L 573.263671875 60.13064575195312 L 558.5247802734375 60.23027420043945 L 550.9688720703125 60.35145568847656 L 550.9650268554688 60.35163116455078 L 550.9613037109375 60.35155487060547 L 543.4589233398438 60.33724594116211 L 543.4550170898438 60.33722686767578 L 543.4509887695312 60.33716201782227 L 536.0037231445312 60.18704986572266 L 535.9998779296875 60.18697357177734 L 535.9961547851562 60.1867790222168 L 528.48779296875 59.9042854309082 L 528.47998046875 59.9039421081543 L 528.4723510742188 59.90348052978516 L 521.0198364257812 59.36137390136719 L 513.6395874023438 58.80427932739258 L 513.6307373046875 58.8037109375 L 513.6220092773438 58.80263900756836 L 507.1699523925781 58.06268692016602 L 507.1639709472656 58.06191253662109 L 507.1580200195312 58.06113052368164 L 500.9140319824219 57.17878341674805 L 488.3066101074219 55.26598358154297 L 475.5812377929688 53.46738815307617 L 469.0505676269531 52.56266403198242 L 462.3746032714844 51.93221282958984 L 455.6598205566406 51.42213439941406 L 448.7752380371094 51.05438995361328 L 434.8914184570312 50.57863235473633 L 420.824462890625 49.95337677001953 L 420.8217163085938 49.95330429077148 L 420.8190612792969 49.95317077636719 L 413.850830078125 49.56923294067383 L 413.8401184082031 49.56869506835938 L 413.8294372558594 49.56755828857422 L 406.9461975097656 48.90046691894531 L 401.106201171875 48.32289886474609 L 401.0931701660156 48.32154846191406 L 401.080078125 48.31966781616211 L 395.3397216796875 47.45838928222656 L 389.7098693847656 46.59192276000977 L 384.0565185546875 45.71614074707031 L 384.0453491210938 45.71452713012695 L 384.0341796875 45.71224975585938 L 373.047607421875 43.52719116210938 L 362.1119079589844 41.31758499145508 L 362.1088562011719 41.31697845458984 L 362.105712890625 41.31637191772461 L 351.0747985839844 38.95485687255859 L 339.6783142089844 36.8545036315918 L 333.9529418945312 35.80181503295898 L 328.059326171875 35.02602386474609 L 328.0542297363281 35.02543258666992 L 328.049072265625 35.02470779418945 L 321.9887390136719 34.11442947387695 L 315.7560729980469 33.48186492919922 L 310.5111389160156 33.09148406982422 L 305.2474365234375 32.6990966796875 L 294.4835205078125 32.05634689331055 L 283.4860534667969 31.70022392272949 L 283.477783203125 31.69999504089355 L 283.4695434570312 31.69956016540527 L 272.5104675292969 31.0460147857666 L 262.0595703125 30.36749839782715 L 262.045654296875 30.36657333374023 L 262.0318908691406 30.36509704589844 L 251.7988433837891 29.24023056030273 L 251.7923583984375 29.23962020874023 L 251.7861480712891 29.23880386352539 L 241.9316711425781 27.95064926147461 L 241.9269866943359 27.95014953613281 L 241.9222564697266 27.94937324523926 L 231.9947967529297 26.50007057189941 L 231.9896697998047 26.49929428100586 L 231.9846038818359 26.49851989746094 L 222.1340484619141 24.8974666595459 L 212.3741760253906 23.27352714538574 L 192.1625366210938 19.85809135437012 L 186.5477294921875 19.12151908874512 L 180.9066772460938 18.38170051574707 L 175.0834503173828 17.78920364379883 L 169.2287902832031 17.34610176086426 L 163.1755828857422 16.90003204345703 L 156.9390106201172 16.60580444335938 L 156.9390106201172 16.60587501525879 L 144.5090179443359 16.1544132232666 L 131.6247100830078 16.00956344604492 L 118.5844650268555 16.01526069641113 L 91.91583251953125 16.18144226074219 L 72.29354858398438 16.32476997375488 L 52.3663215637207 16.47567176818848 L 32.12882995605469 16.4726676940918 L 24.35760688781738 16.41068649291992 C 23.09257316589355 18.79980087280273 21.88453102111816 21.20528221130371 20.73541069030762 23.62256813049316 C 19.58416557312012 26.04452323913574 18.49221420288086 28.47827339172363 17.46159172058105 30.91951751708984 C 16.42909240722656 33.36503219604492 15.45821475982666 35.81799697875977 14.55095195770264 38.27397155761719 C 13.64215469360352 40.73394393920898 12.7972993850708 43.19678115844727 12.01834201812744 45.65792083740234 C 11.24461460113525 48.10276031494141 10.53124618530273 50.56053924560547 9.879338264465332 53.02711868286133 C 9.226435661315918 55.49731063842773 8.635234832763672 57.97603607177734 8.106886863708496 60.45875549316406 C 7.577796459197998 62.94496536254883 7.111707210540771 65.43500518798828 6.709763526916504 67.92422485351562 C 6.307292938232422 70.41678619384766 5.969174861907959 72.90827178955078 5.696446418762207 75.39413452148438 C 5.42900276184082 77.83206939697266 5.222896575927734 80.27909088134766 5.078260898590088 82.73063659667969 C 4.933446884155273 85.18502807617188 4.850269794464111 87.643798828125 4.828829765319824 90.10251617431641 C 4.807387351989746 92.56371307373047 4.847864627838135 95.02468872070312 4.950344085693359 97.48081970214844 C 5.05289888381958 99.93928527832031 5.217596530914307 102.3926544189453 5.444502353668213 104.836669921875 C 5.664268493652344 107.203857421875 5.943644046783447 109.5756988525391 6.281927108764648 111.9480819702148 C 6.620447635650635 114.3222122192383 7.017965793609619 116.6965103149414 7.473665714263916 119.0668411254883 C 7.92962646484375 121.4386444091797 8.443819046020508 123.8063583374023 9.015482902526855 126.165641784668 C 9.587445259094238 128.5261535644531 10.21688842773438 130.8782043457031 10.90297508239746 133.2173767089844 L 16.85187911987305 133.6340484619141 L 30.10750389099121 134.3756103515625 L 43.2474479675293 134.9513549804688 L 56.62383651733398 135.3252410888672 L 67.88217926025391 135.5126190185547 L 79.24739074707031 135.36572265625 L 90.51806640625 135.057373046875 L 101.6898727416992 134.7529296875 L 112.9497909545898 134.1221771240234 L 124.1118545532227 133.4913482666016 L 146.1675872802734 131.7866058349609 L 167.8380737304688 129.949462890625 L 189.2985992431641 127.9825439453125 L 210.3849334716797 125.9002838134766 L 210.3896636962891 125.8998184204102 L 210.3943786621094 125.8994979858398 L 230.954833984375 124.1590347290039 L 249.6035919189453 122.7093048095703 Z" stroke="none" fill="rgba(0,0,0,0)"/>
    </g>
    <g id="roccia_rossa_sx" data-name="roccia rossa sx" transform="translate(378.861 474.312)" fill="#b0203a" stroke-miterlimit="10">
      <path d="M25.145,141.822a227.75,227.75,0,0,1-10.3-29.676,215.776,215.776,0,0,1-5.977-30.68,210.439,210.439,0,0,1,1.941-63l7.878,1.051,9.326,1.489,9.441,1.474,9.211,1.47,9.314,1.455,9.263,1.261,9.541.882,6.376.457,6.351.461,12.942.538,12.492.728,6.2.631,6.01.628,6.919.942,6.727,1.294,6.539,1.3L151.683,36l12.462,3.112,6.266,1.447,6.239,1.448,8.781,1.667,9.025,1.461,9.266,1.268,9.346.9,9.427.722,9.5.367,9.422.188,9.5.02,8.312,2.271,8.543,2.244,8.632,2.051,8.716,1.86,8.79,1.679,8.872,1.658,8.808,1.486,9.018,1.453,17.843,2.549,17.85,2.329,35.071,4.4,66.894,8.459L470.86,82.8l6.248.95,5.986.961,5.972,1.272,5.712,1.278,5.475,1.6,5.113,1.78,2.252.753,2.031.927,1.921,1.086,1.692,1.109,1.468,1.277,1.24,1.294.386.591.4.741.28.757.158.6.053.775-.073.631-.185.633-.175.8-.6,1.294-.962,1.175-1.3,1.206-1.422,1.219-1.664,1.083-1.9,1.107-2.029.967-2.269.984-4.678,1.833-4.958,1.552-5.111,1.412-7.621,1.806-7.685,1.658-7.759,1.51L458.9,122.8l-16.092,2.622-16.488,2.346-34.025,4.67-17.3,2.29-17.558,2.838-18.385,3.11-18.416,3.643L301.9,148.212l-18.913,4.108-38.836,8.812-19.946,4.518-20.315,4.609-19.59,4.208-20.093,4.3-20.446,4-20.81,4.073L101.6,191l-21.724,3.855L58.886,198.58q-5.144-6.58-9.849-13.428T40.093,171.2q-4.236-7.106-7.982-14.454T25.145,141.822Z" stroke="none"/>
      <path d="M 58.53139114379883 199.2576141357422 L 58.32124328613281 198.9887847900391 C 54.82944869995117 194.5225830078125 51.49775695800781 189.9746246337891 48.33205032348633 185.3542938232422 C 45.16479110717773 180.731689453125 42.1646728515625 176.0379333496094 39.3373908996582 171.2823944091797 C 36.50957107543945 166.5260467529297 33.85550689697266 161.7093048095703 31.38082504272461 156.841796875 C 28.90643310546875 151.9748840332031 26.61209869384766 147.0586090087891 24.50319671630859 142.1024780273438 C 22.40866279602051 137.1800994873047 20.49381637573242 132.2110595703125 18.76133728027344 127.2056045532227 C 17.0301456451416 122.2036590576172 15.4815788269043 117.1669616699219 14.11808586120605 112.1052780151367 C 12.75599670410156 107.0488052368164 11.57905673980713 101.9690475463867 10.58955383300781 96.87577056884766 C 9.601377487182617 91.789306640625 8.800412178039551 86.69106292724609 8.188854217529297 81.59078979492188 C 7.876105785369873 78.98304748535156 7.612029552459717 76.36487579345703 7.39678430557251 73.74127960205078 C 7.181715488433838 71.12004852294922 7.015387535095215 68.49359893798828 6.89796257019043 65.86672973632812 C 6.780653953552246 63.24238586425781 6.712123870849609 60.6178092956543 6.692594528198242 57.99750137329102 C 6.673032283782959 55.37995529174805 6.702298641204834 52.76715087890625 6.780549049377441 50.16361236572266 C 6.860156536102295 47.51372528076172 6.990990161895752 44.85713195800781 7.172423362731934 42.19876861572266 C 7.353652477264404 39.54365539550781 7.585344314575195 36.88698959350586 7.866916179656982 34.23337936401367 C 8.148158073425293 31.58314895629883 8.479094505310059 28.93644905090332 8.859138488769531 26.29778861999512 C 9.238678932189941 23.66281509399414 9.667148590087891 21.03611373901367 10.14398860931396 18.42236328125 L 10.25766563415527 17.7992115020752 L 10.96061038970947 17.89315032958984 L 18.83650779724121 18.94606399536133 L 18.84579277038574 18.94727516174316 L 18.85500335693359 18.94876670837402 L 28.17881011962891 20.43907165527344 L 37.61514663696289 21.91405296325684 L 46.8260383605957 23.38643074035645 L 56.12667846679688 24.84096717834473 L 65.36965942382812 26.1013126373291 L 74.88289642333984 26.9825325012207 L 81.25220489501953 27.44023132324219 L 87.59287261962891 27.90156745910645 L 100.5207901000977 28.4421272277832 L 100.5264587402344 28.44240951538086 L 100.5322265625 28.44275856018066 L 113.0221786499023 29.17380142211914 L 113.0367279052734 29.17466354370117 L 113.0511322021484 29.17607688903809 L 119.2466888427734 29.80865478515625 L 125.2570495605469 30.43796348571777 L 125.2673034667969 30.43900108337402 L 125.2773818969727 30.44038200378418 L 132.1952209472656 31.38387870788574 L 132.2127075195312 31.38625144958496 L 132.2299041748047 31.38965225219727 L 138.9551849365234 32.6845817565918 L 145.4957885742188 33.98187255859375 L 145.5057678222656 33.98384094238281 L 145.5157165527344 33.98622512817383 L 151.8630065917969 35.46126556396484 L 151.8679656982422 35.4624137878418 L 151.8729400634766 35.46370315551758 L 164.3242340087891 38.57580947875977 L 170.585693359375 40.02300262451172 L 176.8111572265625 41.46918106079102 L 185.571044921875 43.13423538208008 L 194.5787811279297 44.59403228759766 L 203.8238220214844 45.86071014404297 L 213.1477661132812 46.76321792602539 L 222.5579681396484 47.48551940917969 L 232.0395355224609 47.85411071777344 L 241.4515838623047 48.04421615600586 L 250.9424438476562 48.0656852722168 L 251.0184020996094 48.06586074829102 L 251.0906524658203 48.0855712890625 L 259.4002380371094 50.35817337036133 L 267.9288940429688 52.60010147094727 L 276.5498657226562 54.65058898925781 L 285.247802734375 56.50850296020508 L 294.0323486328125 58.18766403198242 L 302.8954772949219 59.84585952758789 L 311.6969909667969 61.3328971862793 L 320.7069702148438 62.78616333007812 L 338.5368957519531 65.33650970458984 L 356.3808898925781 67.66849517822266 L 391.4432678222656 72.07905578613281 L 458.3262023925781 80.55026245117188 L 458.3289489746094 80.55064392089844 L 458.3317260742188 80.55096435546875 L 470.9226684570312 82.31060028076172 L 470.9253234863281 82.31099700927734 L 470.927978515625 82.31137847900391 L 477.1750183105469 83.26219177246094 L 483.1631774902344 84.22484588623047 L 483.1739501953125 84.22654724121094 L 483.1845397949219 84.22885131835938 L 489.1549987792969 85.50131988525391 L 494.8700256347656 86.78085327148438 L 494.8834838867188 86.78385925292969 L 494.8966674804688 86.78776550292969 L 500.3709106445312 88.39203643798828 L 500.3811645507812 88.39504241943359 L 500.3912353515625 88.39858245849609 L 505.4984741210938 90.17816162109375 L 507.7490539550781 90.931640625 L 507.770263671875 90.93875885009766 L 507.7909240722656 90.94812774658203 L 509.8208312988281 91.87552642822266 L 509.837646484375 91.88335418701172 L 509.85400390625 91.89247894287109 L 511.7745361328125 92.97843933105469 L 511.7870483398438 92.98554229736328 L 511.7991943359375 92.99350738525391 L 513.4906005859375 94.10291290283203 L 513.5159301757812 94.11949920654297 L 513.5390014648438 94.13960266113281 L 515.006103515625 95.41608428955078 L 515.0219116210938 95.42980194091797 L 515.0364379882812 95.44500732421875 L 516.2764282226562 96.73920440673828 L 516.30712890625 96.77114105224609 L 516.3316040039062 96.80886077880859 L 516.7171630859375 97.39942932128906 L 516.7289428710938 97.41761779785156 L 516.7393798828125 97.43682861328125 L 517.1349487304688 98.17774963378906 L 517.1513671875 98.20831298828125 L 517.1634521484375 98.2410888671875 L 517.4435424804688 98.99832153320312 L 517.4524536132812 99.02252197265625 L 517.4589233398438 99.04767608642578 L 517.6165161132812 99.65186309814453 L 517.6290283203125 99.69978332519531 L 517.6324462890625 99.74958038330078 L 517.6857299804688 100.5248870849609 L 517.6890258789062 100.57421875 L 517.683349609375 100.6233291625977 L 517.610595703125 101.2537536621094 L 517.6054077148438 101.2987365722656 L 517.5928344726562 101.341911315918 L 517.4132690429688 101.9570083618164 L 517.2423095703125 102.7349090576172 L 517.22998046875 102.7914505004883 L 517.2059936523438 102.8432006835938 L 516.6043701171875 104.1375885009766 L 516.5777587890625 104.1950607299805 L 516.5383911132812 104.2430725097656 L 515.5770263671875 105.4181823730469 L 515.5562744140625 105.4435806274414 L 515.532470703125 105.465690612793 L 514.2305297851562 106.672119140625 L 514.2239379882812 106.6781005859375 L 514.2171630859375 106.6839828491211 L 512.7951049804688 107.9028778076172 L 512.7722778320312 107.922492980957 L 512.7474365234375 107.9387054443359 L 511.0834045410156 109.0220642089844 L 511.0740966796875 109.0280303955078 L 511.0646057128906 109.0335922241211 L 509.1638488769531 110.1408309936523 L 509.148193359375 110.1499252319336 L 509.1319274902344 110.1577224731445 L 507.1031799316406 111.1256484985352 L 507.0962219238281 111.1290512084961 L 507.0889587402344 111.1320266723633 L 504.8200073242188 112.1166381835938 L 504.8129577636719 112.1196746826172 L 504.8056640625 112.1226043701172 L 500.1273498535156 113.956657409668 L 500.11328125 113.9622192382812 L 500.0987854003906 113.9667510986328 L 495.1405029296875 115.5200119018555 L 495.1334533691406 115.5221405029297 L 495.1264343261719 115.5241241455078 L 490.0154724121094 116.9370803833008 L 490.0077819824219 116.9391632080078 L 490.0000305175781 116.9409790039062 L 482.3784790039062 118.7487564086914 L 482.3742065429688 118.7498550415039 L 482.3697814941406 118.7506942749023 L 474.6849670410156 120.4103546142578 L 474.6806640625 120.4112701416016 L 474.6763305664062 120.4120788574219 L 466.9165649414062 121.9242172241211 L 466.9120483398438 121.9250869750977 L 466.9074401855469 121.925895690918 L 458.9621887207031 123.3041152954102 L 442.8648071289062 125.9313278198242 L 442.8603210449219 125.9320983886719 L 442.8556823730469 125.9327926635742 L 426.3667602539062 128.2830963134766 L 392.3364562988281 132.9625854492188 L 375.039794921875 135.2559509277344 L 357.4874572753906 138.0973663330078 L 339.1121520996094 141.2100219726562 L 320.7014770507812 144.8562927246094 L 301.9735717773438 148.7510986328125 L 283.0641174316406 152.8634490966797 L 244.2315521240234 161.6851348876953 L 224.2846374511719 166.2086791992188 L 203.9688110351562 170.8230285644531 L 203.9651336669922 170.8239135742188 L 203.9615173339844 170.8246612548828 L 184.3697357177734 175.037353515625 L 164.2750701904297 179.3407745361328 L 164.2693786621094 179.3419647216797 L 164.2635955810547 179.3432006835938 L 143.8154602050781 183.3507690429688 L 123.0037689208984 187.4297790527344 L 101.6500091552734 191.5998382568359 L 101.6439514160156 191.6010284423828 L 101.6378479003906 191.6021575927734 L 79.91215515136719 195.4627990722656 L 58.91780471801758 199.1890258789062 L 58.53139114379883 199.2576141357422 Z M 11.35928344726562 19.13838577270508 C 10.90290451049805 21.68848609924316 10.49271488189697 24.25056457519531 10.12936687469482 26.8203010559082 C 9.765551567077637 29.39325523376465 9.448619842529297 31.97385215759277 9.179241180419922 34.55732345581055 C 8.909503936767578 37.14413452148438 8.687439918518066 39.73371124267578 8.513550758361816 42.3216667175293 C 8.339470863342285 44.91277694702148 8.213695526123047 47.50193023681641 8.136822700500488 50.0848388671875 C 8.059799194335938 52.67431640625 8.031426429748535 55.27309799194336 8.051584243774414 57.87638854980469 C 8.071779251098633 60.48239898681641 8.140623092651367 63.09281539916992 8.257960319519043 65.70298004150391 C 8.375432014465332 68.31584167480469 8.541502952575684 70.92800140380859 8.756008148193359 73.53497314453125 C 8.970726013183594 76.14424133300781 9.233967781066895 78.74819946289062 9.545576095581055 81.34189605712891 C 10.1550817489624 86.41557312011719 10.95292186737061 91.48735046386719 11.93698596954346 96.54740142822266 C 12.92232990264893 101.6141967773438 14.09408760070801 106.6677703857422 15.4499683380127 111.6982192993164 C 16.80725860595703 116.7338333129883 18.34861373901367 121.7447204589844 20.07159042358398 126.7210464477539 C 21.79582405090332 131.7011566162109 23.70140266418457 136.6448211669922 25.78566932678223 141.5424499511719 C 27.87443161010742 146.4504547119141 30.14597320556641 151.3194885253906 32.59496307373047 156.1401214599609 C 35.04425430297852 160.9613647460938 37.67031097412109 165.7327270507812 40.46762084960938 170.4449615478516 C 43.26444625854492 175.1563110351562 46.23163223266602 179.8071899414062 49.36353302001953 184.3881988525391 C 52.49394607543945 188.9669952392578 55.7879638671875 193.4746704101562 59.23982238769531 197.9021759033203 L 79.84351348876953 194.255615234375 L 101.5600891113281 190.407470703125 L 122.9024276733398 186.2503967285156 L 143.7102203369141 182.1828460693359 L 164.1500396728516 178.1871185302734 L 184.2350311279297 173.8961486816406 L 203.8214721679688 169.6945343017578 L 224.1302337646484 165.0923309326172 L 244.0748748779297 160.5795135498047 L 282.9083557128906 151.7778472900391 L 301.8260192871094 147.6734771728516 L 320.5618896484375 143.7865295410156 L 338.9823913574219 140.1475830078125 L 338.9896545410156 140.1461334228516 L 338.9968872070312 140.1449737548828 L 357.3808898925781 137.0401611328125 L 374.9411010742188 134.2061157226562 L 374.9482727050781 134.2049255371094 L 374.9553527832031 134.2039794921875 L 392.2540893554688 131.9187164306641 L 426.2742004394531 127.2572631835938 L 442.7533569335938 124.9164047241211 L 458.8399047851562 122.2990646362305 L 466.7753601074219 120.9265365600586 L 474.5235595703125 119.4206314086914 L 482.20166015625 117.7663879394531 L 489.8092346191406 115.9659042358398 L 494.9061584472656 114.5595626831055 L 499.8428649902344 113.0157852172852 L 504.5010375976562 111.192253112793 L 506.7535095214844 110.2163314819336 L 508.76123046875 109.2596740722656 L 510.6363830566406 108.1685562133789 L 512.267333984375 107.1079177856445 L 513.659912109375 105.9154968261719 L 514.9321899414062 104.7375335693359 L 515.8341674804688 103.6360549926758 L 516.3856201171875 102.4507217407227 L 516.5480346679688 101.7116241455078 L 516.5519409179688 101.6940231323242 L 516.5570678710938 101.676628112793 L 516.7294921875 101.0869522094727 L 516.7915649414062 100.5506820678711 L 516.7451782226562 99.87398529052734 L 516.6068115234375 99.34297943115234 L 516.3477783203125 98.64220428466797 L 515.9784545898438 97.9505615234375 L 515.6294555664062 97.41614532470703 L 514.433837890625 96.16851043701172 L 513.0049438476562 94.92572784423828 L 511.3504333496094 93.84112548828125 L 509.4568481445312 92.77110290527344 L 507.463623046875 91.86116027832031 L 505.2328491210938 91.11505889892578 L 505.2302856445312 91.11420440673828 L 505.2279357910156 91.11341094970703 L 500.1242065429688 89.33710479736328 L 494.6707458496094 87.74091339111328 L 488.9713745117188 86.46730804443359 L 483.0135803222656 85.19990539550781 L 477.0372619628906 84.24160766601562 L 470.7956848144531 83.29428100585938 L 458.201416015625 81.53948974609375 L 391.3009643554688 73.09420013427734 L 356.2237548828125 68.69661712646484 L 338.3681640625 66.37065887451172 L 338.3650817871094 66.37029266357422 L 338.362060546875 66.3697509765625 L 320.51513671875 63.82449340820312 L 320.5105285644531 63.8238525390625 L 320.5059814453125 63.82313919067383 L 311.4856872558594 62.37199401855469 L 302.6723327636719 60.88666534423828 L 302.6676940917969 60.88581466674805 L 302.6631164550781 60.88496398925781 L 293.789306640625 59.22839736938477 L 284.9950561523438 57.55096817016602 L 284.9892272949219 57.54986953735352 L 284.9836120605469 57.54864883422852 L 276.2659606933594 55.69004058837891 L 276.2598266601562 55.68875503540039 L 276.2537231445312 55.68733978271484 L 267.6194458007812 53.63716888427734 L 267.6131286621094 53.63561248779297 L 267.6069946289062 53.63399505615234 L 259.0616455078125 51.39113616943359 L 250.8147583007812 49.13902282714844 L 241.3902740478516 49.12185287475586 L 241.3849792480469 49.12189865112305 L 241.3796997070312 49.12173461914062 L 231.9559020996094 48.93557739257812 L 231.9504089355469 48.93548965454102 L 231.9449768066406 48.93527221679688 L 222.4430999755859 48.570068359375 L 222.4319458007812 48.56963348388672 L 222.4207916259766 48.56886672973633 L 212.9921875 47.84918212890625 L 212.9862213134766 47.84870147705078 L 212.9803619384766 47.8481559753418 L 203.6327514648438 46.94733428955078 L 203.6208801269531 46.9461555480957 L 203.6091461181641 46.944580078125 L 194.3413543701172 45.67854690551758 L 194.3339996337891 45.67767715454102 L 194.3267059326172 45.67647552490234 L 185.2994232177734 44.21731567382812 L 185.2912902832031 44.21591567993164 L 185.2832489013672 44.21444702148438 L 176.5004119873047 42.54872512817383 L 176.4883880615234 42.5463752746582 L 176.4764404296875 42.54361343383789 L 170.2361145019531 41.09648895263672 L 163.9688262939453 39.65047836303711 L 163.9636077880859 39.64927673339844 L 163.9583587646484 39.64794540405273 L 151.5004730224609 36.53921508789062 L 145.1627044677734 35.06895446777344 L 138.6324005126953 33.77626037597656 L 131.9252166748047 32.48750305175781 L 125.0305328369141 31.55006408691406 L 119.0305557250977 30.92439651489258 L 112.8479156494141 30.2957935333252 L 100.3754272460938 29.5712718963623 L 87.43576812744141 29.03574752807617 L 87.425048828125 29.03538131713867 L 87.41433715820312 29.03460121154785 L 81.06224822998047 28.57508277893066 L 74.68606567382812 28.1196460723877 L 74.67884826660156 28.11916542053223 L 74.67166137695312 28.11848068237305 L 65.12867736816406 27.2385139465332 L 65.11354827880859 27.23720550537109 L 65.09860229492188 27.23519706726074 L 55.83312606811523 25.9756965637207 L 55.8262825012207 25.97471237182617 L 55.81951904296875 25.97358512878418 L 46.50332641601562 24.52045822143555 L 37.28810882568359 23.05129051208496 L 27.84726715087891 21.57954025268555 L 18.52681541442871 20.0936222076416 L 11.35928344726562 19.13838577270508 Z" stroke="none" fill="rgba(0,0,0,0)"/>
    </g>
  </g>
</svg>
