<svg xmlns="http://www.w3.org/2000/svg" width="444.038" height="499.746" viewBox="0 0 444.038 499.746">
  <g id="Intersezione_3" data-name="Intersezione 3" fill="#3e1315">
    <path d="M1.028,497.98l1.967-6.5,2.132-6.49,2.287-6.335,2.456-6.322,1.633-3.163,1.467-3.161,1.791-3.16,1.96-3,1.953-3,2.275-2.679,2.445-2.683,2.6-2.522,2.6-2.209,2.76-1.89,2.764-1.889,2.921-1.736,2.928-1.575,3.086-1.575,6.17-3.144,6.166-2.989,3.083-1.575,2.923-1.733,2.917-1.727,2.758-1.892L69.823,423l2.433-2.2,1.777-1.73,1.455-1.724,1.3-1.89.967-2.042.646-1.882.481-2.04.159-2.04-.169-2.039-.168-2.04-.163-2.032-.823-4.234-.659-4.073L76.732,391l0-2.036,0-2.035.317-1.876.481-2.035.808-1.875,1.45-2.818,1.127-2.97,1.126-2.967.8-3.119.8-2.967.477-3.124.475-3.28.149-3.115-.008-3.119-.166-3.277-.173-3.111-.49-3.117-.658-3.115-.811-3.115-.975-2.955-1.139-2.955-2.274-5.283-1.137-2.8-.323-1.4-.324-1.4-.332-2.642-.006-2.791.157-2.791.477-2.639,1.117-5.584.476-2.635.314-2.786.157-2.171,0-2.007-.01-4.183-.01-4.179,0-2.163.314-2.009.321-2.009.478-1.853.477-1.857.64-1.7,1.594-3.552,1.924-3.4,2.238-3.244,2.244-3.237,4.962-6.169.8-.923.8-.924.961-.768,1.124-.618,1.286-.462,1.282-.155h1.445l1.289.155,3.216.305,3.207.462,3.055.463,3.217.618,3.055.774,3.219.768,3.057.923,2.9.924,1.61.617,1.609.305,1.609.157.642-.157.8-.148.806-.312.635-.462.641-.612.477-.619.957-1.234.8-1.542,1.9-3.85,1.744-4.153.787-2.158.632-2,.624-2.151.474-2.155.143-2,.149-2.154-.012-2-.332-2-.5-1.841-.81-1.842-.974-1.84-1.3-1.691-1.451-1.536-1.613-1.534-1.613-1.53-1.45-1.534-.808-1.534-.652-1.534-.327-1.688-.333-1.683-.166-1.688-.009-1.682.135-3.678.143-3.523-.011-1.835-.172-1.685-.326-1.68-.328-1.684-.65-1.53-.812-1.523-4.968-1.839-4.969-2.135-4.813-2.142-4.649-2.289-4.8-2.443-4.648-2.443-9.136-5.339-8.963-5.491-8.8-5.79-8.8-5.786-8.79-5.937L51.6,142.577,48.881,140.6l-2.554-2.278-2.392-2.283-2.076-2.579-.956-1.366-.795-1.371-.8-1.366-.639-1.518-.478-1.519-.477-1.364-.478-2.883-.161-3.033.162-3.027.162-3.033.477-3.03,1.271-6.054.639-2.574.8-2.422.477-1.212.632-1.054.639-1.06.954-1.06.8-.607.954-.753,1.115-.453.954-.453,2.384-.759,2.23-.606,7.635-1.959,7.789-1.511L75.1,86.048,82.889,85l3.974-.305,3.975-.3,3.813-.152h7.957l3.974.306,3.977.3,3.823.453,4.455.752,4.3.606,4.456.759,4.455.453h6.366l3.177-.153,3.181-.3,6.362-.606,6.354-.606,5.564-.453,5.411-.3,5.4-.305h10.97l5.415.153,5.569.3,1.586.09,1.742-1.142,2.532-1.212,2.7-1.058,2.852-.752,2.86-.6,2.856-.453,3.018-.3,3.018-.306,6.2-.3,6.2-.3,3.178-.305,3.018-.3,3.013-.6,3.014-.6,2.06-.6,2.058-.6,4.27-1.509,4.115-1.509,2.22-.6,2.06-.452,2.064-.3,2.062-.305,4.121-.452,4.128-.3,2.062-.3,1.908-.305,2.054-.453,2.218-.6,2.056-.751,2.052-.9,1.735-1.057.783-.6.627-.75.619-.757.627-.75.307-.9.3-.9.743-3.166.91-3.159,1.059-3.161,1.226-3.156,1.379-3.008,1.381-3.008,1.543-2.855,1.7-2.854.93-1.35,1.09-1.35,1.083-1.349,1.418-.9,1.572-.9,1.732-.6,3.472-.9,1.737-.6,1.577-.6,1.41-.9.626-.6.466-.6.463-.753.458-.9.926-1.5.932-1.051,1.255-.9,1.249-.9,1.26-.6,3.3-1.646,1.574-.6,1.728-.6,1.738-.45,1.744-.152,1.58.152,1.75.3,1.761.9,1.756.9,1.76.9.959.45.795.3,1.747.151,1.583-.151h3.164l1.273.151,1.27.3,1.117.3,1.28.45,2.237,1.2,2.247,1.354,2.245,1.2,2.393.9,1.118.45,1.114.151,1.268.152,1.268-.152.948-.151.944-.3,2.046-.753,1.885-.747,1.108-.152.946-.145h1.426l1.277.3,2.549.6,1.9.146,1.9-.146,1.739-.3,1.728-.6,1.73-.753L393.161,23l1.241-1.045,1.239-1.5.917-1.5,1.074-1.65.918-1.5.622-.595.777-.6,1.093-.752,1.254-.448,1.42-.45,1.258-.3,2.835-.6,1.26-.45,1.247-.745.782-.6.771-.75.775-.9.609-.9,1.066-1.945,1.229-1.793.769-.9.774-.9.936-.6,1.1-.6,1.1-.3,1.105-.152h.949l1.12.449.644.449.644.449.485.448.64.448.8.3.953.152h1.9l1.894-.455,1.883-.593,1.886-.449.945-.152.792-.15.953.15.639.152.8.3.648.6,2.274,2.539,1.285,1.76q-1.985,10.2-4.757,20.772t-6.383,21.512Q428.7,60.17,424.225,71.486t-9.871,23.008q-5.415,11.736-11.781,23.857t-13.738,24.632q-7.372,12.511-15.776,25.413t-17.893,26.2q-9.529,13.354-20.182,27.112T312.5,249.635q-11.832,14.168-24.869,28.747t-27.334,29.574q-14.365,15.066-30.034,30.557t-32.7,31.414q-17.028,15.923-35.444,32.279t-38.275,33.15q-3.518,2.793-7.085,5.481t-7.18,5.272q-3.613,2.584-7.271,5.064t-7.36,4.858q-3.7,2.38-7.45,4.658t-7.532,4.455q-3.786,2.177-7.611,4.254t-7.687,4.055q-3.864,1.979-7.764,3.859t-7.833,3.663q-3.933,1.783-7.9,3.469t-7.962,3.277q-4,1.592-8.026,3.088t-8.083,2.9q-4.055,1.4-8.136,2.711T.777,498.943Z" stroke="none"/>
    <path d="M 6.70308290864341e-05 499.7458801269531 L 0.2455004155635834 498.8042297363281 L 0.4965308606624603 497.8415222167969 L 0.4992120862007141 497.8312072753906 L 0.5023290514945984 497.8210144042969 L 2.469248056411743 491.3242492675781 L 2.471158504486084 491.3180847167969 L 2.473169565200806 491.3120422363281 L 4.605185508728027 484.8221130371094 L 4.607632160186768 484.8144836425781 L 4.61038064956665 484.8069763183594 L 6.897572994232178 478.4722900390625 L 6.899818420410156 478.4661254882812 L 6.90219783782959 478.4599609375 L 9.35840892791748 472.1380004882812 L 9.368966102600098 472.1108093261719 L 9.382338523864746 472.0849304199219 L 11.00988101959229 468.9321899414062 L 12.47178936004639 465.7818908691406 L 12.48117351531982 465.7616271972656 L 12.49216651916504 465.7421875 L 14.28312969207764 462.5822448730469 L 14.29174327850342 462.5672302246094 L 14.30119514465332 462.5526123046875 L 16.26124382019043 459.5537719726562 L 18.2138843536377 456.5565490722656 L 18.2329216003418 456.5274658203125 L 18.2555103302002 456.5007934570312 L 20.53080558776855 453.8222351074219 L 20.53700637817383 453.8148803710938 L 20.5434741973877 453.8078918457031 L 22.98882675170898 451.1253356933594 L 23.00022125244141 451.1127319335938 L 23.01242065429688 451.1009216308594 L 25.61492729187012 448.5784301757812 L 25.6279296875 448.5659484863281 L 25.64173889160156 448.5542907714844 L 28.24320602416992 446.34521484375 L 28.26485633850098 446.3268432617188 L 28.28835105895996 446.3106384277344 L 31.04797554016113 444.4207763671875 L 33.81202697753906 442.5318298339844 L 33.82637023925781 442.5219116210938 L 33.8413200378418 442.5130615234375 L 36.76205444335938 440.7773742675781 L 36.77220916748047 440.7713317871094 L 36.78249740600586 440.7658386230469 L 39.71017074584961 439.1912841796875 L 39.71533203125 439.1884765625 L 39.7205924987793 439.185791015625 L 42.80642318725586 437.6102905273438 L 48.97637557983398 434.4658813476562 L 48.98126983642578 434.4634704589844 L 48.98619842529297 434.4610595703125 L 55.14767074584961 431.4741516113281 L 58.20883560180664 429.9107360839844 L 61.11696624755859 428.1867065429688 L 64.01906585693359 426.4686889648438 L 66.75117492675781 424.59423828125 L 69.47500610351562 422.5709838867188 L 71.88064575195312 420.3998718261719 L 73.63152313232422 418.69580078125 L 75.05160522460938 417.0133361816406 L 76.30893707275391 415.1823120117188 L 77.24381256103516 413.2074584960938 L 77.87135314941406 411.3804626464844 L 78.33678436279297 409.4077453613281 L 78.48925018310547 407.4539184570312 L 78.32384490966797 405.4591064453125 L 78.15579986572266 403.4185485839844 L 77.99516296386719 401.4163208007812 L 77.17758941650391 397.2118835449219 L 77.17594146728516 397.2033081054688 L 77.17460632324219 397.1947326660156 L 76.51535797119141 393.1215209960938 L 76.18998718261719 391.0841979980469 L 76.18321990966797 391.0418395996094 L 76.18308258056641 390.9989318847656 L 76.17815399169922 388.9627990722656 L 76.17319488525391 386.9277648925781 L 76.17306518554688 386.8809509277344 L 76.18087005615234 386.8348388671875 L 76.49816131591797 384.9588012695312 L 76.50114440917969 384.9412231445312 L 76.50523376464844 384.9239196777344 L 76.98654937744141 382.8888854980469 L 76.99761199951172 382.8422241210938 L 77.01657867431641 382.7981262207031 L 77.82416534423828 380.9230041503906 L 77.83160400390625 380.9057006835938 L 77.84018707275391 380.8889465332031 L 79.27608489990234 378.0984497070312 L 80.39181518554688 375.1572875976562 L 81.50680541992188 372.218505859375 L 82.29669952392578 369.1294555664062 L 82.29763793945312 369.1258239746094 L 82.29860687255859 369.1222229003906 L 83.09315490722656 366.1847839355469 L 83.56582641601562 363.0909118652344 L 84.03681945800781 359.841796875 L 84.18421936035156 356.7660217285156 L 84.17637634277344 353.6734924316406 L 84.01097869873047 350.4108276367188 L 83.83968353271484 347.3306274414062 L 83.35601806640625 344.2547302246094 L 82.70304107666016 341.1646118164062 L 81.89950561523438 338.0805053710938 L 80.93460083007812 335.1544799804688 L 79.80496215820312 332.2226867675781 L 77.53446197509766 326.9484252929688 L 77.53221130371094 326.9430847167969 L 77.53006744384766 326.9378356933594 L 76.39339447021484 324.1386413574219 L 76.37696838378906 324.0982666015625 L 76.36714935302734 324.0557861328125 L 76.04396057128906 322.658203125 L 75.71987152099609 321.2619323730469 L 75.71346282958984 321.2344665527344 L 75.70991516113281 321.206298828125 L 75.37784576416016 318.564208984375 L 75.37361907958984 318.5308227539062 L 75.37355041503906 318.4969177246094 L 75.36765289306641 315.7057495117188 L 75.36758422851562 315.6896667480469 L 75.36849212646484 315.6737060546875 L 75.52561187744141 312.8824157714844 L 75.52748870849609 312.8487548828125 L 75.53355407714844 312.8155212402344 L 76.010986328125 310.176513671875 L 76.01188659667969 310.1715393066406 L 76.01286315917969 310.1665954589844 L 77.12889099121094 304.5873413085938 L 77.60099029541016 301.9761047363281 L 77.912109375 299.2183227539062 L 78.06691741943359 297.0798950195312 L 78.06202697753906 295.0925598144531 L 78.05216979980469 290.9096374511719 L 78.04228210449219 286.7305908203125 L 78.03732299804688 284.5679321289062 L 78.03722381591797 284.5246276855469 L 78.04393005371094 284.4817810058594 L 78.35826873779297 282.472412109375 L 78.67977905273438 280.4611511230469 L 78.68386840820312 280.4356689453125 L 78.69033813476562 280.4106140136719 L 79.168701171875 278.5573425292969 L 79.64592742919922 276.7005920410156 L 79.65343475341797 276.6715698242188 L 79.6640625 276.6434631347656 L 80.30457305908203 274.9463806152344 L 80.31047058105469 274.9306945800781 L 80.31731414794922 274.9154052734375 L 81.91160583496094 271.3629760742188 L 81.92212677001953 271.3395080566406 L 81.93482971191406 271.3170776367188 L 83.85932159423828 267.9219665527344 L 83.87125396728516 267.9008483886719 L 83.88506317138672 267.8809204101562 L 86.12281799316406 264.636962890625 L 88.36714172363281 261.3988647460938 L 88.37830352783203 261.3827514648438 L 88.39057159423828 261.3674926757812 L 93.35242462158203 255.1988372802734 L 93.35903167724609 255.1906585693359 L 93.36593627929688 255.1828155517578 L 94.16842651367188 254.2595977783203 L 94.96482086181641 253.3368530273438 L 94.99800109863281 253.2985076904297 L 95.03761291503906 253.2667388916016 L 95.99833679199219 252.4987640380859 L 96.03530120849609 252.4692687988281 L 96.07672882080078 252.4464874267578 L 97.20056915283203 251.8287200927734 L 97.23863983154297 251.8078155517578 L 97.27953338623047 251.7931365966797 L 98.56545257568359 251.3315582275391 L 98.62363433837891 251.3107147216797 L 98.68496704101562 251.3032684326172 L 99.96696472167969 251.1479644775391 L 99.99983978271484 251.1440124511719 L 100.0329895019531 251.1440124511719 L 101.4780044555664 251.1440124511719 L 101.5109481811523 251.1440124511719 L 101.5436630249023 251.1479644775391 L 102.8238830566406 251.3022003173828 L 106.0351333618164 251.6070556640625 L 106.0483016967773 251.6083984375 L 106.0614395141602 251.6102752685547 L 109.2688293457031 252.0718383789062 L 112.3279495239258 252.5349578857422 L 112.3386764526367 252.5366363525391 L 112.3492965698242 252.5386505126953 L 115.5665817260742 253.1564025878906 L 115.5823287963867 253.159423828125 L 115.5978851318359 253.1633758544922 L 118.6493301391602 253.9364471435547 L 121.8648300170898 254.7034759521484 L 121.880615234375 254.7072296142578 L 121.8962020874023 254.7119293212891 L 124.9533767700195 255.6350708007812 L 124.9574661254883 255.6363372802734 L 124.9615859985352 255.6376800537109 L 127.8566513061523 256.5618286132812 L 127.8715591430664 256.5665893554688 L 127.8861389160156 256.5721740722656 L 129.4503021240234 257.1714172363281 L 130.987060546875 257.4630126953125 L 132.4783172607422 257.6086730957031 L 133.0300140380859 257.4737243652344 L 133.0451965332031 257.469970703125 L 133.0605163574219 257.4671630859375 L 133.8108978271484 257.3282165527344 L 134.5014495849609 257.0604248046875 L 135.0484161376953 256.66259765625 L 135.6334686279297 256.1045532226562 L 136.0853576660156 255.5188446044922 L 137.0121612548828 254.3230743408203 L 137.7842559814453 252.8304290771484 L 139.6786346435547 248.9994201660156 L 141.4105224609375 244.8741455078125 L 142.1883392333984 242.7408142089844 L 142.8144378662109 240.7587890625 L 143.4315948486328 238.6304168701172 L 143.8934020996094 236.5331573486328 L 144.0338745117188 234.5751190185547 L 144.1816101074219 232.4438781738281 L 144.1700744628906 230.5089721679688 L 143.8496704101562 228.5817565917969 L 143.3693542480469 226.8063201904297 L 142.5834197998047 225.0196075439453 L 141.6409301757812 223.2379913330078 L 140.3899383544922 221.6053314208984 L 138.9692840576172 220.1014251708984 L 137.3663177490234 218.5770721435547 L 135.7537536621094 217.0474395751953 L 135.7428894042969 217.0371704101562 L 135.7325744628906 217.0262451171875 L 134.2825927734375 215.4922485351562 L 134.2308807373047 215.4374847412109 L 134.1957855224609 215.3708648681641 L 133.3882293701172 213.8369293212891 L 133.3776702880859 213.8168182373047 L 133.3688201904297 213.7959747314453 L 132.7164459228516 212.261962890625 L 132.6936950683594 212.2085418701172 L 132.6826629638672 212.1515045166016 L 132.3555297851562 210.4633331298828 L 132.0228118896484 208.7821350097656 L 132.0176239013672 208.7559204101562 L 132.0149993896484 208.7293090820312 L 131.8489685058594 207.0411376953125 L 131.8464965820312 207.0158081054688 L 131.8463592529297 206.9903259277344 L 131.8374481201172 205.3079833984375 L 131.8373718261719 205.29638671875 L 131.8378143310547 205.2848663330078 L 131.9732818603516 201.6070861816406 L 132.1161499023438 198.0946044921875 L 132.10546875 196.2982482910156 L 131.9386901855469 194.6643676757812 L 131.6172485351562 193.0081634521484 L 131.3001861572266 191.3809967041016 L 130.6817626953125 189.926025390625 L 129.9797821044922 188.6085357666016 L 125.2078552246094 186.8415985107422 L 125.1946487426758 186.8367004394531 L 125.1817169189453 186.8311462402344 L 120.213020324707 184.6962127685547 L 120.2097702026367 184.6948089599609 L 120.2064895629883 184.6933288574219 L 115.3939056396484 182.5514221191406 L 115.3842239379883 182.5470733642578 L 115.3747024536133 182.5423736572266 L 110.725212097168 180.2532653808594 L 110.7219619750977 180.2518005371094 L 110.7188110351562 180.2501220703125 L 105.9151077270508 177.8067779541016 L 105.9118270874023 177.80517578125 L 105.9085388183594 177.8033599853516 L 101.2600860595703 175.3599548339844 L 101.2491607666016 175.3541870117188 L 101.2385406494141 175.3479614257812 L 92.10263824462891 170.0086822509766 L 92.09770965576172 170.0057983398438 L 92.09288787841797 170.0027770996094 L 83.12995910644531 164.5121612548828 L 83.12238311767578 164.5075225830078 L 83.11501312255859 164.5027008056641 L 74.312255859375 158.7125854492188 L 65.51448822021484 152.9264068603516 L 65.51161193847656 152.9245300292969 L 65.50879669189453 152.9226531982422 L 56.71884155273438 146.9853973388672 L 56.71079635620117 146.9799041748047 L 56.70291900634766 146.9742126464844 L 51.27459716796875 143.0205230712891 L 48.55770111083984 141.0439300537109 L 48.53561401367188 141.02783203125 L 48.51523971557617 141.0096740722656 L 45.96116256713867 138.7312927246094 L 45.95429229736328 138.7251281738281 L 45.94755554199219 138.7186889648438 L 43.55562591552734 136.4354858398438 L 43.5295524597168 136.4106903076172 L 43.50699615478516 136.3825988769531 L 41.43132019042969 133.8038635253906 L 41.41972351074219 133.7895812988281 L 41.40916442871094 133.7744293212891 L 40.45340728759766 132.4084167480469 L 40.44000244140625 132.3891754150391 L 40.42827224731445 132.3690032958984 L 39.63358688354492 130.9980773925781 L 38.83347320556641 129.6346130371094 L 38.81510543823242 129.6033020019531 L 38.80099487304688 129.5699157714844 L 38.16152191162109 128.0517425537109 L 38.1515007019043 128.0279388427734 L 38.14382553100586 128.0034790039062 L 37.66844177246094 126.4938125610352 L 37.19342803955078 125.1367034912109 L 37.17781066894531 125.0919952392578 L 37.17000198364258 125.0452041625977 L 36.69160461425781 122.1620101928711 L 36.68661117553711 122.1317825317383 L 36.68500137329102 122.1012115478516 L 36.52392578125 119.0677337646484 L 36.5223503112793 119.0385055541992 L 36.52392578125 119.0092849731445 L 36.68597412109375 115.9819030761719 L 36.84808731079102 112.9484252929688 L 36.84962844848633 112.9202041625977 L 36.85401916503906 112.8922500610352 L 37.33144760131836 109.8617858886719 L 37.33359146118164 109.8480453491211 L 37.33644104003906 109.8344345092773 L 38.60751342773438 103.7804794311523 L 38.60958862304688 103.7707595825195 L 38.61196899414062 103.7611083984375 L 39.25047302246094 101.1871948242188 L 39.25550079345703 101.1671524047852 L 39.26196670532227 101.1474456787109 L 40.06060791015625 98.72582244873047 L 40.06549835205078 98.71107482910156 L 40.07116317749023 98.69652557373047 L 40.54852294921875 97.4847412109375 L 40.56518173217773 97.44258117675781 L 40.58850860595703 97.40377044677734 L 41.2201042175293 96.35004425048828 L 41.85934448242188 95.28935241699219 L 41.88642501831055 95.24443817138672 L 41.92151641845703 95.20542907714844 L 42.87533187866211 94.1458740234375 L 42.90998458862305 94.10739898681641 L 42.95117568969727 94.07602691650391 L 43.74884414672852 93.46979522705078 L 44.69558715820312 92.72227478027344 L 44.75688552856445 92.67380523681641 L 44.82924652099609 92.64444732666016 L 45.92955780029297 92.19768524169922 L 46.86916351318359 91.75173187255859 L 46.90267944335938 91.73591613769531 L 46.93800354003906 91.72458648681641 L 49.322021484375 90.96546173095703 L 49.33324813842773 90.96190643310547 L 49.34464263916016 90.95882415771484 L 51.57449340820312 90.35293579101562 L 51.57821273803711 90.35186004638672 L 51.58200073242188 90.35092163085938 L 59.21647644042969 88.39187622070312 L 59.23236083984375 88.38785552978516 L 59.24838256835938 88.38477325439453 L 67.03706359863281 86.87342834472656 L 67.04293060302734 86.87229156494141 L 67.04875946044922 86.87135314941406 L 75.0045166015625 85.50633239746094 L 75.01419830322266 85.50466156005859 L 75.02388763427734 85.50331878662109 L 82.8155517578125 84.45167541503906 L 82.83116912841797 84.44952392578125 L 82.846923828125 84.44831848144531 L 86.82131195068359 84.14286041259766 L 90.79727935791016 83.84149169921875 L 90.80702972412109 83.84075164794922 L 90.81685638427734 83.84035491943359 L 94.63017272949219 83.68812561035156 L 94.64109802246094 83.68765258789062 L 94.65205383300781 83.68765258789062 L 102.6087799072266 83.68765258789062 L 102.6298980712891 83.68765258789062 L 102.6509780883789 83.6893310546875 L 106.625373840332 83.9957275390625 L 110.6017761230469 84.29502105712891 L 110.6134338378906 84.29595947265625 L 110.6250686645508 84.29730224609375 L 114.4482040405273 84.75002288818359 L 114.4617080688477 84.75170135498047 L 114.4750518798828 84.75391387939453 L 118.9215698242188 85.50473022460938 L 123.2165756225586 86.10968017578125 L 123.2244491577148 86.11081695556641 L 123.2321929931641 86.11215972900391 L 127.6693954467773 86.86806488037109 L 132.0784149169922 87.31610107421875 L 138.4030151367188 87.31610107421875 L 141.5557098388672 87.16407775878906 L 144.7228393554688 86.86585235595703 L 151.0846710205078 86.25996398925781 L 157.4391021728516 85.65413665771484 L 157.4428863525391 85.65373992919922 L 157.4466705322266 85.65346527099609 L 163.0103607177734 85.2008056640625 L 163.0173950195312 85.20020294189453 L 163.0244750976562 85.19980621337891 L 168.4350280761719 84.89930725097656 L 173.8381500244141 84.59391021728516 L 173.8536376953125 84.59304046630859 L 173.8691558837891 84.59304046630859 L 184.8394622802734 84.59304046630859 L 184.8471984863281 84.59304046630859 L 184.8550109863281 84.59330749511719 L 190.2695617675781 84.74647521972656 L 190.2764892578125 84.74667358398438 L 190.2834625244141 84.74700927734375 L 195.8521881103516 85.04650115966797 L 197.2594909667969 85.12627410888672 L 198.8496398925781 84.08393859863281 L 198.8804321289062 84.06376647949219 L 198.9136199951172 84.04788208007812 L 201.4459686279297 82.83609771728516 L 201.4638977050781 82.8275146484375 L 201.4824066162109 82.82027435302734 L 204.1777496337891 81.76259613037109 L 204.2074737548828 81.75093078613281 L 204.2383422851562 81.74282073974609 L 207.0899658203125 80.99073791503906 L 207.1030731201172 80.98725128173828 L 207.1163787841797 80.98443603515625 L 209.9767913818359 80.37948608398438 L 209.9905242919922 80.37653350830078 L 210.0044403076172 80.3743896484375 L 212.8599548339844 79.92166137695312 L 212.8757629394531 79.91911315917969 L 212.8916931152344 79.91757202148438 L 215.9093170166016 79.61808013916016 L 218.9257049560547 79.31181335449219 L 218.9401550292969 79.31034088134766 L 218.9547271728516 79.30960083007812 L 225.1530303955078 79.01111602783203 L 231.3383026123047 78.71141815185547 L 234.5039978027344 78.40709686279297 L 237.4926452636719 78.11048889160156 L 240.4786987304688 77.51089477539062 L 243.4697723388672 76.91056823730469 L 245.5072479248047 76.319091796875 L 247.550048828125 75.71855926513672 L 251.7990264892578 74.21666717529297 L 251.7990264892578 74.21659851074219 L 255.9137573242188 72.70740509033203 L 255.9357757568359 72.69935607910156 L 255.9584655761719 72.69319152832031 L 258.1784973144531 72.08817291259766 L 258.1918029785156 72.08454895019531 L 258.2052612304688 72.08160400390625 L 260.2651062011719 71.63001251220703 L 260.2843017578125 71.62579345703125 L 260.3037719726562 71.62290954589844 L 262.3675842285156 71.32341766357422 L 264.4277648925781 71.01822662353516 L 264.4381103515625 71.01668548583984 L 264.4484252929688 71.01560974121094 L 268.5691528320312 70.56388854980469 L 268.5791931152344 70.56282043457031 L 268.5892333984375 70.56208038330078 L 272.6969604492188 70.26399230957031 L 274.7345581054688 69.968994140625 L 276.6237487792969 69.66654968261719 L 278.6481628417969 69.22039031982422 L 280.8316955566406 68.62582397460938 L 282.848388671875 67.88895416259766 L 284.8514099121094 67.00710296630859 L 286.5286560058594 65.98548126220703 L 287.2404479980469 65.43636322021484 L 287.8265686035156 64.73468780517578 L 288.4434509277344 63.97972106933594 L 288.4453125 63.97750854492188 L 288.4472045898438 63.97516250610352 L 289.0083923339844 63.30337905883789 L 289.2828674316406 62.49673080444336 L 289.5764770507812 61.62070465087891 L 290.3138122558594 58.47977447509766 L 290.3170166015625 58.46643447875977 L 290.3207702636719 58.45322799682617 L 291.231201171875 55.29433441162109 L 291.2344055175781 55.28307342529297 L 291.2380981445312 55.27201461791992 L 292.296630859375 52.11110687255859 L 292.3007202148438 52.09877395629883 L 292.305419921875 52.08670806884766 L 293.5310974121094 48.93069458007812 L 293.5370483398438 48.91547775268555 L 293.5438842773438 48.90060043334961 L 294.9226989746094 45.89285659790039 L 296.3036193847656 42.88491821289062 L 296.3110656738281 42.86862945556641 L 296.319580078125 42.85294342041016 L 297.8624877929688 39.99836730957031 L 297.8680419921875 39.98804473876953 L 297.8740234375 39.97805786132812 L 299.5770568847656 37.12448883056641 L 299.586181640625 37.10906982421875 L 299.5963745117188 37.09432601928711 L 300.5263671875 35.74425506591797 L 300.5382995605469 35.72702789306641 L 300.5513610839844 35.71080780029297 L 301.6416931152344 34.3606071472168 L 302.7239685058594 33.01261520385742 L 302.781005859375 32.94169616699219 L 302.8578186035156 32.8928337097168 L 304.2761840820312 31.99234008789062 L 304.2869873046875 31.98556900024414 L 304.2979736328125 31.97926902770996 L 305.8695678710938 31.08085441589355 L 305.9138793945312 31.05551719665527 L 305.9620971679688 31.03882598876953 L 307.6937561035156 30.4377613067627 L 307.714599609375 30.43052101135254 L 307.7359924316406 30.42495727539062 L 311.1874084472656 29.530029296875 L 312.8940124511719 28.93942070007324 L 314.4111938476562 28.36101150512695 L 315.7285461425781 27.52004241943359 L 316.2865905761719 26.98406410217285 L 316.7091979980469 26.44299125671387 L 317.1438903808594 25.7352123260498 L 317.591796875 24.85590362548828 L 317.60205078125 24.83579444885254 L 317.6138610839844 24.81669044494629 L 318.5399475097656 23.31633949279785 L 318.56494140625 23.27585220336914 L 318.5964660644531 23.24032592773438 L 319.5284423828125 22.18968391418457 L 319.5695495605469 22.1434326171875 L 319.619873046875 22.10743713378906 L 320.8751831054688 21.20989418029785 L 322.1231384277344 20.3114128112793 L 322.1632995605469 20.28252410888672 L 322.2080078125 20.26127433776855 L 323.4618835449219 19.66436576843262 L 326.7563171386719 18.02009963989258 L 326.7804565429688 18.00810050964355 L 326.8057250976562 17.99844741821289 L 328.3802185058594 17.39751625061035 L 328.3880004882812 17.39456748962402 L 328.3959045410156 17.39181900024414 L 330.1236877441406 16.7917594909668 L 330.1446533203125 16.78445243835449 L 330.1661682128906 16.77888870239258 L 331.90380859375 16.32917976379395 L 331.9480590820312 16.31771659851074 L 331.9935607910156 16.31376266479492 L 333.7371826171875 16.16153526306152 L 333.7873840332031 16.1571102142334 L 333.8375854492188 16.16193771362305 L 335.4181213378906 16.31416511535645 L 335.4387512207031 16.31617546081543 L 335.4591979980469 16.31972694396973 L 337.2096557617188 16.62317657470703 L 337.2913513183594 16.63738632202148 L 337.3651428222656 16.67499160766602 L 339.1265869140625 17.57246780395508 L 340.8837280273438 18.47134971618652 L 342.6349792480469 19.36520576477051 L 343.5657653808594 19.80177879333496 L 344.26953125 20.06527709960938 L 345.892822265625 20.2057056427002 L 347.4262084960938 20.05924415588379 L 347.4522094726562 20.0567626953125 L 347.4783630371094 20.0567626953125 L 350.6423034667969 20.0567626953125 L 350.6748046875 20.0567626953125 L 350.70703125 20.06058502197266 L 351.9801025390625 20.21180534362793 L 352.0106506347656 20.21542549133301 L 352.0406188964844 20.22239685058594 L 353.3106384277344 20.5200138092041 L 353.3200988769531 20.52215957641602 L 353.3294067382812 20.52477264404297 L 354.4463500976562 20.82822227478027 L 354.4656066894531 20.83345031738281 L 354.4844360351562 20.84008598327637 L 355.7643737792969 21.289794921875 L 355.8040771484375 21.30373764038086 L 355.8411865234375 21.32357978820801 L 358.0780334472656 22.51947593688965 L 358.0905456542969 22.52618026733398 L 358.1026306152344 22.53348541259766 L 360.3362121582031 23.87980079650879 L 362.5373840332031 25.05350875854492 L 364.8963928222656 25.93918800354004 L 364.9024963378906 25.94146728515625 L 364.9083862304688 25.94388008117676 L 365.9627990722656 26.36818504333496 L 367.0039672851562 26.50955390930176 L 368.203369140625 26.65340232849121 L 369.39501953125 26.5104923248291 L 370.2928466796875 26.36717987060547 L 371.1863098144531 26.0855827331543 L 373.2143249511719 25.33906173706055 L 375.0918579101562 24.59468460083008 L 375.1536560058594 24.57015037536621 L 375.2195434570312 24.56110191345215 L 376.3212585449219 24.40974617004395 L 377.2648010253906 24.264892578125 L 377.3062133789062 24.25852394104004 L 377.3481140136719 24.25852394104004 L 378.7743835449219 24.25852394104004 L 378.8374633789062 24.25852394104004 L 378.8988647460938 24.27286911010742 L 380.1759948730469 24.57035064697266 L 382.6849670410156 25.16189765930176 L 384.5035095214844 25.30165863037109 L 386.3322448730469 25.16069221496582 L 388.0019226074219 24.86924171447754 L 389.6682434082031 24.29545783996582 L 391.3322143554688 23.57085418701172 L 392.8298950195312 22.564453125 L 394.0107116699219 21.5707893371582 L 395.1935119628906 20.14088821411133 L 396.09033203125 18.67378425598145 L 396.0944213867188 18.66707992553711 L 396.0987243652344 18.6605110168457 L 397.169189453125 17.01678085327148 L 398.0832824707031 15.52427291870117 L 398.1204223632812 15.46367740631104 L 398.1718444824219 15.41440963745117 L 398.7934875488281 14.81944370269775 L 398.8145446777344 14.79926776885986 L 398.8375854492188 14.78150463104248 L 399.6144714355469 14.18151187896729 L 399.62646484375 14.17232799530029 L 399.6389465332031 14.16374778747559 L 400.7320861816406 13.41159534454346 L 400.7911376953125 13.37097454071045 L 400.8587036132812 13.34684371948242 L 402.1129760742188 12.89907741546631 L 402.1223754882812 12.89572620391846 L 402.1318054199219 12.89277648925781 L 403.5521240234375 12.44299983978271 L 403.5717163085938 12.43683338165283 L 403.591552734375 12.43214130401611 L 404.8497924804688 12.1345911026001 L 404.8560791015625 12.13311672210693 L 404.8624572753906 12.13170909881592 L 407.6612548828125 11.53942394256592 L 408.835693359375 11.12028026580811 L 410.0094909667969 10.4190034866333 L 410.7404479980469 9.858157157897949 L 411.4713439941406 9.146892547607422 L 412.2096252441406 8.291847229003906 L 412.7861633300781 7.441963672637939 L 413.8390197753906 5.519921779632568 L 413.8520812988281 5.495924472808838 L 413.8676452636719 5.473335266113281 L 415.0962524414062 3.680394649505615 L 415.1129455566406 3.65599536895752 L 415.1321716308594 3.63347315788269 L 415.9010925292969 2.735997438430786 L 416.6766357421875 1.838655591011047 L 416.7285766601562 1.778596043586731 L 416.79541015625 1.735629200935364 L 417.7315063476562 1.134697914123535 L 417.7477111816406 1.124308109283447 L 417.7646179199219 1.115057826042175 L 418.8597717285156 0.5160703659057617 L 418.9169311523438 0.484766960144043 L 418.9798278808594 0.4677411317825317 L 420.0759582519531 0.1711967438459396 L 420.1098327636719 0.16201351583004 L 420.1444702148438 0.1572543233633041 L 421.2495422363281 0.005094342865049839 L 421.2868957519531 0 L 421.3244934082031 0 L 422.2733154296875 0 L 422.3792114257812 0 L 422.4775390625 0.03941412642598152 L 423.5975036621094 0.4881184995174408 L 423.6556091308594 0.5114452242851257 L 423.7069702148438 0.5472396612167358 L 424.3514099121094 0.995944082736969 L 424.9958190917969 1.444648385047913 L 425.0267333984375 1.46616530418396 L 425.0544128417969 1.491704106330872 L 425.5125732421875 1.914400458335876 L 426.0653686523438 2.301436424255371 L 426.7503662109375 2.55990743637085 L 427.6047973632812 2.69638204574585 L 429.3941955566406 2.69638204574585 L 431.2059631347656 2.261419057846069 L 433.0708312988281 1.674027919769287 L 433.0895385742188 1.668062210083008 L 433.1087036132812 1.663504123687744 L 434.9945678710938 1.214799761772156 L 435.0142517089844 1.210107564926147 L 435.0343627929688 1.206957101821899 L 435.9709777832031 1.056070685386658 L 436.7559204101562 0.9071282148361206 L 436.8496398925781 0.8892980217933655 L 436.9438171386719 0.9041788578033447 L 437.8966674804688 1.054394960403442 L 437.9176940917969 1.057679414749146 L 437.9384155273438 1.062639713287354 L 438.5770263671875 1.214866757392883 L 438.60986328125 1.22270929813385 L 438.641357421875 1.234439730644226 L 439.43701171875 1.530917048454285 L 439.5386962890625 1.568789482116699 L 439.6183471679688 1.642456412315369 L 440.2667236328125 2.242449283599854 L 440.2855529785156 2.259944438934326 L 440.302734375 2.279115200042725 L 442.5770874023438 4.818310260772705 L 442.5953674316406 4.838754653930664 L 442.6116027832031 4.860941886901855 L 443.8965148925781 6.621372222900391 L 444.0377502441406 6.814823150634766 L 443.9919738769531 7.049967288970947 C 443.3202514648438 10.50272560119629 442.5818481445312 13.98283195495605 441.7783508300781 17.48418807983398 C 440.9749145507812 20.98554229736328 440.1063232421875 24.50801277160645 439.17431640625 28.04549789428711 C 438.2423400878906 31.58298301696777 437.2469177246094 35.13548278808594 436.1897277832031 38.69683074951172 C 435.1325073242188 42.25811004638672 434.0134887695312 45.82823944091797 432.8342895507812 49.40098190307617 C 431.613525390625 53.09967803955078 430.31982421875 56.82672500610352 428.9558715820312 60.57555770874023 C 427.5918579101562 64.32432556152344 426.1576232910156 68.09487915039062 424.6557312011719 71.88057708740234 C 423.1537475585938 75.66627502441406 421.5841064453125 79.46712493896484 419.9494323730469 83.2764892578125 C 418.3147277832031 87.08585357666016 416.6150512695312 90.90372467041016 414.8528747558594 94.72348022460938 C 413.0241394042969 98.68734741210938 411.1154174804688 102.6808395385742 409.1304321289062 106.6969909667969 C 407.1454467773438 110.7131423950195 405.0841979980469 114.7518844604492 402.9504699707031 118.8061752319336 C 400.8167419433594 122.8604736328125 398.6104736328125 126.9303131103516 396.33544921875 131.008544921875 C 394.0604248046875 135.0867614746094 391.7166442871094 139.1734924316406 389.3078308105469 143.2615051269531 C 386.8204345703125 147.4828338623047 384.2463073730469 151.7350769042969 381.5904235839844 156.0105743408203 C 378.9345397949219 160.2860565185547 376.1968688964844 164.5848236083984 373.3823547363281 168.8993835449219 C 370.5678100585938 173.2139587402344 367.6764221191406 177.5442962646484 364.713134765625 181.8828582763672 C 361.749755859375 186.2213592529297 358.7145385742188 190.5681762695312 355.6123046875 194.9156036376953 C 352.3995056152344 199.4179229736328 349.0921325683594 203.9527587890625 345.6964721679688 208.5119323730469 C 342.3008422851562 213.0711669921875 338.8168334960938 217.6548004150391 335.2507934570312 222.2548522949219 C 331.6847534179688 226.8549194335938 328.0366821289062 231.4713287353516 324.3127136230469 236.0960540771484 C 320.5887451171875 240.7208404541016 316.7889099121094 245.3539428710938 312.9195556640625 249.9873199462891 C 308.9336853027344 254.76025390625 304.8460083007812 259.5668334960938 300.6642456054688 264.3986206054688 C 296.4824523925781 269.23046875 292.2064819335938 274.0875244140625 287.8440551757812 278.961181640625 C 283.4815673828125 283.8348693847656 279.0325927734375 288.7252502441406 274.5047302246094 293.623779296875 C 269.9768676757812 298.5223999023438 265.3701477050781 303.4290466308594 260.6921691894531 308.33544921875 C 255.8546600341797 313.4087524414062 250.9069213867188 318.5173034667969 245.858154296875 323.6519775390625 C 240.8093566894531 328.7868347167969 235.6595458984375 333.9479370117188 230.4178771972656 339.1260681152344 C 225.1761932373047 344.30419921875 219.8426208496094 349.4996032714844 214.4263305664062 354.7030944824219 C 209.0100708007812 359.9066772460938 203.5110931396484 365.1183471679688 197.9385833740234 370.3291625976562 C 192.2082214355469 375.6875 186.3598480224609 381.08251953125 180.4042205810547 386.504638671875 C 174.4486083984375 391.9266357421875 168.3857727050781 397.3757019042969 162.2264709472656 402.8422241210938 C 156.067138671875 408.308837890625 149.8113861083984 413.7929077148438 143.4699401855469 419.28515625 C 137.1284790039062 424.7772521972656 130.7013397216797 430.2774047851562 124.1992416381836 435.7757873535156 L 124.1927795410156 435.7812805175781 L 124.1861038208008 435.7865295410156 C 121.869758605957 437.6255798339844 119.5239486694336 439.4402465820312 117.1528625488281 441.2275390625 C 114.7817840576172 443.0149841308594 112.3854598999023 444.7749633789062 109.9680938720703 446.5044860839844 C 107.5507278442383 448.2340087890625 105.1123199462891 449.9332580566406 102.657112121582 451.5989685058594 C 100.2019424438477 453.2646789550781 97.72994232177734 454.8970031738281 95.24534606933594 456.4930114746094 C 92.8084716796875 458.0587158203125 90.34307861328125 459.6000366210938 87.85362243652344 461.1142578125 C 85.36416625976562 462.6283569335938 82.85063934326172 464.1153564453125 80.31744384765625 465.57275390625 C 77.78424835205078 467.0301208496094 75.23141479492188 468.4578857421875 72.66336059570312 469.8534545898438 C 70.09531402587891 471.2489013671875 67.51204681396484 472.6121826171875 64.91795349121094 473.9406127929688 C 62.37459945678711 475.2430114746094 59.80460357666016 476.5203552246094 57.21249008178711 477.7704772949219 C 54.62040710449219 479.0205993652344 52.0062370300293 480.2434997558594 49.37457275390625 481.4370727539062 C 46.7429084777832 482.630615234375 44.09375 483.7947998046875 41.43172073364258 484.9276428222656 C 38.76969146728516 486.0604553222656 36.09479522705078 487.1618957519531 33.41161727905273 488.2297058105469 C 30.77928352355957 489.2774047851562 28.12207984924316 490.2996215820312 25.44473457336426 491.2944946289062 C 22.76738929748535 492.2894897460938 20.06990242004395 493.2572937011719 17.35702896118164 494.1961059570312 C 14.64415836334229 495.1349487304688 11.91586971282959 496.0448303222656 9.176956176757812 496.9242553710938 C 6.438043117523193 497.8037109375 3.688438415527344 498.652587890625 0.9329350590705872 499.4692993164062 L 6.70308290864341e-05 499.7458801269531 Z M 1.556589961051941 498.1289367675781 L 1.554109811782837 498.1384582519531 C 4.222506523132324 497.3401184082031 6.88483715057373 496.5116271972656 9.536744117736816 495.6545715332031 C 12.18868446350098 494.7975158691406 14.83016872406006 493.9118957519531 17.45690536499023 492.9990844726562 C 20.08364295959473 492.0862426757812 22.69563293457031 491.146484375 25.28851890563965 490.1809692382812 C 27.88140678405762 489.2154541015625 30.4551887512207 488.2244873046875 33.00551223754883 487.209228515625 C 35.68067932128906 486.1446533203125 38.34759902954102 485.0465393066406 41.00165176391602 483.9170837402344 C 43.65570449829102 482.7877502441406 46.29692077636719 481.6270446777344 48.92067337036133 480.4371032714844 C 51.54442977905273 479.2471618652344 54.15078735351562 478.0278625488281 56.7350959777832 476.781494140625 C 59.31940078735352 475.5351257324219 61.88172149658203 474.2616882324219 64.41739654541016 472.9630432128906 C 67.00354766845703 471.6386413574219 69.57890319824219 470.2795104980469 72.13908386230469 468.8882141113281 C 74.69925689697266 467.4970703125 77.24424743652344 466.07373046875 79.76966857910156 464.6209106445312 C 82.29508972167969 463.1680908203125 84.8009033203125 461.6856384277344 87.28272247314453 460.1760864257812 C 89.76453399658203 458.6665649414062 92.22235870361328 457.1300659179688 94.65175628662109 455.5690612792969 C 97.12820434570312 453.9784240722656 99.59209442138672 452.3514404296875 102.0392227172852 450.6911010742188 C 104.4863510131836 449.0307312011719 106.9167175292969 447.3372802734375 109.3261413574219 445.6133728027344 C 111.7355651855469 443.8894653320312 114.1240081787109 442.1354064941406 116.4873123168945 440.35400390625 C 118.8506164550781 438.5726013183594 121.1887893676758 436.7639770507812 123.4975967407227 434.9309387207031 C 129.9953308105469 429.43603515625 136.4182586669922 423.9394836425781 142.7556304931641 418.4508666992188 C 149.0929870605469 412.9622497558594 155.3447570800781 407.4815368652344 161.5000610351562 402.0185241699219 C 167.6553955078125 396.5553894042969 173.7143096923828 391.1098022460938 179.666015625 385.6914367675781 C 185.61767578125 380.2729187011719 191.4620971679688 374.8815002441406 197.1884765625 369.5269470214844 C 202.7572021484375 364.3198547363281 208.2523803710938 359.1118469238281 213.6648559570312 353.911865234375 C 219.0773620605469 348.7118530273438 224.4071502685547 343.5202026367188 229.6451110839844 338.3456726074219 C 234.883056640625 333.1711730957031 240.0291595458984 328.0138244628906 245.0742340087891 322.8827514648438 C 250.1193084716797 317.7518005371094 255.0634002685547 312.6470031738281 259.8972778320312 307.5774536132812 C 264.5711364746094 302.6755065917969 269.173828125 297.7732543945312 273.6976013183594 292.8792114257812 C 278.2213134765625 287.9850158691406 282.6661987304688 283.0990905761719 287.024658203125 278.2298889160156 C 291.3830871582031 273.3606262207031 295.655029296875 268.5081481933594 299.8328552246094 263.6808471679688 C 304.0106811523438 258.8536376953125 308.094482421875 254.0516052246094 312.0765686035156 249.2833709716797 C 315.9414978027344 244.6552886962891 319.7369079589844 240.0275421142578 323.45654296875 235.4082489013672 C 327.1761474609375 230.7889556884766 330.8199462890625 226.1779632568359 334.3817443847656 221.5834808349609 C 337.9435729980469 216.9889221191406 341.4232788085938 212.4108428955078 344.8147583007812 207.857177734375 C 348.2062683105469 203.3035736083984 351.509521484375 198.7743530273438 354.7182922363281 194.2776641845703 C 357.81591796875 189.9366760253906 360.8465881347656 185.5964965820312 363.8053894042969 181.2645721435547 C 366.7642211914062 176.9326324462891 369.6511535644531 172.6089477539062 372.4613647460938 168.3010711669922 C 375.2715454101562 163.9932708740234 378.0049438476562 159.7012176513672 380.6566162109375 155.4324951171875 C 383.3082885742188 151.1638336181641 385.8782653808594 146.9184417724609 388.3616027832031 142.7039489746094 C 390.765869140625 138.6238403320312 393.1051025390625 134.5451507568359 395.3757019042969 130.4748992919922 C 397.646240234375 126.4046630859375 399.84814453125 122.3429946899414 401.9775695800781 118.2968139648438 C 404.1070251464844 114.2506332397461 406.1640625 110.2200622558594 408.1449584960938 106.212158203125 C 410.1259155273438 102.2042541503906 412.0307312011719 98.21900177001953 413.8556518554688 94.26344299316406 C 415.6134643554688 90.45307922363281 417.3090209960938 86.64472198486328 418.9396057128906 82.84494018554688 C 420.5701904296875 79.04509735107422 422.1358947753906 75.25390625 423.634033203125 71.47785186767578 C 425.1321716308594 67.70187377929688 426.562744140625 63.94104385375977 427.9232177734375 60.20199584960938 C 429.2836608886719 56.46294784545898 430.5739440917969 52.74568939208984 431.7914123535156 49.05678176879883 C 432.9602966308594 45.51520538330078 434.0698547363281 41.97637939453125 435.1184997558594 38.44626998901367 C 436.1671142578125 34.91622543334961 437.1548156738281 31.39489364624023 438.0799865722656 27.88837814331055 C 439.0051574707031 24.38186073303223 439.8678283691406 20.89015769958496 440.6664428710938 17.41930198669434 C 441.4649658203125 13.94844532012939 442.1994323730469 10.49843502044678 442.8681335449219 7.075304985046387 L 441.7406005859375 5.530512809753418 L 439.5019836425781 3.031201124191284 L 438.9519348144531 2.52216911315918 L 438.2895812988281 2.275428533554077 L 437.7042236328125 2.135870456695557 L 436.8669128417969 2.003886699676514 L 436.1689453125 2.136272430419922 L 436.1614379882812 2.137747287750244 L 436.1538391113281 2.138886690139771 L 435.2297058105469 2.287829160690308 L 433.381591796875 2.727484464645386 L 431.5177917480469 3.314607381820679 L 431.4995727539062 3.320305109024048 L 431.4809875488281 3.324796199798584 L 429.5873107910156 3.779466152191162 L 429.5241088867188 3.794615268707275 L 429.4590759277344 3.794615268707275 L 427.5613098144531 3.794615268707275 L 427.5177307128906 3.794615268707275 L 427.4746398925781 3.787711143493652 L 426.5218505859375 3.635483980178833 L 426.4668273925781 3.626703023910522 L 426.4146728515625 3.607063055038452 L 425.6131286621094 3.304619789123535 L 425.548583984375 3.280220746994019 L 425.4920043945312 3.24067234992981 L 424.8524475097656 2.792906522750854 L 424.8221435546875 2.771657705307007 L 424.7950134277344 2.746655225753784 L 424.3373107910156 2.324428081512451 L 423.7238464355469 1.89724063873291 L 423.1307678222656 1.48426365852356 L 422.1673889160156 1.098233103752136 L 421.3622131347656 1.098233103752136 L 420.3292236328125 1.240472555160522 L 419.3295288085938 1.510941863059998 L 418.3087158203125 2.069241762161255 L 417.4555358886719 2.616950511932373 L 416.7335510253906 3.452355861663818 L 415.9851379394531 4.325968742370605 L 414.7890625 6.071451187133789 L 413.7366027832031 7.992755889892578 L 413.72412109375 8.015613555908203 L 413.7094421386719 8.037197113037109 L 413.1006164550781 8.93474006652832 L 413.0827026367188 8.961150169372559 L 413.0617980957031 8.985281944274902 L 412.2869262695312 9.882757186889648 L 412.2713623046875 9.900788307189941 L 412.2543334960938 9.917411804199219 L 411.4833679199219 10.66762161254883 L 411.4602355957031 10.69014358520508 L 411.4346923828125 10.709716796875 L 410.6527709960938 11.30964279174805 L 410.62744140625 11.32908153533936 L 410.6001586914062 11.34543704986572 L 409.352783203125 12.09068584442139 L 409.3064575195312 12.11830234527588 L 409.2557067871094 12.13646793365479 L 407.9954833984375 12.58617782592773 L 407.960693359375 12.59857845306396 L 407.924560546875 12.60622024536133 L 405.0951843261719 13.20507335662842 L 403.864501953125 13.49612140655518 L 402.4729309082031 13.9367151260376 L 401.2954711914062 14.35706520080566 L 400.2735900878906 15.06008434295654 L 399.5319519042969 15.63286304473877 L 398.9826354980469 16.1585865020752 L 398.1015319824219 17.59733581542969 L 398.0975646972656 17.60383796691895 L 398.0934143066406 17.61020469665527 L 397.0227355957031 19.25420379638672 L 396.1101684570312 20.74698066711426 L 396.0897216796875 20.78042793273926 L 396.0647888183594 20.81059265136719 L 394.8253173828125 22.30900001525879 L 394.793701171875 22.34727478027344 L 394.7557373046875 22.37918090820312 L 393.5142822265625 23.42392349243164 L 393.4915466308594 23.44296073913574 L 393.4669494628906 23.45951652526855 L 391.9033203125 24.51022529602051 L 391.8619689941406 24.53804206848145 L 391.8162536621094 24.55795097351074 L 390.0865173339844 25.31117630004883 L 390.0666809082031 25.31982231140137 L 390.0461730957031 25.32686233520508 L 388.3184509277344 25.92189407348633 L 388.2770690917969 25.93610382080078 L 388.2340393066406 25.94361114501953 L 386.4954833984375 26.24706077575684 L 386.4694519042969 26.25161933898926 L 386.4431762695312 26.25362968444824 L 384.5454711914062 26.3998908996582 L 384.5033264160156 26.40317535400391 L 384.4611511230469 26.3998908996582 L 382.5584106445312 26.25369644165039 L 382.5159301757812 26.25041198730469 L 382.4744262695312 26.24062538146973 L 379.9254455566406 25.63956069946289 L 378.7113952636719 25.35675811767578 L 377.39013671875 25.35675811767578 L 376.4856262207031 25.49564552307129 L 376.4812622070312 25.49631500244141 L 376.4769897460938 25.49685096740723 L 375.4347839355469 25.64002990722656 L 373.6116638183594 26.36282348632812 L 373.6053771972656 26.36536979675293 L 373.5989990234375 26.36771583557129 L 371.5530395507812 27.12087440490723 L 371.5408325195312 27.1253662109375 L 371.5284118652344 27.12925338745117 L 370.5845031738281 27.42680358886719 L 370.5458984375 27.43900299072266 L 370.505859375 27.44537162780762 L 369.5580444335938 27.59665870666504 L 369.5475158691406 27.59826850891113 L 369.5369262695312 27.59954261779785 L 368.2687683105469 27.75163459777832 L 368.203369140625 27.75954437255859 L 368.1380004882812 27.75163459777832 L 366.8698425292969 27.59954261779785 L 366.8656311035156 27.59907341003418 L 366.861328125 27.59846878051758 L 365.7474060058594 27.44717979431152 L 365.6797180175781 27.43799781799316 L 365.6163635253906 27.41252517700195 L 364.5061950683594 26.9658317565918 L 362.1174926757812 26.06896018981934 L 362.0838623046875 26.05635833740234 L 362.0521545410156 26.03946685791016 L 359.8074035644531 24.84249687194824 L 359.794677734375 24.83565902709961 L 359.7823486328125 24.82821846008301 L 357.5477905273438 23.48136901855469 L 355.360595703125 22.31194877624512 L 354.1390075683594 21.88274955749512 L 353.0513000488281 21.58721160888672 L 351.81982421875 21.29870986938477 L 350.6099243164062 21.15499687194824 L 347.5043640136719 21.15499687194824 L 345.9471130371094 21.30367088317871 L 345.8974304199219 21.30842971801758 L 345.8476257324219 21.30420684814453 L 344.1000671386719 21.15298652648926 L 344.0252685546875 21.146484375 L 343.9549560546875 21.12014007568359 L 343.1602478027344 20.82265853881836 L 343.1395874023438 20.81494903564453 L 343.1195678710938 20.80549812316895 L 342.1607971191406 20.35578727722168 L 342.1524963378906 20.35190010070801 L 342.1443786621094 20.34774398803711 L 340.384033203125 19.44926261901855 L 338.6271362304688 18.55051422119141 L 336.9404602050781 17.6911792755127 L 335.2922973632812 17.40542602539062 L 333.7823486328125 17.26003646850586 L 332.1346740722656 17.40388488769531 L 330.4627990722656 17.83656883239746 L 328.7633666992188 18.42670822143555 L 327.2229309082031 19.01463508605957 L 323.9493408203125 20.64851188659668 L 323.9447937011719 20.65079116821289 L 323.9401550292969 20.65300369262695 L 322.7247009277344 21.23161315917969 L 321.515380859375 22.10220909118652 L 320.30908203125 22.96469497680664 L 319.4494934082031 23.93369293212891 L 318.5602722167969 25.37431907653809 L 318.1127624511719 26.2528247833252 L 318.1028442382812 26.27233123779297 L 318.0913696289062 26.29096603393555 L 317.6288146972656 27.04419136047363 L 317.6125793457031 27.07046699523926 L 317.5935974121094 27.09479904174805 L 317.1280822753906 27.69083786010742 L 317.10400390625 27.72173881530762 L 317.0757446289062 27.74888610839844 L 316.4499816894531 28.34975051879883 L 316.4109191894531 28.38735580444336 L 316.3651428222656 28.41658020019531 L 314.9546813964844 29.3170051574707 L 314.9073486328125 29.34730339050293 L 314.8547973632812 29.36727905273438 L 313.2782897949219 29.96827697753906 L 313.2703247070312 29.97122573852539 L 313.2622680664062 29.97404098510742 L 311.525634765625 30.57504081726074 L 311.5050048828125 30.58214569091797 L 311.4839477539062 30.58764266967773 L 308.0325927734375 31.48257064819336 L 306.3704223632812 32.05950546264648 L 304.8543395996094 32.92621231079102 L 303.5233764648438 33.77120590209961 L 302.4970703125 35.04934692382812 L 301.4192810058594 36.38399887084961 L 300.5104675292969 37.70336532592773 L 298.8228454589844 40.53106307983398 L 297.2943420410156 43.35902404785156 L 295.9208679199219 46.35081100463867 L 294.5491333007812 49.34300231933594 L 293.3336791992188 52.47280502319336 L 292.2832336425781 55.60958099365234 L 291.3800048828125 58.74380874633789 L 290.6397705078125 61.89673614501953 L 290.6338806152344 61.92153930664062 L 290.6258239746094 61.94573593139648 L 290.3233947753906 62.84817123413086 L 290.0151062011719 63.75395965576172 L 289.9822082519531 63.85062026977539 L 289.9167175292969 63.92904281616211 L 289.2920532226562 64.67684173583984 L 288.6751708984375 65.43180847167969 L 288.6732177734375 65.43408966064453 L 288.6713562011719 65.43636322021484 L 288.044677734375 66.18657684326172 L 288.0062561035156 66.23262786865234 L 287.958740234375 66.26929473876953 L 287.1759033203125 66.87330627441406 L 287.1518859863281 66.89180755615234 L 287.1260986328125 66.90749359130859 L 285.3913879394531 67.96403503417969 L 285.3602905273438 67.98300170898438 L 285.3270568847656 67.99761199951172 L 283.2750854492188 68.90105438232422 L 283.2588806152344 68.90822601318359 L 283.2423095703125 68.91426086425781 L 281.1864318847656 69.6654052734375 L 281.1646423339844 69.67345428466797 L 281.1422424316406 69.67955017089844 L 278.9242553710938 70.28350067138672 L 278.9112548828125 70.28705596923828 L 278.8981323242188 70.28987121582031 L 276.84423828125 70.74253082275391 L 276.82861328125 70.74594879150391 L 276.8128662109375 70.74855804443359 L 274.9052124023438 71.05388641357422 L 274.9011535644531 71.05448913574219 L 274.8971252441406 71.05509185791016 L 272.8352355957031 71.35364532470703 L 272.8158874511719 71.35646057128906 L 272.7962951660156 71.35787200927734 L 268.6788635253906 71.65662384033203 L 264.5793151855469 72.10600280761719 L 262.5269775390625 72.41004943847656 L 260.48046875 72.70706939697266 L 258.4537353515625 73.15141296386719 L 256.2703857421875 73.74644470214844 L 252.1771850585938 75.24773406982422 L 252.1741333007812 75.24887847900391 L 252.1710815429688 75.2498779296875 L 247.9011535644531 76.75921630859375 L 247.8872528076172 76.76417541503906 L 247.8730316162109 76.76839447021484 L 245.815185546875 77.37328338623047 L 243.7535552978516 77.97173309326172 L 243.7313079833984 77.97817230224609 L 243.7085418701172 77.98279571533203 L 240.6948699951172 78.58768463134766 L 237.6822357177734 79.19256591796875 L 237.6554870605469 79.197998046875 L 237.6283416748047 79.20067596435547 L 234.6107788085938 79.50017547607422 L 231.4313507080078 79.80576324462891 L 231.4184112548828 79.80696868896484 L 231.4054107666016 79.80764007568359 L 225.2060546875 80.10807800292969 L 219.0216522216797 80.40596008300781 L 216.01904296875 80.7108154296875 L 213.0160675048828 81.00883483886719 L 210.1899719238281 81.45687103271484 L 207.356689453125 82.05612182617188 L 204.5495300292969 82.79647827148438 L 201.9018249511719 83.83545684814453 L 199.4210052490234 85.02257537841797 L 197.7101440429688 86.14406585693359 L 197.5587615966797 86.24333953857422 L 197.3779754638672 86.23308563232422 L 195.7915954589844 86.14305877685547 L 190.2306365966797 85.84403991699219 L 184.83251953125 85.69127655029297 L 173.8850402832031 85.69127655029297 L 168.4964599609375 85.99586486816406 L 163.0919342041016 86.29595947265625 L 157.5393371582031 86.74774932861328 L 151.1888122558594 87.35323333740234 L 144.8263702392578 87.95912933349609 L 141.6450958251953 88.25868988037109 L 141.6325836181641 88.25989532470703 L 141.6200866699219 88.260498046875 L 138.4433288574219 88.41372680664062 L 138.4300842285156 88.41433715820312 L 138.4168548583984 88.41433715820312 L 132.0504913330078 88.41433715820312 L 132.0226745605469 88.41433715820312 L 131.9949951171875 88.41152191162109 L 127.5402603149414 87.95879364013672 L 127.5218276977539 87.95691680908203 L 127.5035629272461 87.95383453369141 L 123.0559692382812 87.19611358642578 L 118.7618408203125 86.59129333496094 L 118.75439453125 86.59022521972656 L 118.7469940185547 86.58895111083984 L 114.3066711425781 85.83921051025391 L 110.5076293945312 85.38936614990234 L 106.5419158935547 85.09081268310547 L 102.5879058837891 84.785888671875 L 94.66328430175781 84.785888671875 L 90.86974334716797 84.93730926513672 L 86.90489959716797 85.23794555664062 L 82.94622802734375 85.54219818115234 L 75.18009948730469 86.59042358398438 L 67.24063873291016 87.95262908935547 L 59.47430801391602 89.45960998535156 L 51.85665893554688 91.41429901123047 L 49.64457321166992 92.01536560058594 L 47.30653762817383 92.75987243652344 L 46.38623809814453 93.19657897949219 L 46.3719596862793 93.20335388183594 L 46.35738372802734 93.20932006835938 L 45.31465148925781 93.63268280029297 L 44.42230224609375 94.33731079101562 L 44.4183464050293 94.34046173095703 L 44.41432571411133 94.34361267089844 L 43.65671157836914 94.91934204101562 L 42.77287292480469 95.90113830566406 L 42.16135406494141 96.91585540771484 L 41.55388641357422 97.92922973632812 L 41.0985107421875 99.08510589599609 L 40.31136703491211 101.4718017578125 L 39.68033981323242 104.0155563354492 L 38.41402816772461 110.0467910766602 L 37.9432373046875 113.0352249145508 L 37.78263092041016 116.0404891967773 L 37.62212371826172 119.0388412475586 L 37.7800178527832 122.0120620727539 L 38.24571228027344 124.8187103271484 L 38.70745468139648 126.1379470825195 L 38.7103385925293 126.1461181640625 L 38.71288299560547 126.1543655395508 L 39.18350982666016 127.6488189697266 L 39.79901885986328 129.1101531982422 L 40.58220672607422 130.4447479248047 L 41.36656951904297 131.7978210449219 L 42.29853057861328 133.1297912597656 L 44.33998870849609 135.6660461425781 L 46.69893646240234 137.9177398681641 L 49.22566604614258 140.1717224121094 L 51.92097473144531 142.132568359375 L 57.34182357788086 146.0808258056641 L 66.12356567382812 152.0125885009766 L 74.91573333740234 157.7950592041016 L 83.71192169189453 163.5808258056641 L 92.66114044189453 169.0630798339844 L 101.7818222045898 174.3935089111328 L 106.4157638549805 176.8293304443359 L 111.2155075073242 179.2706604003906 L 115.8496856689453 181.5522003173828 L 120.649055480957 183.6882019042969 L 125.6024322509766 185.8166351318359 L 130.5569152832031 187.651123046875 L 130.7527160644531 187.7235870361328 L 130.8508758544922 187.9078521728516 L 131.6623840332031 189.4309997558594 L 131.6736907958984 189.4521789550781 L 131.6831359863281 189.474365234375 L 132.33349609375 191.0044097900391 L 132.3560638427734 191.0575714111328 L 132.3671112060547 191.1142730712891 L 132.6952972412109 192.7985687255859 L 133.0214691162109 194.4791564941406 L 133.0261688232422 194.50341796875 L 133.0286865234375 194.5280303955078 L 133.2006530761719 196.2133178710938 L 133.203369140625 196.2394561767578 L 133.2035369873047 196.2657928466797 L 133.2144622802734 198.1012420654297 L 133.2145233154297 198.1140441894531 L 133.2140197753906 198.1268463134766 L 133.0707092285156 201.6496429443359 L 132.9357452392578 205.3136901855469 L 132.9444580078125 206.9589538574219 L 133.1053619384766 208.5952453613281 L 133.4333038330078 210.2522430419922 L 133.7498626708984 211.8857879638672 L 134.3704071044922 213.3449249267578 L 135.1325378417969 214.7926483154297 L 136.5202484130859 216.2607574462891 L 138.1226501464844 217.7806854248047 L 139.7362518310547 219.3152160644531 L 139.7469177246094 219.3253479003906 L 139.7570037841797 219.3361358642578 L 141.2079467773438 220.8720855712891 L 141.2274169921875 220.8925933837891 L 141.2446746826172 220.9151153564453 L 142.54052734375 222.6063690185547 L 142.5685424804688 222.6428985595703 L 142.5900268554688 222.68359375 L 143.5635833740234 224.5239868164062 L 143.5728607177734 224.5414733886719 L 143.5808715820312 224.5596466064453 L 144.3912811279297 226.4020538330078 L 144.4079284667969 226.4398651123047 L 144.4187622070312 226.479736328125 L 144.9169311523438 228.3211517333984 L 144.924072265625 228.3474884033203 L 144.9285278320312 228.3744354248047 L 145.2606048583984 230.3720855712891 L 145.2678070068359 230.4151306152344 L 145.2680358886719 230.4588317871094 L 145.2799377441406 232.4574127197266 L 145.2800750732422 232.4781341552734 L 145.2785949707031 232.4987030029297 L 145.1293487548828 234.65234375 L 144.9859771728516 236.6512756347656 L 144.9831237792969 236.6910858154297 L 144.9745178222656 236.7300262451172 L 144.5000610351562 238.8848114013672 L 144.4962463378906 238.9023590087891 L 144.4912261962891 238.9196624755859 L 143.8675689697266 241.0704803466797 L 143.86572265625 241.0766448974609 L 143.8637847900391 241.0828857421875 L 143.232177734375 243.0824737548828 L 143.2285614013672 243.0938720703125 L 143.2244110107422 243.1051940917969 L 142.4376678466797 245.2629241943359 L 142.4332122802734 245.2751922607422 L 142.4280700683594 245.2873840332031 L 140.6844329833984 249.4406127929688 L 140.6779327392578 249.4562377929688 L 140.6704254150391 249.4714508056641 L 138.7667541503906 253.3213043212891 L 138.7645111083984 253.3257904052734 L 138.7622222900391 253.3302154541016 L 137.9646301269531 254.8721313476562 L 137.9416046142578 254.9166412353516 L 137.9109344482422 254.9561767578125 L 136.9541778564453 256.1907043457031 L 136.4774780273438 256.80859375 L 136.451904296875 256.8416137695312 L 136.4217071533203 256.8705139160156 L 135.7802276611328 257.4822998046875 L 135.7537536621094 257.5075073242188 L 135.7242279052734 257.5290222167969 L 135.0896759033203 257.9905395507812 L 135.0318298339844 258.0326232910156 L 134.9651641845703 258.0584411621094 L 134.1595916748047 258.3707885742188 L 134.1116943359375 258.3894348144531 L 134.0611267089844 258.3988037109375 L 133.2752227783203 258.5443420410156 L 132.6485443115234 258.6976318359375 L 132.5577239990234 258.7198181152344 L 132.4646453857422 258.7107849121094 L 130.8554992675781 258.5535888671875 L 130.8308715820312 258.5511779785156 L 130.8065032958984 258.5465698242188 L 129.1973724365234 258.2412414550781 L 129.149169921875 258.2320556640625 L 129.1032867431641 258.2144775390625 L 127.5083236694336 257.6034851074219 L 124.631965637207 256.685302734375 L 121.5934524536133 255.7677307128906 L 118.3908233642578 255.0037078857422 L 118.3871002197266 255.0028991699219 L 118.3833465576172 255.0018920898438 L 115.3446044921875 254.2321166992188 L 112.1527633666992 253.6192474365234 L 109.1084289550781 253.1582794189453 L 105.9188003540039 252.6992492675781 L 102.7149963378906 252.3950653076172 L 102.7080917358398 252.3943939208984 L 102.7012481689453 252.3935241699219 L 101.4452972412109 252.2422332763672 L 100.0662689208984 252.2422332763672 L 98.87834930419922 252.3860931396484 L 97.69132995605469 252.8121948242188 L 96.64729309082031 253.3860473632812 L 95.76299285888672 254.0929565429688 L 94.99850463867188 254.9786376953125 L 94.20244598388672 255.8943481445312 L 89.25855255126953 262.0406799316406 L 87.026123046875 265.2615661621094 L 84.80307769775391 268.484130859375 L 82.90292358398438 271.8363647460938 L 81.32605743408203 275.3499755859375 L 80.7022705078125 277.0027465820312 L 80.23221588134766 278.831298828125 L 79.76018524169922 280.6598205566406 L 79.4429931640625 282.6439514160156 L 79.13565826416016 284.6087341308594 L 79.14051818847656 286.7280578613281 L 79.15040588378906 290.9070129394531 L 79.16025543212891 295.0900268554688 L 79.16522216796875 297.0973205566406 L 79.165283203125 297.1178283691406 L 79.16374206542969 297.1383361816406 L 79.006591796875 299.3089294433594 L 79.00578308105469 299.3199462890625 L 79.00457763671875 299.3307800292969 L 78.69023895263672 302.1171264648438 L 78.68822479248047 302.1352233886719 L 78.68490600585938 302.1533203125 L 78.20851898193359 304.7884521484375 L 78.20768737792969 304.7933959960938 L 78.20664215087891 304.7983703613281 L 77.09071350097656 310.3770751953125 L 76.62026214599609 312.9776000976562 L 76.46591949462891 315.7195739746094 L 76.47171783447266 318.4607238769531 L 76.79608154296875 321.041259765625 L 77.11390686035156 322.4103088378906 L 77.42741394042969 323.7659301757812 L 78.54512023925781 326.5184936523438 L 80.81756591796875 331.7971801757812 L 80.82171630859375 331.8069458007812 L 80.82556915283203 331.81689453125 L 81.96425628662109 334.7721252441406 L 81.9691162109375 334.7848815917969 L 81.97334289550781 334.797607421875 L 82.94790649414062 337.7529907226562 L 82.95339965820312 337.7697448730469 L 82.95778656005859 337.7866516113281 L 83.76926422119141 340.9010314941406 L 83.77248382568359 340.9135131835938 L 83.77516174316406 340.9259643554688 L 84.43350982666016 344.0414428710938 L 84.43642425537109 344.0555114746094 L 84.43870544433594 344.0697021484375 L 84.92886352539062 347.1870422363281 L 84.93312072753906 347.2142639160156 L 84.93466186523438 347.2418823242188 L 85.10763549804688 350.3525085449219 L 85.27384185791016 353.6316528320312 L 85.27450561523438 353.6449279785156 L 85.27457427978516 353.6580810546875 L 85.28248596191406 356.7774047851562 L 85.28255462646484 356.7913513183594 L 85.28188323974609 356.80517578125 L 85.132568359375 359.9206237792969 L 85.13129425048828 359.9470520019531 L 85.12751007080078 359.9730529785156 L 84.65209197998047 363.2527465820312 L 84.17413330078125 366.3813171386719 L 84.16944122314453 366.4118957519531 L 84.16139221191406 366.4418029785156 L 83.35910034179688 369.4076232910156 L 82.56301116943359 372.5209655761719 L 82.55540466308594 372.5508422851562 L 82.54447937011719 372.5796813964844 L 81.41866302490234 375.5468444824219 L 80.2918701171875 378.5171203613281 L 80.28091430664062 378.5460815429688 L 80.26673889160156 378.5735778808594 L 78.82527160644531 381.3749084472656 L 78.04419708251953 383.1885070800781 L 77.57809448242188 385.1592102050781 L 77.27156829833984 386.9718627929688 L 77.27639007568359 388.9601135253906 L 77.28121948242188 390.95361328125 L 77.59961700439453 392.9471130371094 L 78.25704956054688 397.0090637207031 L 79.07904815673828 401.2365417480469 L 79.08491516113281 401.2667236328125 L 79.08736419677734 401.2974243164062 L 79.25045013427734 403.3295288085938 L 79.41835784912109 405.3685913085938 L 79.58737945556641 407.4072875976562 L 79.59103393554688 407.4513854980469 L 79.58761596679688 407.495361328125 L 79.42841339111328 409.5355224609375 L 79.42513275146484 409.5776062011719 L 79.41544342041016 409.618896484375 L 78.93409729003906 411.6590576171875 L 78.92782592773438 411.6854553222656 L 78.91898345947266 411.7113342285156 L 78.27253723144531 413.5932922363281 L 78.26258087158203 413.6221008300781 L 78.24954223632812 413.6497192382812 L 77.28289031982422 415.69189453125 L 77.26412200927734 415.7314453125 L 77.23921966552734 415.7677612304688 L 75.94140625 417.6576232910156 L 75.92598724365234 417.6800231933594 L 75.90839385986328 417.700927734375 L 74.4534912109375 419.4247131347656 L 74.43609619140625 419.4453430175781 L 74.41682434082031 419.464111328125 L 72.63963317871094 421.1937866210938 L 72.63226318359375 421.2008972167969 L 72.62454986572266 421.2078552246094 L 70.19113159179688 423.404052734375 L 70.17166137695312 423.4216003417969 L 70.15068054199219 423.4371643066406 L 67.39892578125 425.481201171875 L 67.39061737060547 425.4873657226562 L 67.38210296630859 425.4931335449219 L 64.62442016601562 427.3851623535156 L 64.60933685302734 427.3954772949219 L 64.59355163574219 427.4048461914062 L 61.67677688598633 429.1315612792969 L 58.75429916381836 430.8640441894531 L 58.73941802978516 430.8728942871094 L 58.72403335571289 430.8807983398438 L 55.64125061035156 432.4553527832031 L 55.63612365722656 432.4579162597656 L 55.63099670410156 432.46044921875 L 49.47029495239258 435.4469604492188 L 43.30546951293945 438.5886840820312 L 40.22433090209961 440.1617736816406 L 37.31361770629883 441.7272033691406 L 34.41681289672852 443.4486694335938 L 31.66804504394531 445.3273010253906 L 28.93201446533203 447.200927734375 L 26.36701202392578 449.3790283203125 L 23.78853797912598 451.8782043457031 L 21.36182022094727 454.540283203125 L 19.11514854431152 457.1851806640625 L 17.18100738525391 460.1539611816406 L 15.22997379302979 463.1391296386719 L 13.45851707458496 466.2644958496094 L 12.00119972229004 469.405029296875 L 11.99630641937256 469.4154968261719 L 11.99101066589355 469.4258117675781 L 10.37147903442383 472.56298828125 L 7.928205490112305 478.8515625 L 5.645939826965332 485.1726989746094 L 3.518917322158813 491.6473388671875 L 1.556589961051941 498.1289367675781 Z" stroke="none" fill="#707070"/>
  </g>
</svg>
