<svg xmlns="http://www.w3.org/2000/svg" width="199.959" height="199.96" viewBox="0 0 199.959 199.96">
  <path id="Sun" d="M197.362,80.317l-4.193-.118-4.307-.113-3.5.113-3.5.118-4.307.118-4.425-.118-4.075-.231-3.727-.118-3.028-.118-1.981.118-1.977.118-2.679.113-6.523.118-6.058-.118-2.674-.113-2.331-.118-.934-.118-.231-.118.118-.114.58-.118,1.981-.118,2.91-.231,6.057-.232L151.6,78.8h-.7l-.58-.118-.58-.113-.236-.118v-.118l.118-.114.58-.467,1.4-.466.93-.232,1.282-.236,3.143-.231,3.726-.118,3.963-.114,7.566.114,3.265.118v-.118l.113-.232.236-.348.58-.236.7-.35,1.165-.232,1.632-.231,2.561-.236h5l1.981.118,1.746.118,2.1-.35h3.363a99.932,99.932,0,0,0-25.974-45.213q-1.085-1.085-2.2-2.133t-2.258-2.059q-1.143-1.011-2.314-1.984T161.537,21.2l-1.177.007-15.836-.118H131.245L118.9,20.971l5.477-.231,12.226-.7,6.524-.467,5.821-.466,2.331-.35,1.745-.232,1.164-.348.349-.232.231-.118.118-.118.467-.231.9-.13A99.951,99.951,0,0,0,.526,89.668l.244.007,3.259.231,2.448.236,1.628.232.467.236.236.113.113.236.35.114,1.164.35,1.863.235,2.331.35,5.707.467,6.52.462,12.226.7,5.476.236-12.344.118L19.053,94.1H3.1l-2.922-.02Q.135,94.813.1,95.547T.046,97.019Q.024,97.757.012,98.5T0,99.98a99.979,99.979,0,1,0,199.959,0q0-2.495-.124-4.975t-.369-4.941q-.245-2.461-.611-4.9t-.849-4.848Z" fill="#ff7b00"/>
</svg>
