<svg xmlns="http://www.w3.org/2000/svg" width="274.054" height="463.176" viewBox="0 0 274.054 463.176">
  <path id="Tree" d="M15.5,112.3l-.109.358-.321-.036v-.22ZM5.839,122.594l.425.122.215.061-.215.269Zm50.425,11.847.231.062.343.042.229.179.228.293.116.429v.229l.343.724.341.5-1.256.95-1.144-.1-.228-.519-.342-.384-.112-.314-.342-.5-.115-.543.686-.6.343-.188.343-.184Zm-.34,3.938.113.088-.113.138Zm-21.5,5.438v.447l.221.4.225.4.333.38-2,1.314-.333.292.224-.383.109-.469.111-.919-.111-.986.223.066.442-.206ZM68.247,120.41l.463.126.58-.012.7-.271.349,1.074v2.294l.232.523.118.435.35.382.465.244.583.1.7-.153.583-.24.7-.27.818-.062.938-.091.939.028,1.058,1.847,1.058,1.966,2.361,5.159,2.721,5.337.712,1.246-1.068-.476-1.3-.426-1.656-.465-1.887-.42L77,137.965l-1.992-.047-4.09-.178-.351-.732-.463-.705-.468-.362-.58-.335-.581-.338-.7-.2-.58-.106-.7-.08-.7-.081-3.348.711-2.644.674-.116.025.231-.731v-1.255l.229-.508.229-.391.345-.074,1.037.121,1.381-.067,1.5-.2,1.968-.42.579-.24.463-.212.7-.493.35-.419.231-.507.118-.37v-.574l-.232-.755-.234-.295-.346-.382-1.277-1.1-.234-.406-.232-.409-.113-.548-.117-.431v-.573l.117-.485.23-.507.231-.511.465-.674.345-.536.234-.625.232-.624Zm-23.77,28.625v.114l-.11.023ZM150.985,103.77l-.131.511v.968l.131.457,1.553,3.415.258.43.389.279.521.13.649-.022-.132.151-.78.775-.517.839-.389.812-.131.752V114l.262.55.389.523.517.376,1.17.48,1.433.3,1.3.089,1.3-.156-1.956,3.453-2.214,3.375-4.407,6.965-10.4,15.222-2.42,3.714.129-2.063.254-2.931.253-2.693.382-3.439.766-4,.891-4.389,2.174-9.472,1.409-6.082,1.155-5.918.382-.084.387-.447.642-.382,1.677-.73.772-.41.906-.563.772-.774ZM97.611,111.8l.482.126.845.4.728.542.486.6.241.648.123.562.242.413.241.418.364.269.365.272.484.13.488.009.607-.014.243-.172,1.95-.662,1.71-.73,1.714-.73,2.333-.629.489.008.125.327-.125,22.454-.123,24.929v4.836l-.615-.83-.614-.829-.858-.9-.981-.878-2.934-2.622-5.834-5.329-3.5-3.526-1.926-1.951-1.8-2.089-1.8-2.2-1.912-2.173-1.669-2.329-1.547-2.465-2.846-5.2L80.068,127.5l-1.651-2.649,1.3-.281.59-.359.471-.449.474-.681.71.31.828-.066.828-.18.949-.438v1.159l.119.322.12.206.237.182.951-.206.357-.311.237-.514.357-.427.238-.749.121-.489-.121-.44-.117-.323-.121-.206-.357-.153.238-1.561.24-.75.238-.519.715-.5.834-.651,1.314-1.221,1.318-.874,1.076-.822.243-.286.717.187.6.217.844.163.841-.068.724-.393.24-.172.362-.313.241-.638Zm23.17-1.844.5.247.5.127,1.247-.035,1.623,1.426.879.64.876.525,1.131.349,1.128.113,1.89-.411.63-.376,1.261-.512,1.9-.413,1.013.139,1.144-.131,1.146-.368.761-.526.766-.649.636-.861.384-.924.383-1.167.509-.832.258-.057-.128.63v.239l.128.212.255.427.894-.2.514-.235.9.528-1.409,5.848-1.662,6.249-2.548,9.427-1.147,4.315-.888,4.135-.635,3.486-.381,2.831-.257,3.169v1.916l.381,1.6.257.791-.509.814-1.014,1.754-1.012,1.749-1.641,3.3-1.639,2.936-1.511,2.668-1.505,2.3-1.379,1.92-1.128,1.515-1.122,1.153-.75.73-.5.447-1.74,1.262-1.618,1.119-.122-1.991-.744-13.492-1.116-24.893-1.11-21.187,1.236-.506,1.238-.747,1.118-.718.994-.812.373-.438ZM71.272,139.16l3.622.28,1.642.234,1.528.263,1.3.309,1.178.333,1.776.791,1.3.66.595.343,1.187.685.951.617.475.252.119.09,1.788,2.313,1.794,2.315,1.674,2.348,1.8,1.975,3.371,3.782,5.574,5.728,2.924,2.742,1.711,1.326,1.592,1,1.35.578.614.123.49.029v10.737l.123,4.464h0l-2.578-1.79-3.3-2.6-3.166-2.6-3.517-3-3.744-3.172L91.6,167.184l-2.389-1.994-2.5-1.733-2.5-1.611-2.489-1.491v-.926l-.236-1-.115-.208-.356-.856,1.537-.879L83.26,156l.591-.578.593-.582.473-.79.356-.763.237-.861.24-.745v-1.857l-.12-.787-.357-.625-.356-.508-.473-.367-.593-.229-.711-.088-.712.143-.71.257-.352.188-.356.072-.354-.046L80.3,147.8l-.235-.186-.239-.3-.236-.183-.115-.324-.119-.436-.234-.53-.239-.184-.116-.207-.353-.041-.353-.045-.235.165-.353.185-.234.278-.119.257-.587-.227-1.058-.477-1.052-.478-.936-.613-.7-.548-.817-.751-.585-.338-.348-.274-.235-.067.235-.968.115-.482.118-.6ZM48.424,212.72l.114.321.226.3h0l-.34-.285v-.34Zm104.634-11.1.127.1-.127.02Zm5.467,6.067.26.326.261.325h0l-.521-.285v-.366ZM37.1,241.046l.055.219-.055-.106Zm156.688-8.678.41.192.133.231v.125l-.133.144-.138-.355Zm-34.379,13.371-.1.163.129-.137Zm-44.33-36.818,1.608,9.457,1.117,7.3.741,7.479.126,1.644v1.66l-.495.186-.744.579-.619.8-.5.9-.371.882v2.84l-.247.27-.246.624-.125.728.125.575.371.541.246.324.125.1.619.748.494.763.125.219.247.207.744.138-.744.81-.372.64-.247.624v.711l.125.693-.743.451-.618.435-.5.539-.371.4-.122.486-.125.491.125.456.246.325.372.308.493.409-.865.7-.371.4-.371.756-.37.757-.122.841v1.3l.245.324.247-.03.371.426v.239l.125.22.122.221.249.088.247.206.246.09.371.07.247-.146.125-.015.372.31.246.205.125.341-.125.251-.125.607.125-.135.125-.015.122.105-1.113,9.132-1.114-.466-1.233-.564-2.34-1.026-3.313-1.616-3.908-2.122-4.493-2.62L95.2,261.316l-2.285-1.7-2.394-1.793-2.27-1.92-2.263-1.914-2.137-2.041-2.133-2.032-1.889-2.061-1.885-2.052-1.761-2.067-1.524-1.978-1.406-1.987L71.972,238,69.99,234.6l-1.279-2.8-.463-.966,1.51-.68,1.514-.568,1.517-.341,1.4-.323,1.289-.191,1.411.024,1.174.057,1.3.038,2.479.446,2.25.6,4.521,1.313,2.15.619,2.277.371,1.079.078,1.2-.056,1.082-.041,1.208-.174,1.208-.406,1.209-.408,1.212-.645,1.336-.778,1.338-.9,1.341-1.135,1.464-1.273,1.346-1.494,1.228-1.477,1.226-1.833,1.1-1.934,1.108-2.057.861-2.257.742-2.242.5-2.207Zm61.684,28.817.4.071-.266.4-.271.526-.131.511v.49l.131.6.271.58.4.562.267.581.4.317.534.3.538.052.535-.191.67-.335.136-.018.136.107.267-.035.672-.459,1.076-.631.942-.495.946-.249,1.214-.159.543-.317.539-.317.677-.462.407-.425.275-.408.27-.035.814.018.542.175.271.09.138-.144v-.126l.27-.777.275-.409,1.9-.13.409-.054.41-.176.411-.18.272-.284.41.568.273.213-.273,1.279-.138,1.013.277.837.41.695.407.318.412.2.55.178.546.177.823.143.274.09.138.231.139-.018.135.109.551-.071v.5l.273.591.139.48.409.324.827.392.553.183.55-.07.414.071.414.2-2.066,4.258-2.339,4.651-2.6,4.674-2.731,4.8-2.861,4.921L186.85,273.3l-3.243,4.929-3.365,4.922-3.883,5.2-1.6,2.128-1.731,2.138.4-3.356.134-3.818.535-2.879.4-3.484.4-3.607.269-3.718.132-3.824v-3.81l-.132-3.918-.269-3.9-.266-3.535-.531-3.372-.535-3.372-.8-3.209.665-.087.668-.211.531-.438.4-.542.134-.511-.4-2.283.532-.441.536-.316.533-.2Zm-31.32.428.257.328.386.55.386.432.386.189.257-.035.256.084.387.193.258.447.387.551.387.553.515.417.649.156.646-.2,1.035-.382.517.782.389.067.389.071v.729l.131.707.386.559.521.538.65.521.649.28,2.217.44.652-.084.784-.221.392-.174.1.08.293-.5.92-1.094.522-.434.393-.295.261-.277.133.469.133.229.656.28,1.051.716.92.614.262.087.133-.26-.133-.106.133-.138.133-.017.129.1.267.089.392-.174.267-.155.4-.418.263-.278,1.057.231,1.189.457.532.42.134-.137.129-.141.663-.822.269-.279.529,3.119.264,3.154.269,3.279.13,3.3.134,3.789-.134,3.818-.264,3.832-.265,3.711-.533,3.614-.529,3.492-.662,3.379-.268,1.621-.131.746-.133.381-.134.75-.13,2.829-.4,2.613-.531,2.256-.527,2.129-.923,3.024-.53,1.519-.526,1.151-1.449,1.722-8.117,8.526-.91.928-1.04.942-2.076,1.873-4.008,3.488-3.729,3.2-3.327,2.676-3.06,2.405L135.1,329.2l-2.406,1.5-1.892,1.1-2.265,1.365-4.641,2.371h0l.127-3.339.249-7.04.375-7.17.5-7.546.876-10.683,1.129-11.076.877-11.185.88-11.319,1.133-1.686.128-.015.378.076.63-.075.631-.2.63-.314.38.193.759.147,1.518-.06,1.777-.334.764-.33.636-.558.507-.661.255-.631.641-.195.637-.2.509-.183.513-.423.639-.557.51-.664.384-.648.256-.755.643.043.126.1v.484l.13-.016.385-.169.385-.288,2.314-2.1.387-.529.256-.517.131-.62v-.6l-.26-.812V252l.26-.637.127-.619-.127-.469-.26-.571-.257-.449-.386-.313.386-.172.257-.274.129-.379.131-.379.127-.739.131-.743.256-.636.387-.537.258-.515.257-.519.131-.622v-.6l-.257-.451-.258-.448-.518-.294-.514-.172-2.319-.295-.127.017.257-.881.129-.38v-.6l-.129-.464-.13-.345ZM82.9,50.8l-.71.3-.711.422-.59.5-.471.586-.354.558-.239.641-.351.783-.239.644-.354.437-.234.3-.116-.086-.119-.429-.234-.171-.238-.168-.35-.137-.472.008-.706.073-1.99.526-.237.176-.584.271-.584.383-.584-.075-.816.328-.583.386-.585.5-.346.665-2.444-.161L66.5,58.14l-1.386.366-1.158.421-1.152.531-.576.5-.691.752-.459.807-.346.773-.573.381-.574.492-.344.771-.229.745v.115l-.46.12-.572-.082-.46-.107L57.18,64.7l-.915-.218-.682.063-.343.09-.342.2-.228.286-.23.29-.112.255-.115.372L53.87,65.9l-.454.006-.226.059-.23.172-.341.43-.227.4-.111.143-.23-.281-.341-.252-.453-.109-.793.207-.455.345-.452.343-.454.573-1.355,1.708-1.356,1.595-.114.029-.9.123-.9.457-.561.37-.672.512-1.123.966-.447.678-.449.564-.336.538-.223.506-.336.875-.559.254-.335.312-.445.448-.222.4-.226.509L37.1,78.586l-.778-.252-.889-.11-1,.255-.334.2-.22.279-.22.279-.112.478-.109.588.109.532.333.588.775,1.6.445.9.222.728-.888-.45-.554-.2-.554.03-.444.221-.329.2-.444.335-.22.278-.333.533-.22.391-.443,1.229-.109.476-.111.25-.22.278-.331-.141-.993-1.2-.439-.674-.222-.279-.55.028-.33.083-.219.391-.438.889L26.381,88.9l-.33.305-.329.529-.329.526-.218.614-.111.583-.219.388-.218.386-.221.389-.328.306-.325.19-.328.194-.438,0-.328-.028-.652-.063-.654.162-.544.359-.327.411-.11.474v.554l.11.64.327.586.761,1.145.217.393.11.416-.217.608-.544-.2-.437-.114-.76-.036-.869-.121-.761-.259-.649-.283-.543-.087-.541.021-.541.354-.431.329-.324.52-.215.5-.109.687v.665l-.109.911-.324.963-.321.629-.324.411-.432.436-.428.435-.324.63-.323.629-.969.452-.428.326-.431.431-.322.519-.319.516-.217.494v1.1l.109.416v.109L7.547,112.3l-.429.324-.321.514-.212.38-.212.491-1.28-.25-.851.2-.424.211-.426.319-.849.748-.848.968-.633,1.025-.636,1.243-.317,1.167L0,120.214v.986l.107.521.21.391.317.255.319.256.425.12.422.011.425.013.741-.282.107.2.316,1.242.108.635-.108.354-.635.474-1.062.679-.74.608-.529.557-.21.376v.765l.21.282.422.451.636.186,2.017.421v.33l.107.964.32,1.136.1.2-.424.532-.426.317-.637.471-.316.4-.215.377v.769l.318.259.426.232.743.165.426.128-.426.2-.849.406-.742.492-.636.58-.425.751-.211.483-.1.462v.436l.1.417.211.5.214.39.421.348.425.344.423.237.53.1.531.106.534-.007,1.807.05.32,1.248.321,1.029.424.789.537.657.639.633.642.305,1.07.212,1.289.058.537-.114.322-.179.215-.266.323-.288.109-.354.105-.462v-.443l-.105-.418.966-.206.109.085.539.769.754.616.864.478.758.393.216.619.215.4.216.287.218.4.325.153.432.242.435.021.433.018.436.021.759-.271.761-.49.981-.651v.222l.11.2.217.285.328-.069.217,2.18.218,1.178.11.421.218.29.217.289.329.153.328.158.328-.068.436-.2.329-.289.44-.426.766-1.05.66-1.25.438-1.1.33-.738.33-.627.22-.268.222-.046.22-.159.33.044.219.063.22.18.331.376.443.243.44.132.331.043.443.021.329-.068.333-.183.332-.182h0l-.441.65-.112.586v.559l.221.513.223.4.441.358-.441.2-.444.092-.22.272-.221.155-.775.386-.663.469-.659.584-.442.762-.33.625-.108.693-.111.69v.671l.22.625.223.513.327.491.442.469-.881,1.071-.769,1.269-.661,1.25-.441.98-.108.688v.67l.219.626.33.605-.218.6-.111.579v1.005l.111,1.2.107,1.1.219.96.66,1.883.992,2.042.551.567.662.319.771.191.884-.055,1-.3.994-.525,1.333-.923.443-.311v.561l.113.315.334.387.335.161.444.03.221.966.225.633.334.5.444.479.448.368.557.234.558.235.446.027.559.01.785-.035.673-.011.561.234.337.162.448.37.224.184.337.162.675-.125.339-.287.224-.381v-.564l.452-.537.449-.42.564-.559,1.7-1.562,1.7-1.79.452.707.34.731.341.388.342.5.456.37.567.347,1.253.564.681.215.685.214.8.08.8.078,1.372-.253.46-.312.457-.312.231-.273L59.7,176l.116-.361v-.8l-.116-.663.116-.7.228-.727.461-.657.458-.313.807-.383.8-.151.806-.036.577.007.694-.019.694-.242.578-.225.7-.359.579-.454.58-.569.466-.545.346-.638.234-.618,1.281-1.162.232-.16-.118.48v.461l.118.435.232.417.351.508.582.235.7.213.816-.04,1.168-.22.7-.246,1.523-.75,1.412-.956.707-.48.47-.553.943-.987.589-.69.474-.786.356-.876.235-.857,2.25,1.539,2.137,1.68,2.263,1.78,2.149,1.922,3.6,3.3,3.493,3.332,3.385,3.255,3.163,2.839,2.8,2.445,2.326,1.833,2.7,2.01.121-.021.248,1.731.367,3.716.494,3.814,1.232,7.6-.617-.731-.615-.607-.862-.454-.983-.312-1.107-.175-1.349.1-1.468.238-1.712.516-.732-1.293-.486-.742-.612-.725-.608-.6-.727-.467-.729-.232-.365-.058-.487.08-.241-.078-.606-.248-.363-.058-.605.1-.6.218-.6.333-1.206,1.016-.964,1.212-.122.134L95.2,201.3l-.24-.193-.239-.194-.362-.059-.482.2-.361.174-.479.2-.6.215-.6.1-.6-.136-.477-.036-1.078.177-.6.213-.358-.522-.476-.5-.6-.364-.6-.251-.6-.135.12-.949v-.58l-.12-.56-.473-.382-.477-.269-1.187-.266L83.14,196.8l-.475-.151-.472-.151-.475.08-.352.172-.594.564-.59.794-.115.132-.355-.053-.473-.037-1.883.087-.115-.557-.119-.443v-.46l.119-.483.115-.479v-.58l-.234-.42-.353-.286-.468-.266-.471-.15-.586-.129-.467.08-.47-.036-.467-.149-.236-.422-.234-.419-.118-.325-.233-.076-.232.157-.233.385-.584.9-.35.405-.7.349-.118.02.118-.478v-.691l-.118-.669-.464-.722-.582-.473-.58-.244-.466.081-.232.155-.231.153-.118.249v.231l-.118.706-.348.405-.463.424-.465.08L64.424,194l-.577.1-.922.272v-.228l-.23-.416-.346-.513-.346-.4-.462-.148-.459-.15-.575-.128-.574-.011-.576.1-1.946.45-1.829.546-.23.269-.34.4-.114.588-.115.588.115,2.366-.685.344-.569.438-.453.533-.23.607-.226.6v.682l-1.817-.6-.567-.133-.792-.091-.794.021-.68.116-1.467.364-.9.268-.449.3-.562.434-.451.526-.448.529-.451.64-.337.735-.224.825-.113.581v.678l-.447-.378-.45-.15-.67,0-.671.112-.672.222-.335.395-.445.526-.448.409-.445.3-.556.317-.782.244-.555-.021-.11.018-.113.132.113.652v.45l-.225.484-.333.392-.443.41-.445.3-.221.373-.109.468v.56l.109.205-.442.632-.333.614-.445.858-.333.614-.552.312-.553.2-.332.163-.44.408-.331.5-.444.629-.219.817-.109.8.109.763.219.746-.328.052-.111.131-.442.628-.22.37-.33.387-.33.162-.22.147-.33.165-.438.292-.878.807-1.1.059-.55.086-.436.181-1.2.632-.763.453-.545.419.324.617.11.316v.331l-.11-.091-.324.159-.221.259-.433.51-.218.589-.11.35-.76.45-1.088.167-.868.245-.649.432-.325.271-.218.366-.107.237-.11.349.11.978.325.728-.218.475-.323.381-.109.35-.11.461v.774l.11.316.215.3.216.3-.648.426-.218.256-.107.237-.324-.5-.216-.3-.324-.173-.324.048-.324.269v.773l.215.412.324.5-.539.19-.325.157-.214.252-.109.348v.332l-.539.3-.646.539-.643.757-.431.722-.215.914-.109,1.229.109,1.418-.214.254-.323.6v.551l.106.648.217.408.322.4.642.792.432.6.106.208.218.19.323.174.32.067-.753.768-.324.485-.105.678-.109.567.214.633-.646.42-.537.513-.428.39-.322.376-.109.454-.1.457.1.424.109.429.322.287.537.259-.75.652-.431.5-.322.593-.214.8-.109.784-.1.675.1.425.217.3.106.1.108-.014.322.4v.442l.213.084.109.093.106.1.213.192.217.083.214-.028.322-.154.106-.014.218.3.214.3.109.206v.331l-.109.566.109-.235.105-.014.109.206.861.22.539.15.214-.028.215-.136.217.08.106-.014.219.637L15.82,267l.974,1.094.541.373.432.39.542.264.326.068.652.03.653.139.434-.054.437-.276.544-.4.544-.514.983-1.122.874-1.447v.113l.436.056.546-.07.44-.281.547-.292.329.18.767.127,1.208-.044,1.649-.321.662-.31.551-.406.443-.616.22-.7.552-.071.444-.17.553-.3.441-.283.445-.5.554-.632.333-.716.221-.7.443.056.112.1.112.208v.224l.108-.014.225-.143.443-.282,1.894-1.932.445-.4.223-.591.113-.576-.113-.547-.11-.774-.113-1,.223-.595.113-.463v-.562l-.223-.421-.222-.532-.336-.292.223-.141.335-.272.11-.24.113-.464v-.675l.222-.707.226-.592.332-.5.225-.367.223-.6.113-.578-.113-.433-.113-.547-.335-.291-.332-.4-.448-.048-2.006-.277-.221-.082.221-.706.11-.462.113-.467-.113-.432-.069-.277.4.453.334.289.336.29.448-.064.222.306.335.4.223.53.335.515.559.259.558.146.56-.079.9-.351.45.728.224.079.447.052v.678l.114.658.224.646.337.517.451.391.449.277.452.278.563.033.563.037.564-.077.565-.192.564-.188,1.02-.595,1.021-.822.793-1.017,2.16.949,1.023.2.912.215.685.021h.8l.572-.079.572-.305.457-.178.46-.405.344-.39.344-.5.574-1.107.458-1.2.69-2.836.345-1.533.459-1.438.579-1.337.689-1.357.463-.639.577-.543L65,232.7l.578-.428,2.2-1.24.466,1.078,1.161,2.813,1.863,3.523,1.047,2.036,1.4,1.99,1.4,2.224,1.644,2.079,1.766,2.184,1.886,2.292,1.891,2.179,2.132,2.155,2.138,2.164,2.265,2.035L91,261.722l2.278,1.932,2.285,1.7,2.292,1.711,2.176,1.611,2.183,1.383,3.9,2.362,3.3,1.855,2.458,1.132,1.231.569,1.357.557,1.234.331-2.346,16.924-1.23,8.39-1.108,8.247-.983,7.519-.733,7.485-.616,7.47-.245,3.672-.12,3.542-1.1,26.44-1.588,41.583-.243,3.886v9.522l.12,6.815.122,6.582.367,5.994.367,5.29.363,4.586.491,4,.243,1.65.368,1.531.491,1.3.611,1.066.734.829.368.357.493.239.49.123.984.008.615-.115.618-.112.616-.35,1.233-.818,1.362-1.178,1.363-1.531,1.365-2.011,1.242-2.131,1.245-2.612,1-2.732.876-3.092.625-3.215.624-3.338.376-3.572.123-3.574v-3.69l-.249-7.142-.25-5.829-.127-3.328v-3.928l-.375-41.64-.249-24.018,1.876-.369,1.884-.49,2.012-.859,2.018-.98,2.655-1.507,2.158-1.354,2.543-1.868,2.936-2.265,3.206-2.653,3.476-3.047,3.62-3.437,3.9-3.595,1.96-1.985,1.044-1.061,1.047-1.063,8.158-9.265,7.845-10.307,1.07-1.21.939-1.446,1.743-2.759,3.765-5.445,3.244-5.287,3.123-5.295,2.994-5.174,2.734-5.288,2.468-5.024,2.339-4.9,2.067-4.754,1.937-4.619.552-.446.416-.555.416-.805.277-.785.28-.788.137-.771v-.122l.281-.163.83-.611.28,1.094.278.342.277.341.419.2.418.074.555-.071.141-.271-.141-.106-.137-.232v-.127l1.672-.215.278.342.42.324.561.052.42.074-.142,1.275v.378l.278.216.421.2.983-.124.559.053.142.233.279.85.7.921.422.449.56.31.565.181.561.186.423-.053.566-.2,1.129-.392.282.724.281.6,1.417,1.469.282.347v.885l-.143,1.03-.425.431-.281.414-.283.414-.143.522v3.416l.282.727.424.455.707.425.711.169L225.1,259.7l.14.621v.886l.282.1.427.076.57.062.567-.065.71.172.716.3.568.316.428.205.285.22.284-.032.145-.141.284-.415,1.433-.291.141-.016.285-.158.575-.066.43-.307.572.318.576.317.572.189.864.16v.509l.144.5.433.588.574.574.719.175.721.048,1.3-.146.434.078.142.243.292.348.289.226.288-.16.288-.543.293-.162.435-.178.578.065.582.065.726.044.726-.081.873-.223.58-.325.29-.288.295-.29.871-.228,1.025.015,1.169.255.439.208.143.24.148.114.293-.033,1.464-.294.589-.322,1.026.917,1.177.514.591.193-.442,1.082-.293.676-.149.665v.515l.293.356.442.341,2.654.873.887.424.594.195.146.242.294-.031,1.632-.3.6-.2.591-.453.743-.47.6-.45.6-.717.443-.824.3-.682.147-.8-.147-.505v-.777l.3.1.595.066.449-.181.448-.44.3-.551.3-.946,1.2-.521,2.246-1.166.45-.31.3-.425v-.52l-.3-.49-1.949-1.863-.3-.357-.3-.484-.146-.506-.151-.374.151-.8.146-.539-.146-.115-.3-.224-1.2-.251-1.638-.2-1.343.03-.893.1-.151-.373-.145-.241-.743-.433.145-.145.15-.148.15-.018.146.372.3.355v-.131l.151.114.6-.07,1.639-.324.746-.219.6-.329.3-.294v-.132l-.146-.111-.3-.355-.151-.372v-.391l.151-.277v-.39l.147-.539-.147-.892-.3-.872v-.13l.6-.2.3-.3.151-.277v-.65l.146-.149.3-.037.445.078,1.05.133.6.058.3-.167.148-.278.45-.446,1.049-.651.6-.462.451-.579.3-.689v-.653l-.3-.614-.3-.615-.452-.468-.451-.464-.6-.448-.3-.482-.3-.486v-.391l-.15-.372-.3-.354-.45-.2-.749-.034-1.645.078-1.346.3-.744.354-1.042-.907-.447-.333-.446-.334-.151.019.446-.446.151-.537.151-.409v-.521l1.639-.6.746-.483.6-.468.6-.727.3-.561.151-.8.147-.8v-1.7l-.3-.611-.6-.57-.6-.439-.9-.271-1.192-.1.447-1.1.151-1.321v-.128l.3-.561.151-.67v-.648l-.151-.629-.3-.481-.3-.477-.594-.309-.6-.177-.446-.2-2.225-.08-1.036.142-.444-.459-.594-.177-1.033-.377-1.033-.372-.443-.2-2.211.307-.292.17.292-.3.3-.559.144-.535-.144-.5-.149-.367-.884-.908-.733-.669-.293-.088v-.131l-.44-.452-.44-.582-.584-.3-.588-.3-.584-.047-.3.042-.291.3v.386l.439,2,.148.622.291.6v.257l-.148.277-.291.3-.439.061-.292.166-.147.277v.259l.291.346.439.323.439.068.441-.061.439-.19.88-1.153.145.5v.774l-.292,1.071v.127l-.584.6-.588.467-.88.507-.73.357-.878.25-.144-.626-.29-.73-.438-.584-.585-.431-.728-.286v-.129l.29-.423.295-.557.144-1.177-.144-1.134v-.386l-.295-.344-.579-.56.142-.792-.142-.62-.727-1.565-.583-1.2-.29-.343-.436-.452-.579-.3-.582-.171-.723-.279.576-.469.293-.3.143-.405.292-.3V206.3l-.147-.364-.146-.36-.29-.216-.723-.534.145-.532-.145-2.157.145-2.071v-.9l-.292-.341-.143-.233-.293-.34-.431-.064-.434-.19-.434-.062-.868.132-.433-1.212-.433-.956-.433-.571-.288-.085-.719.111-1.007-.1-.717-.143-.722-.4-.717-.526-.716-.4-.286-.212-.43-.188-.43-.062-.57.089-1,.285-.568.217-.429.321-.143.15-1,.79-.711.869-1.138.432-.71.109-.57-.041-.709-.143-.565-.294v-.885l-.286-.716-.283-.589-.563-.545-.711-.4-.846-.247-1.833-.216-.423-.061-.7-.392-.422-.061-.7.111-.706.239-.56.463-1.4,1.1-1.262,1.2v.25l-.557-.163-.282-.207-.279-.21-.419-.058-.419.066-.556.338-.418.191-.7.233-.7-.015-.7-.017-.558-.04-.693-.015-.694.232-.556.214-.552-.667-.556-.412-.692-.394-.69-.267-.69-.266.275-1.044v-.625l-.275-.455-.414-.436-.55-.287-1.515-.382-1.378-.4-.548-.161-.551-.038-.547.088-.273.17-.824.629-.683.735-.139.145-.41-.057-.545.087-2.183.1-.138-.6-.133-.474v-.5l.133-.517.138-.643v-.5l-.271-.577-.41-.306-.408-.18-.68-.137-.678-.139-.545-.033-.541.088-.407-.305-.408-.305-.273-.453-.133-.471-.269-.081-.274.17-.27.416-.675.976-.406.438-.812.38v-.372l.137-.761-.27-.823-.542-.651-.673-.509-.673-.256-.268-.081-.272.045-.268.169-.133.143-.136.269-.136.393-.131.639-.4.562-.4.312-.671.11-2.545.049-.8.132-1.068.3v-.246l-.265-.45-.267-.57-.535-.4-.531-.282-.534-.159-.665-.011-.663-.014-.533-.031-2.386.64-1.982.572-.4.31-.4.432-.133.513-.13.632.13,2.668-.659.352-.657.474-.525.452-.395.674-.133.751-.13.754-2.1-.756-.659-.139-.915.028-.914.025-2.351.381-1.042.411-.65.35-.518.445-.649.469-.521.69-.516.692-.39.787-.258.769-.131.748v.606l-.52-.281-.516-.16-.776-.117-.777.124-.644.343-.514.446-.388.424-.643.461-.517.444-.513.2-1.028.285-.642-.021-.13.143v1.323l-.255.524-.385.422-.514.32-.381.422-.385.422-.128.5v.483l.128.219-.513.8-.384.539-.384,1.022-.509.561-.512.318-.762.239-.384.177-.382.419-.511.677-.378.658-.382.78-.129.98.129.822.253.8-.253-.083-.129.019-.129.141-.507.676-.253.519-.257.277-.377.3-.381.177-.38.057-.508.315-1.013.869-1.264.068-.5.195-.634.212-1.383.564-.883.489-.628.452.506.759.123.34-.123.255-.127.019-.251.158-.253.275-.374.3-.127-.581-1.507-7.52-3.376-14.464-1.62-7.1-.622-3.455-.621-3.455-.248-1.976-.247-1.972-.373-4.086,1.367-.36,1.492-.621,1.5-.858,1.375-1.075.624-.589,1.126-1.034,1.258-1.416,1.379-1.918,1.513-2.184,1.511-2.547,1.519-2.913,1.518-3.155,1.525-3.284.888-1.606.894-1.729,2.039-3.514,2.3-3.694,9.66-15.569,4.55-7.487,2.089-3.837,1.962-3.7.262.187.264.188.39.04.66-.139.391-.2.79-.653.528-.845.525-.844.657-1.237.4-.575.262-.543.267-.424.4-.452.393-.328.53-.357.527-.361.665-.262,1.189-.255.532.005.529.011.4.038.264.187.134.216.134.215-.134.4v.369l-.265.425-.4.574-.4.821-.265.669v.492l.131.461.134.22.264.064.265.068.4-.084.8-.293,1.064-.715,1.066-.963.535.745.4.654.4,1.393.269.434.4.287,1.205.731.537.134.67-.015.669-.265.671-.262.672-.511.672-.511.671-.758.541-.731.537-.855.273-.924.132.1.811.447.675.354.675.105.676-.018.677-.267.407-.333.407-.458.275-.555v-.248l.133-.152.545-.363,1.629-.344.68-.018.956-.2.816-.3.958-.45.82-.548.819-.547.683-.767.689-.643.274-.433.412-.71.273-.559.687-.273.552-.241.409-.336.413-.463.415-.465.274-.56.139-.653v-.874l1.517-.453,1.245-.645.967-.458.831-.556.553-.746.557-.747.277-.813.141-.784L207,94.676l-.277-.692-1.941-3.958.968-.963.973-.72.553-.5.417-.469.418-.72.14-.531v-.753l-.28-.691,2.786-.876.556-.252.838-.439.419-.218.279-.318.278-.313v-.755l-.137-.348-.279-.187-.419-.157-.7-.092-.56-.128-3.063-.055-1.388-.188-1.248-.342-.829-.31-.415-.408.415-.593.276-.317.692-.409.832-.44.97-.472.694-.413.7-.536.7-.661.555-.632.559-.757.556-.879.419-.853.279-.819.141-.912.136-1.038v-.632l-.136-.6-.279-.312-.419-.152-.282-.185-.833-.054-.977.229-1.112.511-1.664.89-.556.384-1.935.453-.555,0-.416-.152-.549-.12-.279-.31-.41-.28-.414-.278-.967-.274-1.1.011-.547.129-.413.224.139-.909.409-.842.552-.881.688-.786.688-.788.553-.633.274-.69v-.75l-.14-.465-.274-.436-.413-.276-.688-.084L199.4,61.4l-.691.04-.273-.932-.412-.772-.413-.9-.547-.617-.411-.274-.411-.274-.684-.2-.683-.086-.683.045-2.321.565-1.089.386-.679.165-.679.044-.408-.152-.271-.056-.814-.545-1.084-.48-1.352-.287-1.216-.073-.674.043-.541-1.473-.4-.768-.4-.393-.4-.15-.4.1-.672.291-.539.5-.4.839-.4.96-.136.28V57.1l-.267-1.17.131-.647v-.371l-.131-.7-.271-.3-.267-.18-.132-.337-.537-2.7-.4-2.114-.4-1.13-.132-.212-.271-.181-.934.236-.4.471-2.4,2.568-.4.346-.4.348-.8.32.268-.187,4.527-4.457.668-.783.537-.751.267-.807v-.74l-.135-.7-.4-.513-.668-.444-.668-.2-2.133-.557-.93-.009-.8.084-.664.171-.533.382-.529.38-.4.47-.265.437-.267.556-.264.683v.612l-.129,2.236v.488l-.268-.3-1.847-2.1-.53-.475-.659-.319-.791-.164-.791.079-.786.325-.79.445-.655.533-.655.777-.133.157-.522.741-.393.343-.393.342-.261.067-.392-.627-.524-.354-.521-.109-.524.011-.391.1-.26.19-.391.342-.127.274-.392-.261-.262-.3-.387-.147-.522.015-.391.219-.39.223-.39.465-.259.43-.647.165-.259.184V48.48l-.13-.331-.259-.538-.389-.265-.516-.231-.65.048L149.562,47l-.776-.163-.774-.405-.387-.385-.388-.382-.513-.23-.642-.074-.643.044-.642-.559-.515-.468-.511-.348-.514-.35-.51-.108-.514.013-.51.133-.385.221-.383.34-.383.221-.383-.022-.384-.14-1.526.4-1.018.626-1.145,1.014-.381.58-.506.609-.634,1.364-.637,1.6-.252,1.5-.125.63-.128.631-.38.573-.632-.077-1.137-1.143-1.261-1.349-.251-.3-.378-.261-.5-.107-.374-.142-.506.011-.377.1-.5.249-.377.215v-.475l.124-.51-.124-.326-.127-.322-.249-.177-.25-.051-.376-.023-.249.065-.879.349-.874.7-.75.671-.75.311-.122.031-.252-.052v-.119l.75-.909.749-.905,1.126-.891.748-.669.753-.792.753-.912.627-.881.127-.391.123-.508v-.358l-.25-.292-.377-.5-.754-.277-.876-.127-1.128.177L123.024,43l-1.124-.18-.744-.277-.5-.344-.374-.611-.495-.225-.374-.14-.62.165-.374.218-.5.369-.247.658-.372.574-.373.57-.492.487-.5.486-.618.283-1.73.457-.861.108-.985.26-1.107.412-.245-.525-.368-.376-.489-.34-.492-.107-.613.046-.611.162-.488.363-.491.365-.124.386-.12.385-.61.4-.857.579-.728.311-.366.1-.123-.555-.365-.375-.366-.137-.484.128-.488.247-.607.395-.484.6-.606.863-.364.566-.486.476-.605.512-.482.363-.606-.543-.6-.31-.721-.162-.847.109-.48.241-.6.277-.483.36-.479.476-.722.773-.6.507-.721.075-.6.157-.359.209-.359-.02-.359-.023-.118-.2-.242-.285-.359-.138-.238-.055-.717.189-.355.211-.358.326L87.3,53.7V53l-.121-.548-.238-.518-.357-.486-.474-.34-.477-.336-.593-.191-.714-.044-.712.075Z" fill="#3f1315"/>
</svg>
