<svg xmlns="http://www.w3.org/2000/svg" width="1030.502" height="1002.631" viewBox="0 0 1030.502 1002.631">
  <path id="Wrap_Draw" d="M745.645,147.686c20.987,1.914,57.318,16.436,91.607,43.585,33.737,26.712,65.389,65.562,78.879,116.888,13.3,50.62,9.043,113.76-28.474,190.835-37.481,77-108.834,169.308-232.253,280.413-59.9,50.952-132.587,74.359-206.061,77.2-75.292,2.91-151.978-15.758-215.908-49.068-65.651-34.207-117.572-83.71-139.483-140.2-22.268-57.412-13.16-121.046,43.109-180.793,58.674-51.619,108.011-81.52,151.255-98.866C331.1,370.514,367.9,365.65,401.932,364.167c33.673-1.467,64.648.375,96.077-3.111,31.131-3.453,62.75-12.138,97.964-34.48,32.79-22.1,53.7-43.875,67.883-64.258,14.169-20.358,21.686-39.405,27.525-55.941,5.845-16.551,10.009-30.59,17.438-40.824S726.9,148.935,745.645,147.686Z" fill="#ed262f"/>
</svg>
